<svg width="357" height="511" viewBox="0 0 357 511" fill="none" xmlns="http://www.w3.org/2000/svg">
<g clip-path="url(#clip0_2340_5675)">
<rect width="357" height="510.025" fill="white"/>
<g filter="url(#filter0_f_2340_5675)">
<path d="M137.891 3.98478L34.8439 177.94L-20.77 332.433L-34.1122 520.828L287.333 523.159L177.41 270.783L137.891 3.98478Z" fill="#771FE2"/>
</g>
<g filter="url(#filter1_f_2340_5675)">
<path d="M284.845 531.011L214.21 277.164L-36.3976 -14.8954L437.789 -10.448L322 259.196L284.845 531.011Z" fill="#771FE2"/>
</g>
<g filter="url(#filter2_f_2340_5675)">
<path d="M118.165 255.011L66.2531 147.263L170.507 147.471L118.165 255.011Z" fill="#FBEA6D"/>
</g>
<g filter="url(#filter3_f_2340_5675)">
<path d="M291.716 506.657L203.804 380.317L161.144 239.684L360.897 398.193L352.597 506.657L291.716 506.657Z" fill="#F3B5FF"/>
</g>
<g filter="url(#filter4_f_2340_5675)">
<path d="M325.836 89.5534L289.048 5.34458L362.959 5.49227L325.836 89.5534Z" fill="#FFE41A"/>
</g>
<g filter="url(#filter5_f_2340_5675)">
<path d="M358.425 336.361L293.916 355.402L58.4638 60.0183L349.919 76.2965L358.425 336.361Z" fill="#E28AF3"/>
</g>
<path d="M79.7081 209.613V207.152C77.0483 207.082 74.9843 206.426 73.5163 205.183C72.0655 203.922 71.3401 202.186 71.3401 199.975C71.3401 197.695 72.0655 195.925 73.5163 194.664C74.9671 193.386 77.031 192.713 79.7081 192.644V190.416H83.361V192.644C86.0553 192.713 88.1365 193.378 89.6046 194.638C91.0727 195.899 91.8067 197.661 91.8067 199.923C91.8067 202.169 91.0727 203.922 89.6046 205.183C88.1365 206.443 86.064 207.091 83.3869 207.126L83.361 209.613H79.7081ZM83.3869 204.069C86.4267 203.965 87.9465 202.575 87.9465 199.898C87.9465 197.238 86.4267 195.83 83.3869 195.675V204.069ZM79.7081 204.094V195.701C76.7029 195.821 75.2002 197.238 75.2002 199.949C75.2002 202.592 76.7029 203.974 79.7081 204.094ZM100.65 209.25V190.752H111.531V193.991H104.614V198.032H111.09V201.271H104.614V205.96H111.531V209.25H100.65ZM128.307 209.509C125.457 209.509 123.272 208.68 121.752 207.022C120.25 205.347 119.499 203.024 119.499 200.053C119.499 198.067 119.853 196.357 120.561 194.923C121.286 193.49 122.322 192.393 123.67 191.633C125.017 190.873 126.64 190.493 128.54 190.493C129.49 190.493 130.414 190.597 131.312 190.804C132.228 190.994 133.117 191.296 133.981 191.711L132.556 194.794C131.848 194.448 131.165 194.198 130.509 194.043C129.87 193.87 129.257 193.783 128.67 193.783C127.046 193.783 125.803 194.328 124.939 195.416C124.075 196.486 123.644 198.041 123.644 200.079C123.644 204.155 125.405 206.193 128.929 206.193C129.602 206.193 130.293 206.115 131.001 205.96C131.727 205.787 132.487 205.537 133.281 205.208V208.551C131.813 209.19 130.155 209.509 128.307 209.509ZM149.487 209.25H145.523V194.043H140.523V190.752H154.487V194.043H149.487V209.25ZM162.496 209.25V190.752H166.408V199.742C166.408 200.312 166.399 200.942 166.382 201.633C166.365 202.307 166.339 202.92 166.304 203.473C166.287 204.008 166.27 204.362 166.253 204.535H166.33L173.351 190.752H178.222V209.25H174.31V200.701C174.31 200.234 174.318 199.725 174.336 199.172C174.353 198.602 174.37 198.058 174.387 197.54C174.422 197.022 174.448 196.573 174.465 196.193C174.482 195.796 174.5 195.537 174.517 195.416H174.413L167.367 209.25H162.496ZM188.041 209.25V190.752H194.077C196.599 190.752 198.438 191.132 199.595 191.892C200.77 192.635 201.357 193.792 201.357 195.364C201.357 196.521 201.046 197.445 200.424 198.136C199.803 198.809 199.06 199.241 198.196 199.431V199.561C198.818 199.682 199.397 199.898 199.932 200.208C200.485 200.519 200.934 200.968 201.279 201.556C201.642 202.143 201.823 202.92 201.823 203.887C201.823 205.58 201.21 206.901 199.984 207.851C198.775 208.784 197.117 209.25 195.01 209.25H188.041ZM191.953 198.162H194.285C195.355 198.162 196.124 197.972 196.59 197.592C197.057 197.195 197.29 196.633 197.29 195.908C197.29 195.2 197.031 194.682 196.513 194.353C195.994 194.008 195.183 193.835 194.077 193.835H191.953V198.162ZM191.953 206.115H194.569C195.675 206.115 196.469 205.891 196.953 205.442C197.454 204.993 197.704 204.371 197.704 203.576C197.704 202.799 197.445 202.203 196.927 201.789C196.426 201.357 195.597 201.141 194.44 201.141H191.953V206.115ZM221.827 209.25L220.402 204.898H213.873L212.448 209.25H208.174L214.676 190.675H219.547L226.101 209.25H221.827ZM218.2 197.566C218.131 197.307 218.018 196.918 217.863 196.4C217.725 195.882 217.586 195.355 217.448 194.82C217.31 194.267 217.198 193.818 217.112 193.473C217.042 193.87 216.939 194.328 216.801 194.846C216.68 195.347 216.559 195.847 216.438 196.348C216.317 196.832 216.213 197.238 216.127 197.566L214.806 201.581H219.495L218.2 197.566ZM233.598 209.535C233.184 209.535 232.787 209.5 232.407 209.431C232.044 209.38 231.698 209.31 231.37 209.224V205.934C231.612 205.986 231.819 206.029 231.992 206.063C232.182 206.081 232.381 206.089 232.588 206.089C233.313 206.089 233.84 205.856 234.168 205.39C234.514 204.906 234.73 204.094 234.816 202.955C234.885 202.005 234.954 200.986 235.023 199.898C235.11 198.809 235.187 197.54 235.256 196.089C235.343 194.621 235.429 192.842 235.515 190.752H248.106V209.25H244.117V194.043H239.013C238.927 196.046 238.84 197.825 238.754 199.379C238.668 200.934 238.555 202.385 238.417 203.732C238.21 205.735 237.726 207.203 236.966 208.136C236.224 209.069 235.101 209.535 233.598 209.535ZM257.806 209.25V190.804H261.718V197.229H263.842C266.208 197.229 267.996 197.739 269.205 198.758C270.414 199.777 271.019 201.271 271.019 203.24C271.019 205.226 270.414 206.728 269.205 207.747C267.996 208.749 266.217 209.25 263.868 209.25H257.806ZM261.718 206.012H263.583C265.863 206.012 267.003 205.07 267.003 203.188C267.003 201.374 265.846 200.467 263.531 200.467H261.718V206.012ZM74.1247 242.509C71.2749 242.509 69.0901 241.68 67.5702 240.022C66.0676 238.347 65.3163 236.024 65.3163 233.053C65.3163 231.067 65.6703 229.357 66.3785 227.923C67.1039 226.49 68.1401 225.393 69.4873 224.633C70.8345 223.873 72.458 223.493 74.3579 223.493C75.3078 223.493 76.2318 223.597 77.1299 223.804C78.0453 223.994 78.9348 224.296 79.7983 224.711L78.3735 227.794C77.6653 227.448 76.9831 227.198 76.3268 227.043C75.6878 226.87 75.0746 226.783 74.4874 226.783C72.8639 226.783 71.6203 227.328 70.7568 228.416C69.8932 229.486 69.4614 231.041 69.4614 233.079C69.4614 237.155 71.2231 239.193 74.7465 239.193C75.42 239.193 76.1109 239.115 76.819 238.96C77.5444 238.787 78.3044 238.537 79.0989 238.208V241.551C77.6308 242.19 75.9727 242.509 74.1247 242.509ZM88.0506 242.25V223.752H94.0869C96.6086 223.752 98.448 224.132 99.6051 224.892C100.78 225.635 101.367 226.792 101.367 228.364C101.367 229.521 101.056 230.445 100.434 231.136C99.8124 231.809 99.0697 232.241 98.2062 232.431V232.561C98.8279 232.682 99.4065 232.898 99.9419 233.208C100.495 233.519 100.944 233.968 101.289 234.556C101.652 235.143 101.833 235.92 101.833 236.887C101.833 238.58 101.22 239.901 99.9937 240.851C98.7847 241.784 97.1267 242.25 95.0196 242.25H88.0506ZM91.9625 231.162H94.2942C95.365 231.162 96.1336 230.972 96.5999 230.592C97.0662 230.195 97.2994 229.633 97.2994 228.908C97.2994 228.2 97.0403 227.682 96.5222 227.353C96.0041 227.008 95.1923 226.835 94.0869 226.835H91.9625V231.162ZM91.9625 239.115H94.5792C95.6845 239.115 96.479 238.891 96.9626 238.442C97.4635 237.993 97.7139 237.371 97.7139 236.576C97.7139 235.799 97.4549 235.203 96.9367 234.789C96.4358 234.357 95.6068 234.141 94.4496 234.141H91.9625V239.115ZM110.385 242.25V223.752H121.266V226.991H114.349V231.032H120.826V234.271H114.349V238.96H121.266V242.25H110.385ZM137.343 242.25H133.379V227.043H128.379V223.752H142.343V227.043H137.343V242.25ZM149.668 242.535C149.254 242.535 148.857 242.5 148.477 242.431C148.114 242.38 147.769 242.31 147.44 242.224V238.934C147.682 238.986 147.889 239.029 148.062 239.063C148.252 239.081 148.451 239.089 148.658 239.089C149.383 239.089 149.91 238.856 150.238 238.39C150.584 237.906 150.8 237.094 150.886 235.955C150.955 235.005 151.024 233.986 151.093 232.898C151.18 231.809 151.257 230.54 151.326 229.089C151.413 227.621 151.499 225.842 151.586 223.752H164.176V242.25H160.187V227.043H155.083C154.997 229.046 154.91 230.825 154.824 232.379C154.738 233.934 154.625 235.385 154.487 236.732C154.28 238.735 153.796 240.203 153.036 241.136C152.294 242.069 151.171 242.535 149.668 242.535ZM172.062 242.25L177.166 234.452C176.648 234.262 176.113 233.968 175.56 233.571C175.025 233.174 174.567 232.63 174.187 231.939C173.824 231.231 173.643 230.333 173.643 229.245C173.643 227.448 174.256 226.084 175.482 225.151C176.726 224.219 178.462 223.752 180.69 223.752H186.855V242.25H182.943V235.411H180.819L176.441 242.25H172.062ZM180.871 232.198H182.943V226.965H180.819C179.748 226.965 178.945 227.172 178.41 227.587C177.892 227.984 177.633 228.614 177.633 229.478C177.633 230.428 177.909 231.119 178.462 231.55C179.031 231.982 179.835 232.198 180.871 232.198ZM206.743 242.25V235.1C205.362 235.583 203.945 235.825 202.495 235.825C200.422 235.825 198.85 235.35 197.78 234.4C196.709 233.433 196.173 232.008 196.173 230.125V223.752H200.085V229.426C200.085 230.566 200.344 231.378 200.862 231.861C201.398 232.345 202.236 232.587 203.375 232.587C204.429 232.587 205.552 232.371 206.743 231.939V223.752H210.655V242.25H206.743ZM220.494 242.25V223.752H224.38V231.006H226.297L231.193 223.752H235.338L229.406 232.457L235.986 242.25H231.452L226.193 234.271H224.38V242.25H220.494ZM250.878 242.509C248.115 242.509 245.964 241.671 244.427 239.996C242.907 238.321 242.147 235.972 242.147 232.949C242.147 229.944 242.907 227.612 244.427 225.954C245.964 224.296 248.132 223.467 250.93 223.467C253.693 223.467 255.826 224.296 257.329 225.954C258.832 227.595 259.583 229.935 259.583 232.975C259.583 235.998 258.823 238.347 257.303 240.022C255.783 241.68 253.642 242.509 250.878 242.509ZM250.878 239.219C252.381 239.219 253.521 238.692 254.298 237.639C255.075 236.568 255.464 235.013 255.464 232.975C255.464 230.937 255.084 229.391 254.324 228.338C253.564 227.284 252.441 226.758 250.956 226.758C249.453 226.758 248.296 227.284 247.484 228.338C246.673 229.391 246.267 230.937 246.267 232.975C246.267 234.996 246.664 236.542 247.458 237.613C248.253 238.683 249.393 239.219 250.878 239.219ZM268.323 242.25V223.752H274.359C276.881 223.752 278.72 224.132 279.877 224.892C281.052 225.635 281.639 226.792 281.639 228.364C281.639 229.521 281.328 230.445 280.706 231.136C280.084 231.809 279.342 232.241 278.478 232.431V232.561C279.1 232.682 279.679 232.898 280.214 233.208C280.767 233.519 281.216 233.968 281.561 234.556C281.924 235.143 282.105 235.92 282.105 236.887C282.105 238.58 281.492 239.901 280.266 240.851C279.057 241.784 277.399 242.25 275.292 242.25H268.323ZM272.235 231.162H274.566C275.637 231.162 276.406 230.972 276.872 230.592C277.338 230.195 277.571 229.633 277.571 228.908C277.571 228.2 277.312 227.682 276.794 227.353C276.276 227.008 275.464 226.835 274.359 226.835H272.235V231.162ZM272.235 239.115H274.851C275.957 239.115 276.751 238.891 277.235 238.442C277.735 237.993 277.986 237.371 277.986 236.576C277.986 235.799 277.727 235.203 277.209 234.789C276.708 234.357 275.879 234.141 274.722 234.141H272.235V239.115Z" fill="black"/>
<path d="M26.987 279.398V271.506H33.4203V279.398H31.7512V272.899H28.6561V279.398H26.987ZM37.6065 279.52C37.4297 279.52 37.2602 279.505 37.098 279.476C36.9433 279.454 36.7959 279.424 36.6559 279.387V277.984C36.7591 278.006 36.8475 278.024 36.9212 278.039C37.0022 278.046 37.087 278.05 37.1754 278.05C37.4849 278.05 37.7097 277.95 37.8497 277.751C37.9971 277.545 38.0892 277.199 38.126 276.712C38.1555 276.307 38.185 275.872 38.2145 275.408C38.2513 274.944 38.2845 274.402 38.314 273.783C38.3508 273.157 38.3876 272.398 38.4245 271.506H43.7966V279.398H42.0943V272.91H39.9167C39.8799 273.765 39.8431 274.524 39.8062 275.187C39.7694 275.85 39.7215 276.469 39.6625 277.044C39.5741 277.899 39.3677 278.525 39.0435 278.923C38.7266 279.321 38.2476 279.52 37.6065 279.52ZM52.7655 279.398L52.1576 277.541H49.3721L48.7641 279.398H46.9402L49.7147 271.473H51.7928L54.5894 279.398H52.7655ZM51.218 274.413C51.1886 274.303 51.1407 274.137 51.0743 273.916C51.0154 273.695 50.9564 273.47 50.8975 273.242C50.8385 273.006 50.7906 272.814 50.7538 272.667C50.7243 272.836 50.6801 273.032 50.6211 273.253C50.5695 273.466 50.518 273.68 50.4664 273.894C50.4148 274.1 50.3706 274.273 50.3337 274.413L49.77 276.127H51.7707L51.218 274.413ZM57.7439 279.398V271.506H60.3195C61.3954 271.506 62.1802 271.668 62.6739 271.992C63.175 272.309 63.4255 272.803 63.4255 273.474C63.4255 273.967 63.2929 274.362 63.0276 274.656C62.7623 274.944 62.4455 275.128 62.077 275.209V275.264C62.3423 275.316 62.5892 275.408 62.8176 275.541C63.0534 275.673 63.245 275.865 63.3924 276.115C63.5471 276.366 63.6245 276.698 63.6245 277.11C63.6245 277.832 63.3629 278.396 62.8397 278.802C62.3239 279.199 61.6164 279.398 60.7174 279.398H57.7439ZM59.4131 274.667H60.4079C60.8648 274.667 61.1927 274.586 61.3917 274.424C61.5906 274.255 61.6901 274.015 61.6901 273.706C61.6901 273.404 61.5796 273.183 61.3585 273.043C61.1374 272.895 60.7911 272.821 60.3195 272.821H59.4131V274.667ZM59.4131 278.061H60.5295C61.0011 278.061 61.3401 277.965 61.5464 277.774C61.7601 277.582 61.867 277.317 61.867 276.978C61.867 276.646 61.7564 276.392 61.5354 276.215C61.3217 276.031 60.9679 275.939 60.4742 275.939H59.4131V278.061ZM67.3287 279.398V271.506H68.9978V275.342C68.9978 275.585 68.9941 275.854 68.9868 276.149C68.9794 276.436 68.9683 276.698 68.9536 276.933C68.9462 277.162 68.9389 277.313 68.9315 277.387H68.9647L71.9602 271.506H74.0383V279.398H72.3692V275.751C72.3692 275.552 72.3729 275.334 72.3803 275.099C72.3876 274.855 72.395 274.623 72.4024 274.402C72.4171 274.181 72.4282 273.989 72.4355 273.827C72.4429 273.658 72.4503 273.547 72.4576 273.496H72.4134L69.4068 279.398H67.3287ZM81.3229 279.398H79.6317V272.91H77.4983V271.506H83.4562V272.91H81.3229V279.398Z" fill="black"/>
<path d="M137.815 279.227V271.334H140.39C141.466 271.334 142.251 271.496 142.745 271.821C143.246 272.137 143.496 272.631 143.496 273.302C143.496 273.796 143.364 274.19 143.098 274.485C142.833 274.772 142.516 274.956 142.148 275.037V275.092C142.413 275.144 142.66 275.236 142.888 275.369C143.124 275.501 143.316 275.693 143.463 275.944C143.618 276.194 143.695 276.526 143.695 276.938C143.695 277.661 143.434 278.224 142.91 278.63C142.394 279.028 141.687 279.227 140.788 279.227H137.815ZM139.484 274.496H140.479C140.935 274.496 141.263 274.415 141.462 274.252C141.661 274.083 141.761 273.843 141.761 273.534C141.761 273.232 141.65 273.011 141.429 272.871C141.208 272.723 140.862 272.65 140.39 272.65H139.484V274.496ZM139.484 277.889H140.6C141.072 277.889 141.411 277.793 141.617 277.602C141.831 277.41 141.938 277.145 141.938 276.806C141.938 276.474 141.827 276.22 141.606 276.043C141.392 275.859 141.039 275.767 140.545 275.767H139.484V277.889ZM151.585 279.227V271.334H156.46V272.716H153.255V279.227H151.585ZM163.114 279.337C161.935 279.337 161.017 278.98 160.362 278.265C159.713 277.55 159.389 276.548 159.389 275.258C159.389 273.976 159.713 272.981 160.362 272.274C161.017 271.566 161.942 271.213 163.136 271.213C164.315 271.213 165.225 271.566 165.866 272.274C166.507 272.974 166.828 273.972 166.828 275.269C166.828 276.559 166.504 277.561 165.855 278.276C165.207 278.983 164.293 279.337 163.114 279.337ZM163.114 277.933C163.755 277.933 164.241 277.709 164.573 277.259C164.905 276.802 165.07 276.139 165.07 275.269C165.07 274.4 164.908 273.74 164.584 273.291C164.26 272.841 163.781 272.616 163.147 272.616C162.506 272.616 162.012 272.841 161.666 273.291C161.32 273.74 161.146 274.4 161.146 275.269C161.146 276.132 161.316 276.791 161.655 277.248C161.994 277.705 162.48 277.933 163.114 277.933ZM170.557 279.227V271.334H173.033C174.042 271.334 174.79 271.548 175.277 271.975C175.77 272.395 176.017 273.011 176.017 273.821C176.017 274.61 175.77 275.251 175.277 275.745C174.783 276.231 174.013 276.474 172.967 276.474H172.248V279.227H170.557ZM172.248 275.081H172.823C173.317 275.081 173.689 274.986 173.939 274.794C174.19 274.595 174.315 274.286 174.315 273.866C174.315 273.099 173.843 272.716 172.9 272.716H172.248V275.081ZM183.015 279.337C181.836 279.337 180.918 278.98 180.263 278.265C179.614 277.55 179.29 276.548 179.29 275.258C179.29 273.976 179.614 272.981 180.263 272.274C180.918 271.566 181.843 271.213 183.037 271.213C184.216 271.213 185.126 271.566 185.767 272.274C186.408 272.974 186.729 273.972 186.729 275.269C186.729 276.559 186.405 277.561 185.756 278.276C185.108 278.983 184.194 279.337 183.015 279.337ZM183.015 277.933C183.656 277.933 184.142 277.709 184.474 277.259C184.806 276.802 184.971 276.139 184.971 275.269C184.971 274.4 184.809 273.74 184.485 273.291C184.161 272.841 183.682 272.616 183.048 272.616C182.407 272.616 181.913 272.841 181.567 273.291C181.22 273.74 181.047 274.4 181.047 275.269C181.047 276.132 181.217 276.791 181.556 277.248C181.895 277.705 182.381 277.933 183.015 277.933ZM189.521 280.863V277.834H190.35C190.564 277.598 190.733 277.362 190.858 277.126C190.984 276.883 191.079 276.607 191.146 276.297C191.212 275.98 191.264 275.594 191.3 275.137C191.337 274.731 191.37 274.193 191.4 273.523C191.429 272.845 191.455 272.115 191.477 271.334H196.816V277.834H197.877V280.863H196.264V279.227H191.135V280.863H189.521ZM192.107 277.834H195.147V272.727H192.959C192.944 273.177 192.925 273.619 192.903 274.053C192.889 274.481 192.863 274.868 192.826 275.214C192.767 275.855 192.679 276.382 192.561 276.795C192.45 277.207 192.299 277.554 192.107 277.834ZM201.142 279.227V271.334H205.785V272.716H202.834V274.44H205.597V275.822H202.834V277.823H205.785V279.227H201.142Z" fill="black"/>
<path d="M263.89 282.359C262.711 282.359 261.793 282.001 261.137 281.286C260.489 280.572 260.165 279.569 260.165 278.28C260.165 276.998 260.489 276.003 261.137 275.295C261.793 274.588 262.718 274.234 263.912 274.234C265.091 274.234 266.001 274.588 266.642 275.295C267.283 275.995 267.604 276.994 267.604 278.291C267.604 279.58 267.28 280.583 266.631 281.297C265.983 282.005 265.069 282.359 263.89 282.359ZM263.89 280.955C264.531 280.955 265.017 280.73 265.349 280.28C265.68 279.824 265.846 279.16 265.846 278.291C265.846 277.421 265.684 276.762 265.36 276.312C265.036 275.863 264.557 275.638 263.923 275.638C263.282 275.638 262.788 275.863 262.442 276.312C262.095 276.762 261.922 277.421 261.922 278.291C261.922 279.153 262.092 279.813 262.431 280.269C262.77 280.726 263.256 280.955 263.89 280.955ZM271.388 282.248V274.356H276.263V275.737H273.057V282.248H271.388ZM279.827 282.248V274.356H281.496V277.451H284.68V274.356H286.349V282.248H284.68V278.844H281.496V282.248H279.827ZM290.489 282.248V274.356H295.131V275.737H292.18V277.462H294.943V278.844H292.18V280.844H295.131V282.248H290.489ZM298.951 282.248V274.356H300.62V278.191C300.62 278.435 300.616 278.703 300.609 278.998C300.602 279.286 300.591 279.547 300.576 279.783C300.568 280.012 300.561 280.163 300.554 280.236H300.587L303.582 274.356H305.661V282.248H303.991V278.6C303.991 278.401 303.995 278.184 304.002 277.948C304.01 277.705 304.017 277.473 304.025 277.252C304.039 277.031 304.05 276.839 304.058 276.677C304.065 276.507 304.073 276.397 304.08 276.345H304.036L301.029 282.248H298.951ZM302.311 273.692C301.655 273.692 301.14 273.549 300.764 273.261C300.395 272.974 300.174 272.524 300.101 271.913H301.515C301.596 272.466 301.862 272.742 302.311 272.742C302.768 272.742 303.033 272.466 303.107 271.913H304.522C304.448 272.524 304.224 272.974 303.848 273.261C303.479 273.549 302.967 273.692 302.311 273.692Z" fill="black"/>
<path d="M223.438 349.574H222.477C222.477 348.855 222.677 348.324 223.076 347.982C223.476 347.637 224.093 347.464 224.928 347.464C225.791 347.464 226.419 347.624 226.811 347.944C227.207 348.265 227.405 348.784 227.405 349.504C227.405 349.774 227.374 350.02 227.313 350.244C227.252 350.463 227.144 350.677 226.989 350.886C226.835 351.095 226.622 351.316 226.353 351.55C226.086 351.784 225.744 352.052 225.327 352.354C224.697 352.8 224.242 353.19 223.961 353.525C223.684 353.86 223.546 354.209 223.546 354.572H227.308V355.393H222.526V355.209C222.526 354.842 222.556 354.518 222.618 354.238C222.679 353.953 222.785 353.689 222.936 353.444C223.087 353.199 223.296 352.951 223.562 352.699C223.832 352.447 224.172 352.17 224.582 351.868C225.086 351.494 225.473 351.181 225.743 350.929C226.016 350.674 226.205 350.436 226.309 350.217C226.414 349.993 226.466 349.745 226.466 349.472C226.466 349.044 226.345 348.732 226.104 348.538C225.863 348.34 225.458 348.241 224.89 348.241C224.368 348.241 223.996 348.344 223.773 348.549C223.549 348.75 223.438 349.092 223.438 349.574ZM232.039 352.057L231.186 351.776L231.483 347.62H235.855V348.441H232.368L232.163 351.091C232.376 350.882 232.599 350.736 232.833 350.654C233.07 350.567 233.374 350.524 233.745 350.524C234.551 350.524 235.155 350.724 235.558 351.123C235.961 351.523 236.163 352.156 236.163 353.023C236.163 353.887 235.947 354.518 235.515 354.918C235.087 355.317 234.437 355.517 233.567 355.517C232.699 355.517 232.057 355.344 231.64 354.999C231.226 354.653 231.021 354.122 231.024 353.406H231.985C231.985 353.885 232.102 354.227 232.336 354.432C232.573 354.637 232.969 354.74 233.523 354.74C234.124 354.74 234.558 354.615 234.824 354.367C235.09 354.115 235.224 353.667 235.224 353.023C235.224 352.379 235.09 351.931 234.824 351.679C234.558 351.427 234.124 351.301 233.523 351.301C232.789 351.301 232.295 351.553 232.039 352.057ZM239.809 352.273V351.442H242.826V352.273H239.809ZM249.425 355.517C248.702 355.517 248.131 355.378 247.714 355.101C247.297 354.82 246.998 354.38 246.818 353.779C246.642 353.178 246.554 352.39 246.554 351.415C246.554 350.483 246.642 349.725 246.818 349.142C246.998 348.56 247.297 348.131 247.714 347.858C248.131 347.584 248.702 347.448 249.425 347.448C250.148 347.448 250.717 347.584 251.13 347.858C251.548 348.131 251.843 348.56 252.016 349.142C252.188 349.725 252.275 350.483 252.275 351.415C252.275 352.39 252.188 353.178 252.016 353.779C251.843 354.38 251.548 354.82 251.13 355.101C250.717 355.378 250.148 355.517 249.425 355.517ZM249.425 354.729C249.796 354.729 250.101 354.68 250.342 354.583C250.587 354.482 250.78 354.31 250.92 354.065C251.064 353.82 251.165 353.484 251.222 353.056C251.283 352.624 251.314 352.077 251.314 351.415C251.314 350.605 251.258 349.97 251.147 349.51C251.039 349.045 250.848 348.718 250.575 348.527C250.301 348.333 249.918 348.236 249.425 348.236C248.932 348.236 248.547 348.333 248.27 348.527C247.993 348.721 247.797 349.051 247.682 349.515C247.57 349.975 247.514 350.609 247.514 351.415C247.514 352.08 247.545 352.629 247.606 353.061C247.667 353.489 247.77 353.826 247.914 354.07C248.058 354.311 248.252 354.482 248.497 354.583C248.745 354.68 249.054 354.729 249.425 354.729ZM261.243 349.558H260.282C260.282 349.076 260.156 348.734 259.904 348.533C259.652 348.327 259.258 348.225 258.722 348.225C258.103 348.225 257.65 348.39 257.362 348.721C257.078 349.053 256.936 349.571 256.936 350.276V351.22C257.224 350.947 257.499 350.763 257.762 350.67C258.024 350.573 258.346 350.524 258.728 350.524C259.624 350.524 260.286 350.724 260.714 351.123C261.142 351.523 261.356 352.156 261.356 353.023C261.356 353.858 261.119 354.482 260.644 354.896C260.169 355.31 259.512 355.517 258.674 355.517C257.785 355.517 257.116 355.317 256.666 354.918C256.22 354.518 255.997 353.889 255.997 353.029V350.373C255.997 348.423 256.905 347.448 258.722 347.448C259.55 347.448 260.178 347.62 260.606 347.966C261.034 348.311 261.247 348.842 261.243 349.558ZM258.679 354.74C259.23 354.74 259.656 354.608 259.958 354.345C260.264 354.083 260.417 353.642 260.417 353.023C260.417 352.379 260.277 351.931 259.996 351.679C259.715 351.427 259.258 351.301 258.625 351.301C258.154 351.301 257.787 351.364 257.524 351.49C257.265 351.613 257.071 351.802 256.941 352.057V353.023C256.941 353.656 257.08 354.101 257.357 354.356C257.634 354.612 258.075 354.74 258.679 354.74ZM264.814 352.273V351.442H267.831V352.273H264.814ZM272.249 349.574H271.288C271.288 348.855 271.488 348.324 271.887 347.982C272.287 347.637 272.904 347.464 273.739 347.464C274.602 347.464 275.23 347.624 275.622 347.944C276.018 348.265 276.216 348.784 276.216 349.504C276.216 349.774 276.186 350.02 276.124 350.244C276.063 350.463 275.955 350.677 275.801 350.886C275.646 351.095 275.434 351.316 275.164 351.55C274.897 351.784 274.556 352.052 274.138 352.354C273.508 352.8 273.053 353.19 272.773 353.525C272.496 353.86 272.357 354.209 272.357 354.572H276.119V355.393H271.337V355.209C271.337 354.842 271.368 354.518 271.429 354.238C271.49 353.953 271.596 353.689 271.747 353.444C271.898 353.199 272.107 352.951 272.373 352.699C272.643 352.447 272.983 352.17 273.393 351.868C273.897 351.494 274.284 351.181 274.554 350.929C274.827 350.674 275.016 350.436 275.12 350.217C275.225 349.993 275.277 349.745 275.277 349.472C275.277 349.044 275.156 348.732 274.915 348.538C274.674 348.34 274.27 348.241 273.701 348.241C273.179 348.241 272.807 348.344 272.584 348.549C272.361 348.75 272.249 349.092 272.249 349.574ZM282.545 355.517C281.822 355.517 281.251 355.378 280.834 355.101C280.417 354.82 280.118 354.38 279.938 353.779C279.762 353.178 279.674 352.39 279.674 351.415C279.674 350.483 279.762 349.725 279.938 349.142C280.118 348.56 280.417 348.131 280.834 347.858C281.251 347.584 281.822 347.448 282.545 347.448C283.268 347.448 283.837 347.584 284.251 347.858C284.668 348.131 284.963 348.56 285.136 349.142C285.308 349.725 285.395 350.483 285.395 351.415C285.395 352.39 285.308 353.178 285.136 353.779C284.963 354.38 284.668 354.82 284.251 355.101C283.837 355.378 283.268 355.517 282.545 355.517ZM282.545 354.729C282.916 354.729 283.221 354.68 283.463 354.583C283.707 354.482 283.9 354.31 284.04 354.065C284.184 353.82 284.285 353.484 284.342 353.056C284.404 352.624 284.434 352.077 284.434 351.415C284.434 350.605 284.378 349.97 284.267 349.51C284.159 349.045 283.968 348.718 283.695 348.527C283.421 348.333 283.038 348.236 282.545 348.236C282.052 348.236 281.667 348.333 281.39 348.527C281.113 348.721 280.917 349.051 280.802 349.515C280.69 349.975 280.634 350.609 280.634 351.415C280.634 352.08 280.665 352.629 280.726 353.061C280.787 353.489 280.89 353.826 281.034 354.07C281.178 354.311 281.372 354.482 281.617 354.583C281.865 354.68 282.174 354.729 282.545 354.729ZM291.988 355.517C291.265 355.517 290.695 355.378 290.277 355.101C289.86 354.82 289.561 354.38 289.381 353.779C289.205 353.178 289.117 352.39 289.117 351.415C289.117 350.483 289.205 349.725 289.381 349.142C289.561 348.56 289.86 348.131 290.277 347.858C290.695 347.584 291.265 347.448 291.988 347.448C292.711 347.448 293.28 347.584 293.694 347.858C294.111 348.131 294.406 348.56 294.579 349.142C294.752 349.725 294.838 350.483 294.838 351.415C294.838 352.39 294.752 353.178 294.579 353.779C294.406 354.38 294.111 354.82 293.694 355.101C293.28 355.378 292.711 355.517 291.988 355.517ZM291.988 354.729C292.359 354.729 292.665 354.68 292.906 354.583C293.15 354.482 293.343 354.31 293.483 354.065C293.627 353.82 293.728 353.484 293.785 353.056C293.847 352.624 293.877 352.077 293.877 351.415C293.877 350.605 293.821 349.97 293.71 349.51C293.602 349.045 293.411 348.718 293.138 348.527C292.864 348.333 292.481 348.236 291.988 348.236C291.495 348.236 291.11 348.333 290.833 348.527C290.556 348.721 290.36 349.051 290.245 349.515C290.133 349.975 290.078 350.609 290.078 351.415C290.078 352.08 290.108 352.629 290.169 353.061C290.23 353.489 290.333 353.826 290.477 354.07C290.621 354.311 290.815 354.482 291.06 354.583C291.308 354.68 291.618 354.729 291.988 354.729ZM303.806 349.558H302.845C302.845 349.076 302.719 348.734 302.468 348.533C302.216 348.327 301.822 348.225 301.286 348.225C300.667 348.225 300.213 348.39 299.925 348.721C299.641 349.053 299.499 349.571 299.499 350.276V351.22C299.787 350.947 300.062 350.763 300.325 350.67C300.588 350.573 300.91 350.524 301.291 350.524C302.187 350.524 302.849 350.724 303.277 351.123C303.705 351.523 303.919 352.156 303.919 353.023C303.919 353.858 303.682 354.482 303.207 354.896C302.732 355.31 302.075 355.517 301.237 355.517C300.348 355.517 299.679 355.317 299.229 354.918C298.783 354.518 298.56 353.889 298.56 353.029V350.373C298.56 348.423 299.468 347.448 301.286 347.448C302.113 347.448 302.741 347.62 303.169 347.966C303.597 348.311 303.81 348.842 303.806 349.558ZM301.242 354.74C301.793 354.74 302.219 354.608 302.522 354.345C302.827 354.083 302.98 353.642 302.98 353.023C302.98 352.379 302.84 351.931 302.559 351.679C302.279 351.427 301.822 351.301 301.188 351.301C300.717 351.301 300.35 351.364 300.087 351.49C299.828 351.613 299.634 351.802 299.504 352.057V353.023C299.504 353.656 299.643 354.101 299.92 354.356C300.197 354.612 300.638 354.74 301.242 354.74Z" fill="black"/>
<g filter="url(#filter6_f_2340_5675)">
<path d="M12.1183 20.6418L12.0293 5.03758C12.025 4.28575 13.086 4.12412 13.3058 4.84312L17.8439 19.6892C18.0629 20.4058 19.1196 20.2485 19.1204 19.4992L19.1367 3.81672" stroke="black" stroke-width="1.17452"/>
</g>
<g filter="url(#filter7_f_2340_5675)">
<path d="M12.1163 20.3919L12.0535 5.1038C12.0504 4.35198 13.1116 4.19202 13.3303 4.91136L17.8822 19.8874C18.1008 20.6067 19.162 20.4468 19.159 19.6951L19.0982 4.20843" stroke="black" stroke-width="0.522009"/>
</g>
<g filter="url(#filter8_f_2340_5675)">
<path d="M42.933 19.6731L43.1243 6.06783C43.1347 5.33026 44.1691 5.17367 44.3973 5.87512L48.713 19.1396C48.9412 19.841 49.9756 19.6845 49.9859 18.9469L50.1789 5.23315" stroke="black" stroke-width="1.17452"/>
</g>
<g filter="url(#filter9_f_2340_5675)">
<path d="M42.9329 19.7516L43.1277 5.90805C43.1381 5.1694 44.1747 5.01401 44.4013 5.71714L48.7452 19.2009C48.9717 19.904 50.0083 19.7487 50.0187 19.01L50.208 5.56025" stroke="black" stroke-width="0.522009"/>
</g>
<g filter="url(#filter10_f_2340_5675)">
<path d="M30.2325 5.86886L23.2472 4.57917C22.8743 4.51033 22.5215 4.77273 22.4801 5.14965L21.9377 10.0915C21.903 10.4076 22.1013 10.7027 22.407 10.7901L29.1045 12.7047C29.3879 12.7857 29.5818 13.0465 29.5776 13.3412L29.5239 17.1584C29.5193 17.4849 29.2741 17.7577 28.9499 17.797L21.7647 18.6667" stroke="black" stroke-width="1.17452"/>
</g>
<g filter="url(#filter11_f_2340_5675)">
<path d="M30.2325 5.86886L23.2472 4.57917C22.8743 4.51033 22.5215 4.77273 22.4801 5.14965L21.9377 10.0915C21.903 10.4076 22.1013 10.7027 22.407 10.7901L29.1045 12.7047C29.3879 12.7857 29.5818 13.0465 29.5776 13.3412L29.5239 17.1584C29.5193 17.4849 29.2741 17.7577 28.9499 17.797L21.7647 18.6667" stroke="black" stroke-width="0.522009"/>
</g>
<g filter="url(#filter12_f_2340_5675)">
<path d="M40.6153 5.42486C38.1128 5.38965 33.0995 5.3191 33.0656 5.31862C33.0317 5.31815 32.9971 9.18164 32.9841 11.1135M32.9841 11.1135L40.5294 11.5247M32.9841 11.1135L32.8984 17.2002C32.8935 17.5489 33.1636 17.8398 33.5116 17.8607L40.4344 18.2781" stroke="black" stroke-width="1.17452"/>
</g>
<g filter="url(#filter13_f_2340_5675)">
<path d="M40.6153 5.42486C38.1128 5.38965 33.0995 5.3191 33.0656 5.31862C33.0317 5.31815 32.9971 9.18164 32.9841 11.1135M32.9841 11.1135L40.5294 11.5247M32.9841 11.1135L32.8984 17.2002C32.8935 17.5489 33.1636 17.8398 33.5116 17.8607L40.4344 18.2781" stroke="black" stroke-width="0.522009"/>
</g>
<g filter="url(#filter14_f_2340_5675)">
<path d="M59.9556 8.42965C59.9581 8.25093 58.8155 12.3971 58.6928 16.2071C58.6853 16.439 58.5599 16.6518 58.3578 16.766L53.9326 19.2655C53.4941 19.5131 52.9521 19.1917 52.9592 18.6881L53.1405 5.80635C53.1475 5.3066 53.6906 4.99952 54.123 5.25017C56.5072 6.63221 59.9534 8.59062 59.9556 8.42965Z" stroke="black" stroke-width="1.17452"/>
</g>
<g filter="url(#filter15_f_2340_5675)">
<path d="M59.9556 8.42965C59.9581 8.25093 58.8155 12.3971 58.6928 16.2071C58.6853 16.439 58.5599 16.6518 58.3578 16.766L53.9326 19.2655C53.4941 19.5131 52.9521 19.1917 52.9592 18.6881L53.1405 5.80635C53.1475 5.3066 53.6906 4.99952 54.123 5.25017C56.5072 6.63221 59.9534 8.59062 59.9556 8.42965Z" stroke="black" stroke-width="0.522009"/>
</g>
<g filter="url(#filter16_f_2340_5675)">
<path d="M63.9768 19.329L65.3299 13.6054M71.1537 19.43L69.2962 11.6382M69.2962 11.6382L68.1047 6.63991C67.9436 5.96433 66.9788 5.97456 66.8322 6.6534L65.3299 13.6054M69.2962 11.6382L65.3299 13.6054" stroke="black" stroke-width="1.17452"/>
</g>
<g filter="url(#filter17_f_2340_5675)">
<rect x="7.74609" y="3.91797" width="1.37027" height="16.639" rx="0.652511" transform="rotate(0.806209 7.74609 3.91797)" fill="black"/>
</g>
<g filter="url(#filter18_f_2340_5675)">
<rect x="8.13672" y="4.05469" width="0.58726" height="16.3128" rx="0.29363" transform="rotate(0.806209 8.13672 4.05469)" fill="black"/>
</g>
<g filter="url(#filter19_f_2340_5675)">
<rect x="61.5" y="5.13281" width="1.17452" height="14.551" rx="0.58726" transform="rotate(0.806209 61.5 5.13281)" fill="black"/>
</g>
<g filter="url(#filter20_f_2340_5675)">
<rect x="61.8203" y="5.52734" width="0.456758" height="13.768" rx="0.228379" transform="rotate(0.806209 61.8203 5.52734)" fill="black"/>
</g>
<g filter="url(#filter21_f_2340_5675)">
<path d="M63.9768 19.329L65.198 13.7014M71.1537 19.43L69.2962 11.6382M69.2962 11.6382L68.0885 6.57204C67.9283 5.90018 66.9706 5.90518 66.8175 6.57868L65.198 13.7014M69.2962 11.6382L65.198 13.7014" stroke="black" stroke-width="0.522009"/>
</g>
<path d="M15.953 449.004V441.226H17.5506L19.7635 447.136H19.9524L22.1761 441.226H23.7791V449.004H22.9372V442.063H22.7429L20.4814 448.065H19.2346L16.9893 442.063H16.795V449.004H15.953ZM28.0139 441.523H29.1257V442.56H28.0139V441.523ZM28.9854 449.004H28.1542V443.547H28.9854V449.004ZM32.7398 447.536H33.5278C33.535 447.896 33.6321 448.144 33.8192 448.281C34.0063 448.414 34.3554 448.48 34.8663 448.48C35.3269 448.48 35.6435 448.408 35.8162 448.264C35.9925 448.121 36.0807 447.883 36.0807 447.552C36.0807 447.297 35.9979 447.095 35.8324 446.948C35.6705 446.8 35.4114 446.697 35.0552 446.64L34.4831 446.548C33.875 446.451 33.436 446.282 33.1662 446.041C32.8999 445.796 32.7668 445.447 32.7668 444.994C32.7668 443.947 33.4576 443.423 34.8393 443.423C35.5662 443.423 36.0789 443.547 36.3776 443.795C36.6762 444.044 36.8255 444.454 36.8255 445.026H36.0375C36.0375 444.684 35.9476 444.44 35.7677 444.292C35.5877 444.145 35.2783 444.071 34.8393 444.071C34.3931 444.071 34.0693 444.143 33.8678 444.287C33.6699 444.431 33.571 444.663 33.571 444.983C33.571 445.231 33.6447 445.422 33.7922 445.555C33.9434 445.688 34.1826 445.782 34.5101 445.836L35.0822 445.927C35.7155 446.028 36.1671 446.203 36.4369 446.451C36.7104 446.699 36.8471 447.063 36.8471 447.541C36.8471 448.081 36.6852 448.48 36.3614 448.739C36.0411 448.999 35.532 449.128 34.8339 449.128C34.0963 449.128 33.562 449.006 33.2309 448.761C32.9035 448.516 32.7398 448.108 32.7398 447.536ZM40.1967 447.536H40.9847C40.9919 447.896 41.0891 448.144 41.2762 448.281C41.4633 448.414 41.8123 448.48 42.3232 448.48C42.7838 448.48 43.1004 448.408 43.2732 448.264C43.4495 448.121 43.5376 447.883 43.5376 447.552C43.5376 447.297 43.4549 447.095 43.2894 446.948C43.1274 446.8 42.8684 446.697 42.5121 446.64L41.94 446.548C41.3319 446.451 40.8929 446.282 40.6231 446.041C40.3568 445.796 40.2237 445.447 40.2237 444.994C40.2237 443.947 40.9145 443.423 42.2962 443.423C43.0231 443.423 43.5358 443.547 43.8345 443.795C44.1331 444.044 44.2825 444.454 44.2825 445.026H43.4945C43.4945 444.684 43.4045 444.44 43.2246 444.292C43.0447 444.145 42.7352 444.071 42.2962 444.071C41.8501 444.071 41.5262 444.143 41.3247 444.287C41.1268 444.431 41.0279 444.663 41.0279 444.983C41.0279 445.231 41.1016 445.422 41.2492 445.555C41.4003 445.688 41.6396 445.782 41.967 445.836L42.5391 445.927C43.1724 446.028 43.624 446.203 43.8939 446.451C44.1673 446.699 44.3041 447.063 44.3041 447.541C44.3041 448.081 44.1421 448.48 43.8183 448.739C43.4981 448.999 42.9889 449.128 42.2909 449.128C41.5532 449.128 41.0189 449.006 40.6879 448.761C40.3604 448.516 40.1967 448.108 40.1967 447.536ZM15.953 463.004V455.226H21.1345V456.047H16.8922V458.54H20.4976V459.35H16.8922V462.184H21.1506V463.004H15.953ZM25.6121 457.547L25.7146 458.395C25.9053 458.01 26.1626 457.752 26.4864 457.623C26.8103 457.49 27.1413 457.423 27.4795 457.423H27.5821V458.249H27.4633C27.0711 458.249 26.7185 458.326 26.4055 458.481C26.0924 458.636 25.8783 458.888 25.7632 459.237V463.004H24.932V457.547H25.6121ZM31.7844 457.547L31.887 458.395C32.0777 458.01 32.335 457.752 32.6588 457.623C32.9826 457.49 33.3137 457.423 33.6519 457.423H33.7545V458.249H33.6357C33.2435 458.249 32.8909 458.326 32.5778 458.481C32.2648 458.636 32.0507 458.888 31.9356 459.237V463.004H31.1044V457.547H31.7844ZM37.7949 459.021H37.0447C37.0447 458.477 37.2192 458.076 37.5682 457.817C37.9172 457.558 38.4552 457.428 39.182 457.428C39.9196 457.428 40.4648 457.563 40.8174 457.833C41.1736 458.103 41.3517 458.519 41.3517 459.08V461.865C41.3517 462.106 41.3877 462.264 41.4597 462.34C41.5316 462.416 41.6756 462.444 41.8915 462.426V463.085C41.8231 463.11 41.7619 463.124 41.7079 463.128C41.654 463.132 41.5892 463.133 41.5136 463.133C41.251 463.133 41.0387 463.063 40.8768 462.923C40.7184 462.783 40.6393 462.597 40.6393 462.367C40.4594 462.608 40.2057 462.795 39.8783 462.928C39.5544 463.061 39.1802 463.128 38.7556 463.128C38.1475 463.128 37.6797 462.986 37.3523 462.702C37.0249 462.414 36.8612 462.007 36.8612 461.482C36.8612 460.877 37.0537 460.447 37.4387 460.192C37.8273 459.933 38.4768 459.803 39.3871 459.803H40.5205V459.075C40.5205 458.722 40.418 458.472 40.2129 458.324C40.0078 458.173 39.6642 458.098 39.182 458.098C38.6818 458.098 38.3256 458.17 38.1133 458.314C37.901 458.454 37.7949 458.69 37.7949 459.021ZM40.5259 461.358V460.419H39.3817C38.7844 460.419 38.3562 460.5 38.0971 460.661C37.8417 460.82 37.7139 461.088 37.7139 461.466C37.7139 461.786 37.8219 462.031 38.0378 462.2C38.2537 462.369 38.5595 462.453 38.9553 462.453C39.4591 462.453 39.8459 462.36 40.1157 462.173C40.3892 461.986 40.5259 461.714 40.5259 461.358Z" fill="black"/>
<path d="M15.953 477.07V469.293H21.1345V470.113H16.8922V472.607H20.4598V473.416H16.8922V477.07H15.953ZM24.9104 477.07V469.293H27.4741C28.201 469.293 28.7731 469.363 29.1905 469.503C29.6079 469.64 29.9047 469.863 30.081 470.173C30.2574 470.478 30.3455 470.889 30.3455 471.403C30.3455 472.36 29.8328 472.97 28.8073 473.233C29.0664 473.298 29.2732 473.382 29.428 473.486C29.5863 473.591 29.714 473.742 29.8112 473.94C29.9083 474.134 29.9947 474.4 30.0703 474.739L30.5884 477.07H29.6385L29.2013 475.068C29.1185 474.683 29.0142 474.386 28.8882 474.177C28.7659 473.969 28.5896 473.825 28.3593 473.746C28.129 473.663 27.8106 473.621 27.404 473.621H25.8496V477.07H24.9104ZM25.8496 472.833H27.6199C28.21 472.833 28.6562 472.729 28.9584 472.52C29.2607 472.308 29.4118 471.954 29.4118 471.457C29.4118 471.112 29.3596 470.84 29.2553 470.642C29.1545 470.441 28.9764 470.298 28.7209 470.216C28.469 470.133 28.1182 470.092 27.6684 470.092H25.8496V472.833ZM37.7917 477.275C36.9173 477.275 36.2228 477.119 35.7083 476.806C35.1973 476.489 34.8321 476.023 34.6126 475.408C34.3931 474.793 34.2834 474.039 34.2834 473.146C34.2834 472.261 34.3967 471.522 34.6234 470.928C34.8537 470.331 35.2261 469.881 35.7407 469.579C36.2552 469.277 36.9389 469.125 37.7917 469.125C38.648 469.125 39.3317 469.278 39.8426 469.584C40.3572 469.886 40.7278 470.336 40.9545 470.934C41.1812 471.527 41.2945 472.263 41.2945 473.141C41.2945 474.037 41.1848 474.793 40.9653 475.408C40.7458 476.02 40.3806 476.484 39.8696 476.8C39.3623 477.117 38.6696 477.275 37.7917 477.275ZM37.7917 476.471C38.4897 476.471 39.0204 476.345 39.3839 476.093C39.7473 475.838 39.9956 475.464 40.1287 474.971C40.2618 474.474 40.3284 473.863 40.3284 473.136C40.3284 472.416 40.2582 471.821 40.1179 471.349C39.9812 470.874 39.7293 470.52 39.3623 470.286C38.9989 470.048 38.4753 469.93 37.7917 469.93C37.0972 469.93 36.5665 470.05 36.1994 470.291C35.836 470.532 35.5859 470.894 35.4492 471.376C35.3161 471.855 35.2495 472.456 35.2495 473.179C35.2495 473.906 35.3179 474.514 35.4546 475.003C35.5913 475.492 35.8414 475.86 36.2048 476.104C36.5719 476.349 37.1008 476.471 37.7917 476.471ZM45.3727 477.07V469.293H46.9703L49.1832 475.203H49.3721L51.5958 469.293H53.1988V477.07H52.3568V470.129H52.1625L49.9011 476.131H48.6543L46.409 470.129H46.2147V477.07H45.3727ZM58.0165 473.195C57.7862 473.195 57.6171 473.148 57.5091 473.055C57.4048 472.961 57.3526 472.796 57.3526 472.558C57.3526 472.321 57.4048 472.155 57.5091 472.062C57.6171 471.968 57.7862 471.921 58.0165 471.921C58.2504 471.921 58.4195 471.968 58.5238 472.062C58.6282 472.155 58.6803 472.321 58.6803 472.558C58.6803 472.796 58.6282 472.961 58.5238 473.055C58.4195 473.148 58.2504 473.195 58.0165 473.195ZM58.0165 477.189C57.7862 477.189 57.6171 477.142 57.5091 477.049C57.4048 476.955 57.3526 476.79 57.3526 476.552C57.3526 476.315 57.4048 476.149 57.5091 476.056C57.6171 475.962 57.7862 475.915 58.0165 475.915C58.2504 475.915 58.4195 475.962 58.5238 476.056C58.6282 476.149 58.6803 476.315 58.6803 476.552C58.6803 476.79 58.6282 476.955 58.5238 477.049C58.4195 477.142 58.2504 477.189 58.0165 477.189ZM68.2724 471.252H67.3117C67.3117 470.532 67.5114 470.002 67.9108 469.66C68.3102 469.314 68.9273 469.142 69.7621 469.142C70.6257 469.142 71.2536 469.302 71.6458 469.622C72.0416 469.942 72.2395 470.462 72.2395 471.182C72.2395 471.452 72.2089 471.698 72.1477 471.921C72.0866 472.141 71.9786 472.355 71.8239 472.564C71.6692 472.772 71.4569 472.994 71.187 473.227C70.9207 473.461 70.5789 473.729 70.1615 474.032C69.5318 474.478 69.0766 474.868 68.796 475.203C68.5189 475.537 68.3804 475.887 68.3804 476.25H72.1423V477.07H67.3603V476.887C67.3603 476.52 67.3909 476.196 67.4521 475.915C67.5132 475.631 67.6194 475.367 67.7705 475.122C67.9216 474.877 68.1303 474.629 68.3966 474.377C68.6665 474.125 69.0065 473.848 69.4167 473.546C69.9204 473.172 70.3072 472.859 70.5771 472.607C70.8506 472.351 71.0395 472.114 71.1438 471.894C71.2482 471.671 71.3003 471.423 71.3003 471.149C71.3003 470.721 71.1798 470.41 70.9387 470.216C70.6976 470.018 70.2928 469.919 69.7243 469.919C69.2026 469.919 68.8302 470.021 68.6071 470.227C68.384 470.428 68.2724 470.77 68.2724 471.252ZM76.5498 471.252H75.589C75.5855 470.536 75.7834 470.005 76.1828 469.66C76.5858 469.314 77.2046 469.142 78.0394 469.142C78.903 469.142 79.5309 469.313 79.9231 469.654C80.3189 469.996 80.5168 470.505 80.5168 471.182C80.5168 471.664 80.3945 472.045 80.1498 472.326C79.9051 472.607 79.5255 472.826 79.0109 472.985C79.5507 473.078 79.9663 473.294 80.2577 473.632C80.5528 473.97 80.7003 474.409 80.7003 474.949C80.7003 475.69 80.4952 476.248 80.085 476.622C79.6784 476.997 79.0271 477.184 78.1312 477.184C77.264 477.184 76.6217 477.011 76.2043 476.666C75.7905 476.32 75.5855 475.789 75.589 475.073H76.5498C76.5498 475.552 76.6667 475.894 76.9006 476.099C77.1381 476.304 77.5339 476.406 78.088 476.406C78.6889 476.406 79.1171 476.295 79.3726 476.072C79.6316 475.849 79.7612 475.492 79.7612 475.003C79.7612 474.489 79.5957 474.095 79.2646 473.821C78.9336 473.544 78.4514 473.406 77.8181 473.406H77.0733V472.553H77.748C78.3453 472.553 78.7987 472.43 79.1081 472.186C79.4211 471.941 79.5777 471.596 79.5777 471.149C79.5777 470.721 79.4571 470.41 79.216 470.216C78.975 470.018 78.5702 469.919 78.0016 469.919C77.4799 469.919 77.1075 470.021 76.8844 470.227C76.6613 470.428 76.5498 470.77 76.5498 471.252ZM89.8768 477.07V469.293H92.2462C93.0235 469.293 93.6352 469.367 94.0813 469.514C94.5275 469.658 94.8442 469.912 95.0313 470.275C95.2184 470.635 95.3119 471.137 95.3119 471.781C95.3119 472.385 95.2094 472.868 95.0043 473.227C94.7992 473.587 94.4717 473.846 94.022 474.005C93.5758 474.163 92.9839 474.242 92.2462 474.242H90.816V477.07H89.8768ZM90.816 473.454H92.2462C92.822 473.454 93.2627 473.411 93.5686 473.325C93.8744 473.235 94.0849 473.069 94.2001 472.828C94.3188 472.587 94.3782 472.238 94.3782 471.781C94.3782 471.31 94.3188 470.95 94.2001 470.701C94.0849 470.453 93.8744 470.284 93.5686 470.194C93.2627 470.101 92.822 470.054 92.2462 470.054H90.816V473.454ZM99.3092 477.07V469.293H100.907L103.12 475.203H103.309L105.532 469.293H107.135V477.07H106.293V470.129H106.099L103.838 476.131H102.591L100.345 470.129H100.151V477.07H99.3092ZM15.0355 484.113V483.293H20.7944V484.113H18.3818V491.076H17.4481V484.113H15.0355ZM27.3986 491.275C26.5242 491.275 25.8298 491.119 25.3152 490.806C24.8043 490.489 24.4391 490.023 24.2196 489.408C24.0001 488.793 23.8903 488.039 23.8903 487.146C23.8903 486.261 24.0037 485.522 24.2304 484.928C24.4606 484.331 24.8331 483.881 25.3476 483.579C25.8621 483.277 26.5458 483.125 27.3986 483.125C28.255 483.125 28.9386 483.278 29.4496 483.584C29.9641 483.886 30.3347 484.336 30.5614 484.934C30.7881 485.527 30.9014 486.263 30.9014 487.141C30.9014 488.037 30.7917 488.793 30.5722 489.408C30.3527 490.02 29.9875 490.484 29.4765 490.8C28.9692 491.117 28.2765 491.275 27.3986 491.275ZM27.3986 490.471C28.0966 490.471 28.6274 490.345 28.9908 490.093C29.3542 489.838 29.6025 489.464 29.7356 488.971C29.8688 488.474 29.9353 487.863 29.9353 487.136C29.9353 486.416 29.8652 485.821 29.7248 485.349C29.5881 484.874 29.3362 484.52 28.9692 484.286C28.6058 484.048 28.0822 483.93 27.3986 483.93C26.7041 483.93 26.1734 484.05 25.8064 484.291C25.443 484.532 25.1929 484.894 25.0561 485.376C24.923 485.855 24.8564 486.456 24.8564 487.179C24.8564 487.906 24.9248 488.514 25.0615 489.003C25.1983 489.492 25.4484 489.86 25.8118 490.104C26.1788 490.349 26.7077 490.471 27.3986 490.471ZM40.8498 487.735L39.997 487.454L40.2938 483.298H44.6657V484.119H41.179L40.9739 486.769C41.1862 486.56 41.4093 486.414 41.6432 486.331C41.8807 486.245 42.1847 486.202 42.5553 486.202C43.3613 486.202 43.9658 486.402 44.3688 486.801C44.7718 487.2 44.9733 487.834 44.9733 488.701C44.9733 489.564 44.7574 490.196 44.3256 490.595C43.8975 490.995 43.248 491.194 42.3772 491.194C41.51 491.194 40.8678 491.022 40.4504 490.676C40.0366 490.331 39.8315 489.8 39.8351 489.084H40.7958C40.7958 489.563 40.9127 489.904 41.1466 490.11C41.3841 490.315 41.7799 490.417 42.334 490.417C42.9349 490.417 43.3685 490.293 43.6348 490.045C43.9011 489.793 44.0342 489.345 44.0342 488.701C44.0342 488.057 43.9011 487.609 43.6348 487.357C43.3685 487.105 42.9349 486.979 42.334 486.979C41.6 486.979 41.1052 487.231 40.8498 487.735ZM49.0569 487.195C48.8266 487.195 48.6575 487.148 48.5496 487.055C48.4452 486.961 48.3931 486.796 48.3931 486.558C48.3931 486.321 48.4452 486.155 48.5496 486.062C48.6575 485.968 48.8266 485.921 49.0569 485.921C49.2908 485.921 49.4599 485.968 49.5643 486.062C49.6686 486.155 49.7208 486.321 49.7208 486.558C49.7208 486.796 49.6686 486.961 49.5643 487.055C49.4599 487.148 49.2908 487.195 49.0569 487.195ZM49.0569 491.189C48.8266 491.189 48.6575 491.142 48.5496 491.049C48.4452 490.955 48.3931 490.79 48.3931 490.552C48.3931 490.315 48.4452 490.149 48.5496 490.056C48.6575 489.962 48.8266 489.915 49.0569 489.915C49.2908 489.915 49.4599 489.962 49.5643 490.056C49.6686 490.149 49.7208 490.315 49.7208 490.552C49.7208 490.79 49.6686 490.955 49.5643 491.049C49.4599 491.142 49.2908 491.189 49.0569 491.189ZM56.1738 491.194C55.4506 491.194 54.8803 491.056 54.4629 490.779C54.0455 490.498 53.7468 490.057 53.5669 489.457C53.3906 488.856 53.3025 488.068 53.3025 487.092C53.3025 486.161 53.3906 485.403 53.5669 484.82C53.7468 484.237 54.0455 483.809 54.4629 483.536C54.8803 483.262 55.4506 483.125 56.1738 483.125C56.8971 483.125 57.4656 483.262 57.8794 483.536C58.2968 483.809 58.5918 484.237 58.7645 484.82C58.9373 485.403 59.0236 486.161 59.0236 487.092C59.0236 488.068 58.9373 488.856 58.7645 489.457C58.5918 490.057 58.2968 490.498 57.8794 490.779C57.4656 491.056 56.8971 491.194 56.1738 491.194ZM56.1738 490.406C56.5444 490.406 56.8503 490.358 57.0914 490.261C57.336 490.16 57.5286 489.987 57.6689 489.743C57.8128 489.498 57.9136 489.161 57.9711 488.733C58.0323 488.301 58.0629 487.755 58.0629 487.092C58.0629 486.283 58.0071 485.648 57.8956 485.187C57.7876 484.723 57.5969 484.396 57.3235 484.205C57.05 484.011 56.6668 483.913 56.1738 483.913C55.6809 483.913 55.2959 484.011 55.0188 484.205C54.7417 484.399 54.5456 484.728 54.4305 485.193C54.3189 485.653 54.2632 486.286 54.2632 487.092C54.2632 487.758 54.2938 488.307 54.3549 488.739C54.4161 489.167 54.5186 489.503 54.6626 489.748C54.8065 489.989 55.0008 490.16 55.2455 490.261C55.4938 490.358 55.8032 490.406 56.1738 490.406ZM65.617 491.194C64.8937 491.194 64.3234 491.056 63.906 490.779C63.4886 490.498 63.19 490.057 63.0101 489.457C62.8338 488.856 62.7456 488.068 62.7456 487.092C62.7456 486.161 62.8338 485.403 63.0101 484.82C63.19 484.237 63.4886 483.809 63.906 483.536C64.3234 483.262 64.8937 483.125 65.617 483.125C66.3402 483.125 66.9087 483.262 67.3225 483.536C67.7399 483.809 68.035 484.237 68.2077 484.82C68.3804 485.403 68.4668 486.161 68.4668 487.092C68.4668 488.068 68.3804 488.856 68.2077 489.457C68.035 490.057 67.7399 490.498 67.3225 490.779C66.9087 491.056 66.3402 491.194 65.617 491.194ZM65.617 490.406C65.9876 490.406 66.2934 490.358 66.5345 490.261C66.7792 490.16 66.9717 489.987 67.112 489.743C67.256 489.498 67.3567 489.161 67.4143 488.733C67.4754 488.301 67.506 487.755 67.506 487.092C67.506 486.283 67.4503 485.648 67.3387 485.187C67.2308 484.723 67.0401 484.396 66.7666 484.205C66.4931 484.011 66.1099 483.913 65.617 483.913C65.124 483.913 64.739 484.011 64.4619 484.205C64.1849 484.399 63.9888 484.728 63.8736 485.193C63.7621 485.653 63.7063 486.286 63.7063 487.092C63.7063 487.758 63.7369 488.307 63.7981 488.739C63.8592 489.167 63.9618 489.503 64.1057 489.748C64.2497 489.989 64.444 490.16 64.6886 490.261C64.9369 490.358 65.2464 490.406 65.617 490.406ZM76.7743 491.07L79.7104 483.293H80.7953L83.7692 491.07H82.8193L82.0799 489.122H78.4637L77.7296 491.07H76.7743ZM78.7173 488.361H81.8208L80.2556 484.086L78.7173 488.361ZM87.3833 491.07V483.293H88.9809L91.1938 489.203H91.3827L93.6064 483.293H95.2094V491.07H94.3674V484.129H94.1731L91.9116 490.131H90.6648L88.4195 484.129H88.2252V491.07H87.3833Z" fill="black"/>
</g>
<defs>
<filter id="filter0_f_2340_5675" x="-111.835" y="-73.737" width="476.888" height="674.617" filterUnits="userSpaceOnUse" color-interpolation-filters="sRGB">
<feFlood flood-opacity="0" result="BackgroundImageFix"/>
<feBlend mode="normal" in="SourceGraphic" in2="BackgroundImageFix" result="shape"/>
<feGaussianBlur stdDeviation="38.8607" result="effect1_foregroundBlur_2340_5675"/>
</filter>
<filter id="filter1_f_2340_5675" x="-114.12" y="-92.6159" width="629.63" height="701.347" filterUnits="userSpaceOnUse" color-interpolation-filters="sRGB">
<feFlood flood-opacity="0" result="BackgroundImageFix"/>
<feBlend mode="normal" in="SourceGraphic" in2="BackgroundImageFix" result="shape"/>
<feGaussianBlur stdDeviation="38.8607" result="effect1_foregroundBlur_2340_5675"/>
</filter>
<filter id="filter2_f_2340_5675" x="-11.4674" y="69.5404" width="259.697" height="263.191" filterUnits="userSpaceOnUse" color-interpolation-filters="sRGB">
<feFlood flood-opacity="0" result="BackgroundImageFix"/>
<feBlend mode="normal" in="SourceGraphic" in2="BackgroundImageFix" result="shape"/>
<feGaussianBlur stdDeviation="38.8607" result="effect1_foregroundBlur_2340_5675"/>
</filter>
<filter id="filter3_f_2340_5675" x="83.4232" y="161.962" width="355.197" height="422.415" filterUnits="userSpaceOnUse" color-interpolation-filters="sRGB">
<feFlood flood-opacity="0" result="BackgroundImageFix"/>
<feBlend mode="normal" in="SourceGraphic" in2="BackgroundImageFix" result="shape"/>
<feGaussianBlur stdDeviation="38.8607" result="effect1_foregroundBlur_2340_5675"/>
</filter>
<filter id="filter4_f_2340_5675" x="211.326" y="-72.3776" width="229.353" height="239.652" filterUnits="userSpaceOnUse" color-interpolation-filters="sRGB">
<feFlood flood-opacity="0" result="BackgroundImageFix"/>
<feBlend mode="normal" in="SourceGraphic" in2="BackgroundImageFix" result="shape"/>
<feGaussianBlur stdDeviation="38.8607" result="effect1_foregroundBlur_2340_5675"/>
</filter>
<filter id="filter5_f_2340_5675" x="-19.2565" y="-17.7038" width="455.404" height="450.827" filterUnits="userSpaceOnUse" color-interpolation-filters="sRGB">
<feFlood flood-opacity="0" result="BackgroundImageFix"/>
<feBlend mode="normal" in="SourceGraphic" in2="BackgroundImageFix" result="shape"/>
<feGaussianBlur stdDeviation="38.8607" result="effect1_foregroundBlur_2340_5675"/>
</filter>
<filter id="filter6_f_2340_5675" x="11.1804" y="3.53196" width="8.80326" height="17.4693" filterUnits="userSpaceOnUse" color-interpolation-filters="sRGB">
<feFlood flood-opacity="0" result="BackgroundImageFix"/>
<feBlend mode="normal" in="SourceGraphic" in2="BackgroundImageFix" result="shape"/>
<feGaussianBlur stdDeviation="0.130502" result="effect1_foregroundBlur_2340_5675"/>
</filter>
<filter id="filter7_f_2340_5675" x="11.532" y="3.9265" width="8.15091" height="16.9458" filterUnits="userSpaceOnUse" color-interpolation-filters="sRGB">
<feFlood flood-opacity="0" result="BackgroundImageFix"/>
<feBlend mode="normal" in="SourceGraphic" in2="BackgroundImageFix" result="shape"/>
<feGaussianBlur stdDeviation="0.130502" result="effect1_foregroundBlur_2340_5675"/>
</filter>
<filter id="filter8_f_2340_5675" x="42.0867" y="4.57493" width="8.93998" height="15.8638" filterUnits="userSpaceOnUse" color-interpolation-filters="sRGB">
<feFlood flood-opacity="0" result="BackgroundImageFix"/>
<feBlend mode="normal" in="SourceGraphic" in2="BackgroundImageFix" result="shape"/>
<feGaussianBlur stdDeviation="0.130502" result="effect1_foregroundBlur_2340_5675"/>
</filter>
<filter id="filter9_f_2340_5675" x="42.4109" y="4.7429" width="8.31888" height="15.4341" filterUnits="userSpaceOnUse" color-interpolation-filters="sRGB">
<feFlood flood-opacity="0" result="BackgroundImageFix"/>
<feBlend mode="normal" in="SourceGraphic" in2="BackgroundImageFix" result="shape"/>
<feGaussianBlur stdDeviation="0.130502" result="effect1_foregroundBlur_2340_5675"/>
</filter>
<filter id="filter10_f_2340_5675" x="21.0867" y="3.71946" width="9.5142" height="15.7915" filterUnits="userSpaceOnUse" color-interpolation-filters="sRGB">
<feFlood flood-opacity="0" result="BackgroundImageFix"/>
<feBlend mode="normal" in="SourceGraphic" in2="BackgroundImageFix" result="shape"/>
<feGaussianBlur stdDeviation="0.130502" result="effect1_foregroundBlur_2340_5675"/>
</filter>
<filter id="filter11_f_2340_5675" x="21.4109" y="4.04564" width="9.13138" height="15.1411" filterUnits="userSpaceOnUse" color-interpolation-filters="sRGB">
<feFlood flood-opacity="0" result="BackgroundImageFix"/>
<feBlend mode="normal" in="SourceGraphic" in2="BackgroundImageFix" result="shape"/>
<feGaussianBlur stdDeviation="0.130502" result="effect1_foregroundBlur_2340_5675"/>
</filter>
<filter id="filter12_f_2340_5675" x="32.0515" y="4.46946" width="8.83451" height="14.6548" filterUnits="userSpaceOnUse" color-interpolation-filters="sRGB">
<feFlood flood-opacity="0" result="BackgroundImageFix"/>
<feBlend mode="normal" in="SourceGraphic" in2="BackgroundImageFix" result="shape"/>
<feGaussianBlur stdDeviation="0.130502" result="effect1_foregroundBlur_2340_5675"/>
</filter>
<filter id="filter13_f_2340_5675" x="32.3757" y="4.79759" width="8.50248" height="14.0025" filterUnits="userSpaceOnUse" color-interpolation-filters="sRGB">
<feFlood flood-opacity="0" result="BackgroundImageFix"/>
<feBlend mode="normal" in="SourceGraphic" in2="BackgroundImageFix" result="shape"/>
<feGaussianBlur stdDeviation="0.130502" result="effect1_foregroundBlur_2340_5675"/>
</filter>
<filter id="filter14_f_2340_5675" x="52.1101" y="4.31126" width="8.69388" height="15.8892" filterUnits="userSpaceOnUse" color-interpolation-filters="sRGB">
<feFlood flood-opacity="0" result="BackgroundImageFix"/>
<feBlend mode="normal" in="SourceGraphic" in2="BackgroundImageFix" result="shape"/>
<feGaussianBlur stdDeviation="0.130502" result="effect1_foregroundBlur_2340_5675"/>
</filter>
<filter id="filter15_f_2340_5675" x="52.4382" y="4.63939" width="8.03763" height="15.2329" filterUnits="userSpaceOnUse" color-interpolation-filters="sRGB">
<feFlood flood-opacity="0" result="BackgroundImageFix"/>
<feBlend mode="normal" in="SourceGraphic" in2="BackgroundImageFix" result="shape"/>
<feGaussianBlur stdDeviation="0.130502" result="effect1_foregroundBlur_2340_5675"/>
</filter>
<filter id="filter16_f_2340_5675" x="63.1452" y="5.28978" width="8.84232" height="14.5376" filterUnits="userSpaceOnUse" color-interpolation-filters="sRGB">
<feFlood flood-opacity="0" result="BackgroundImageFix"/>
<feBlend mode="normal" in="SourceGraphic" in2="BackgroundImageFix" result="shape"/>
<feGaussianBlur stdDeviation="0.130502" result="effect1_foregroundBlur_2340_5675"/>
</filter>
<filter id="filter17_f_2340_5675" x="7.25853" y="3.66673" width="2.10795" height="17.1607" filterUnits="userSpaceOnUse" color-interpolation-filters="sRGB">
<feFlood flood-opacity="0" result="BackgroundImageFix"/>
<feBlend mode="normal" in="SourceGraphic" in2="BackgroundImageFix" result="shape"/>
<feGaussianBlur stdDeviation="0.130502" result="effect1_foregroundBlur_2340_5675"/>
</filter>
<filter id="filter18_f_2340_5675" x="7.64915" y="3.79759" width="1.3306" height="16.8326" filterUnits="userSpaceOnUse" color-interpolation-filters="sRGB">
<feFlood flood-opacity="0" result="BackgroundImageFix"/>
<feBlend mode="normal" in="SourceGraphic" in2="BackgroundImageFix" result="shape"/>
<feGaussianBlur stdDeviation="0.130502" result="effect1_foregroundBlur_2340_5675"/>
</filter>
<filter id="filter19_f_2340_5675" x="61.0437" y="4.87962" width="1.88529" height="15.0728" filterUnits="userSpaceOnUse" color-interpolation-filters="sRGB">
<feFlood flood-opacity="0" result="BackgroundImageFix"/>
<feBlend mode="normal" in="SourceGraphic" in2="BackgroundImageFix" result="shape"/>
<feGaussianBlur stdDeviation="0.130502" result="effect1_foregroundBlur_2340_5675"/>
</filter>
<filter id="filter20_f_2340_5675" x="61.3679" y="5.27025" width="1.16654" height="14.2876" filterUnits="userSpaceOnUse" color-interpolation-filters="sRGB">
<feFlood flood-opacity="0" result="BackgroundImageFix"/>
<feBlend mode="normal" in="SourceGraphic" in2="BackgroundImageFix" result="shape"/>
<feGaussianBlur stdDeviation="0.130502" result="effect1_foregroundBlur_2340_5675"/>
</filter>
<filter id="filter21_f_2340_5675" x="63.4617" y="5.54954" width="8.2056" height="14.2017" filterUnits="userSpaceOnUse" color-interpolation-filters="sRGB">
<feFlood flood-opacity="0" result="BackgroundImageFix"/>
<feBlend mode="normal" in="SourceGraphic" in2="BackgroundImageFix" result="shape"/>
<feGaussianBlur stdDeviation="0.130502" result="effect1_foregroundBlur_2340_5675"/>
</filter>
<clipPath id="clip0_2340_5675">
<rect width="357" height="510.025" fill="white"/>
</clipPath>
</defs>
</svg>
