<svg width="357" height="511" viewBox="0 0 357 511" fill="none" xmlns="http://www.w3.org/2000/svg">
<g clip-path="url(#clip0_2340_5706)">
<rect width="357" height="510.025" fill="white"/>
<g filter="url(#filter0_f_2340_5706)">
<path d="M142.903 496.673L82.9286 230.078L-15.7582 168.225L-29.1004 -20.1694L292.345 -22.5004L182.422 229.875L142.903 496.673Z" fill="#97A5FF"/>
</g>
<g filter="url(#filter1_f_2340_5706)">
<path d="M284.841 531.011L214.207 277.164L125.173 -0.659111L437.785 -10.448L321.996 259.196L355.832 428.85L284.841 531.011Z" fill="#F3B6B7"/>
</g>
<g filter="url(#filter2_f_2340_5706)">
<path d="M118.165 255.013L66.2531 147.265L170.507 147.473L118.165 255.013Z" fill="#E28AF3"/>
</g>
<g filter="url(#filter3_f_2340_5706)">
<path d="M325.836 89.5534L289.048 5.34458L362.959 5.49227L325.836 89.5534Z" fill="#E28AF3"/>
</g>
<g filter="url(#filter4_f_2340_5706)">
<path d="M267.879 266.067L58.4636 60.0195L349.919 76.2977L267.879 266.067Z" fill="#E28AF3"/>
</g>
<path d="M21.561 319.027V316.566C18.9012 316.497 16.8373 315.84 15.3692 314.597C13.9184 313.336 13.193 311.6 13.193 309.389C13.193 307.109 13.9184 305.339 15.3692 304.078C16.82 302.8 18.8839 302.127 21.561 302.058V299.83H25.2139V302.058C27.9082 302.127 29.9894 302.792 31.4575 304.052C32.9256 305.313 33.6596 307.075 33.6596 309.338C33.6596 311.583 32.9256 313.336 31.4575 314.597C29.9894 315.857 27.9169 316.505 25.2398 316.54L25.2139 319.027H21.561ZM25.2398 313.483C28.2796 313.379 29.7994 311.989 29.7994 309.312C29.7994 306.652 28.2796 305.244 25.2398 305.089V313.483ZM21.561 313.509V305.115C18.5558 305.236 17.0531 306.652 17.0531 309.363C17.0531 312.006 18.5558 313.388 21.561 313.509ZM42.5028 318.664V300.166H53.3838V303.405H46.4666V307.446H52.9434V310.685H46.4666V315.374H53.3838V318.664H42.5028ZM70.1599 318.923C67.3101 318.923 65.1253 318.094 63.6054 316.436C62.1028 314.761 61.3515 312.438 61.3515 309.467C61.3515 307.481 61.7055 305.771 62.4137 304.337C63.1391 302.904 64.1753 301.807 65.5225 301.047C66.8697 300.287 68.4932 299.907 70.3931 299.907C71.343 299.907 72.267 300.011 73.1651 300.218C74.0805 300.408 74.97 300.71 75.8335 301.125L74.4087 304.208C73.7005 303.862 73.0183 303.612 72.362 303.457C71.723 303.284 71.1098 303.198 70.5226 303.198C68.8991 303.198 67.6555 303.742 66.792 304.83C65.9284 305.9 65.4966 307.455 65.4966 309.493C65.4966 313.569 67.2583 315.607 70.7817 315.607C71.4552 315.607 72.1461 315.529 72.8542 315.374C73.5796 315.201 74.3396 314.951 75.1341 314.623V317.965C73.666 318.604 72.0079 318.923 70.1599 318.923ZM91.3398 318.664H87.376V303.457H82.3759V300.166H96.3398V303.457H91.3398V318.664ZM104.349 318.664V300.166H108.261V309.156C108.261 309.726 108.252 310.357 108.235 311.047C108.218 311.721 108.192 312.334 108.157 312.887C108.14 313.422 108.123 313.776 108.106 313.949H108.183L115.204 300.166H120.075V318.664H116.163V310.115C116.163 309.648 116.171 309.139 116.189 308.586C116.206 308.016 116.223 307.472 116.24 306.954C116.275 306.436 116.301 305.987 116.318 305.607C116.335 305.21 116.353 304.951 116.37 304.83H116.266L109.22 318.664H104.349ZM129.894 318.664V300.166H135.93C138.452 300.166 140.291 300.546 141.448 301.306C142.623 302.049 143.21 303.206 143.21 304.778C143.21 305.935 142.899 306.859 142.277 307.55C141.656 308.223 140.913 308.655 140.049 308.845V308.975C140.671 309.096 141.25 309.312 141.785 309.622C142.338 309.933 142.787 310.382 143.132 310.97C143.495 311.557 143.676 312.334 143.676 313.301C143.676 314.994 143.063 316.315 141.837 317.265C140.628 318.198 138.97 318.664 136.863 318.664H129.894ZM133.806 307.576H136.137C137.208 307.576 137.977 307.386 138.443 307.006C138.909 306.609 139.143 306.047 139.143 305.322C139.143 304.614 138.884 304.096 138.365 303.767C137.847 303.422 137.036 303.249 135.93 303.249H133.806V307.576ZM133.806 315.529H136.422C137.528 315.529 138.322 315.305 138.806 314.856C139.307 314.407 139.557 313.785 139.557 312.99C139.557 312.213 139.298 311.617 138.78 311.203C138.279 310.771 137.45 310.555 136.293 310.555H133.806V315.529ZM163.68 318.664L162.255 314.312H155.726L154.301 318.664H150.026L156.529 300.089H161.4L167.954 318.664H163.68ZM160.053 306.98C159.983 306.721 159.871 306.332 159.716 305.814C159.578 305.296 159.439 304.769 159.301 304.234C159.163 303.681 159.051 303.232 158.964 302.887C158.895 303.284 158.792 303.742 158.654 304.26C158.533 304.761 158.412 305.261 158.291 305.762C158.17 306.246 158.066 306.652 157.98 306.98L156.659 310.996H161.348L160.053 306.98ZM175.451 318.949C175.037 318.949 174.639 318.914 174.26 318.845C173.897 318.794 173.551 318.725 173.223 318.638V315.348C173.465 315.4 173.672 315.443 173.845 315.477C174.035 315.495 174.234 315.503 174.441 315.503C175.166 315.503 175.693 315.27 176.021 314.804C176.367 314.32 176.583 313.509 176.669 312.369C176.738 311.419 176.807 310.4 176.876 309.312C176.963 308.223 177.04 306.954 177.109 305.503C177.196 304.035 177.282 302.256 177.368 300.166H189.959V318.664H185.97V303.457H180.866C180.779 305.46 180.693 307.239 180.607 308.793C180.52 310.348 180.408 311.799 180.27 313.146C180.063 315.149 179.579 316.617 178.819 317.55C178.077 318.483 176.954 318.949 175.451 318.949ZM199.659 318.664V300.218H203.571V306.643H205.695C208.061 306.643 209.849 307.153 211.058 308.172C212.267 309.191 212.871 310.685 212.871 312.654C212.871 314.64 212.267 316.142 211.058 317.161C209.849 318.163 208.07 318.664 205.721 318.664H199.659ZM203.571 315.426H205.436C207.716 315.426 208.856 314.484 208.856 312.602C208.856 310.788 207.699 309.882 205.384 309.882H203.571V315.426ZM21.8978 351.923C19.048 351.923 16.8632 351.094 15.3433 349.436C13.8407 347.761 13.0894 345.438 13.0894 342.467C13.0894 340.481 13.4434 338.771 14.1515 337.337C14.8769 335.904 15.9132 334.807 17.2604 334.047C18.6076 333.287 20.2311 332.907 22.1309 332.907C23.0809 332.907 24.0049 333.011 24.903 333.218C25.8184 333.408 26.7079 333.71 27.5714 334.125L26.1465 337.208C25.4384 336.862 24.7562 336.612 24.0999 336.457C23.4608 336.284 22.8477 336.198 22.2605 336.198C20.637 336.198 19.3934 336.742 18.5299 337.83C17.6663 338.9 17.2345 340.455 17.2345 342.493C17.2345 346.569 18.9962 348.607 22.5195 348.607C23.1931 348.607 23.884 348.529 24.5921 348.374C25.3175 348.201 26.0775 347.951 26.8719 347.623V350.965C25.4039 351.604 23.7458 351.923 21.8978 351.923ZM35.8237 351.664V333.166H41.86C44.3816 333.166 46.221 333.546 47.3782 334.306C48.5527 335.049 49.1399 336.206 49.1399 337.778C49.1399 338.935 48.829 339.859 48.2073 340.55C47.5855 341.223 46.8428 341.655 45.9792 341.845V341.975C46.601 342.096 47.1796 342.312 47.715 342.622C48.2677 342.933 48.7168 343.382 49.0622 343.97C49.4249 344.557 49.6062 345.334 49.6062 346.301C49.6062 347.994 48.9931 349.315 47.7668 350.265C46.5578 351.198 44.8998 351.664 42.7927 351.664H35.8237ZM39.7356 340.576H42.0673C43.1381 340.576 43.9067 340.386 44.373 340.006C44.8393 339.609 45.0725 339.047 45.0725 338.322C45.0725 337.614 44.8134 337.096 44.2953 336.767C43.7771 336.422 42.9654 336.249 41.86 336.249H39.7356V340.576ZM39.7356 348.529H42.3522C43.4576 348.529 44.2521 348.305 44.7357 347.856C45.2366 347.407 45.487 346.785 45.487 345.99C45.487 345.213 45.2279 344.617 44.7098 344.203C44.2089 343.771 43.3799 343.555 42.2227 343.555H39.7356V348.529ZM58.1584 351.664V333.166H69.0394V336.405H62.1222V340.446H68.599V343.685H62.1222V348.374H69.0394V351.664H58.1584ZM85.116 351.664H81.1522V336.457H76.1521V333.166H90.1161V336.457H85.116V351.664ZM97.4415 351.949C97.027 351.949 96.6297 351.914 96.2498 351.845C95.8871 351.794 95.5416 351.725 95.2135 351.638V348.348C95.4553 348.4 95.6625 348.443 95.8353 348.477C96.0252 348.495 96.2239 348.503 96.4311 348.503C97.1565 348.503 97.6833 348.27 98.0115 347.804C98.3569 347.32 98.5728 346.509 98.6591 345.369C98.7282 344.419 98.7973 343.4 98.8664 342.312C98.9527 341.223 99.0305 339.954 99.0996 338.503C99.1859 337.035 99.2723 335.256 99.3586 333.166H111.949V351.664H107.96V336.457H102.856C102.77 338.46 102.683 340.239 102.597 341.793C102.511 343.348 102.398 344.799 102.26 346.146C102.053 348.149 101.569 349.617 100.809 350.55C100.067 351.483 98.9441 351.949 97.4415 351.949ZM119.836 351.664L124.939 343.866C124.421 343.676 123.886 343.382 123.333 342.985C122.798 342.588 122.34 342.044 121.96 341.353C121.597 340.645 121.416 339.747 121.416 338.659C121.416 336.862 122.029 335.498 123.255 334.565C124.499 333.633 126.235 333.166 128.463 333.166H134.629V351.664H130.717V344.825H128.592L124.214 351.664H119.836ZM128.644 341.612H130.717V336.379H128.592C127.521 336.379 126.718 336.586 126.183 337.001C125.665 337.398 125.406 338.028 125.406 338.892C125.406 339.842 125.682 340.533 126.235 340.964C126.805 341.396 127.608 341.612 128.644 341.612ZM154.516 351.664V344.514C153.135 344.997 151.719 345.239 150.268 345.239C148.195 345.239 146.623 344.764 145.553 343.814C144.482 342.847 143.946 341.422 143.946 339.54V333.166H147.858V338.84C147.858 339.98 148.117 340.792 148.636 341.275C149.171 341.759 150.009 342.001 151.149 342.001C152.202 342.001 153.325 341.785 154.516 341.353V333.166H158.428V351.664H154.516ZM168.267 351.664V333.166H172.153V340.42H174.07L178.966 333.166H183.111L177.179 341.871L183.759 351.664H179.225L173.966 343.685H172.153V351.664H168.267ZM198.651 351.923C195.888 351.923 193.738 351.085 192.2 349.41C190.681 347.735 189.921 345.386 189.921 342.363C189.921 339.358 190.681 337.027 192.2 335.368C193.738 333.71 195.905 332.881 198.703 332.881C201.467 332.881 203.6 333.71 205.102 335.368C206.605 337.009 207.356 339.35 207.356 342.389C207.356 345.412 206.596 347.761 205.076 349.436C203.556 351.094 201.415 351.923 198.651 351.923ZM198.651 348.633C200.154 348.633 201.294 348.106 202.071 347.053C202.848 345.982 203.237 344.427 203.237 342.389C203.237 340.351 202.857 338.805 202.097 337.752C201.337 336.698 200.214 336.172 198.729 336.172C197.226 336.172 196.069 336.698 195.257 337.752C194.446 338.805 194.04 340.351 194.04 342.389C194.04 344.41 194.437 345.956 195.232 347.027C196.026 348.098 197.166 348.633 198.651 348.633ZM216.096 351.664V333.166H222.132C224.654 333.166 226.493 333.546 227.65 334.306C228.825 335.049 229.412 336.206 229.412 337.778C229.412 338.935 229.101 339.859 228.479 340.55C227.857 341.223 227.115 341.655 226.251 341.845V341.975C226.873 342.096 227.452 342.312 227.987 342.622C228.54 342.933 228.989 343.382 229.334 343.97C229.697 344.557 229.878 345.334 229.878 346.301C229.878 347.994 229.265 349.315 228.039 350.265C226.83 351.198 225.172 351.664 223.065 351.664H216.096ZM220.008 340.576H222.339C223.41 340.576 224.179 340.386 224.645 340.006C225.111 339.609 225.344 339.047 225.344 338.322C225.344 337.614 225.085 337.096 224.567 336.767C224.049 336.422 223.237 336.249 222.132 336.249H220.008V340.576ZM220.008 348.529H222.624C223.73 348.529 224.524 348.305 225.008 347.856C225.509 347.407 225.759 346.785 225.759 345.99C225.759 345.213 225.5 344.617 224.982 344.203C224.481 343.771 223.652 343.555 222.495 343.555H220.008V348.529Z" fill="black"/>
<path d="M23.3161 203.619V191.287H33.3681V203.619H30.7601V193.464H25.9241V203.619H23.3161ZM39.9091 203.809C39.6328 203.809 39.3679 203.786 39.1146 203.74C38.8728 203.705 38.6425 203.659 38.4238 203.602V201.408C38.585 201.443 38.7231 201.472 38.8383 201.495C38.9649 201.506 39.0974 201.512 39.2355 201.512C39.7191 201.512 40.0703 201.357 40.2891 201.046C40.5194 200.723 40.6633 200.182 40.7209 199.422C40.7669 198.789 40.813 198.11 40.859 197.384C40.9166 196.659 40.9684 195.812 41.0145 194.845C41.0721 193.867 41.1296 192.681 41.1872 191.287H49.5811V203.619H46.9213V193.481H43.5188C43.4613 194.816 43.4037 196.002 43.3461 197.039C43.2886 198.075 43.2137 199.042 43.1216 199.94C42.9834 201.276 42.661 202.255 42.1544 202.876C41.6593 203.498 40.9109 203.809 39.9091 203.809ZM63.5951 203.619L62.6452 200.718H58.2928L57.3428 203.619H54.4931L58.8282 191.236H62.0752L66.4449 203.619H63.5951ZM61.1771 195.83C61.131 195.657 61.0562 195.398 60.9526 195.053C60.8605 194.707 60.7683 194.356 60.6762 193.999C60.5841 193.631 60.5093 193.331 60.4517 193.101C60.4056 193.366 60.3366 193.671 60.2444 194.016C60.1638 194.35 60.0832 194.684 60.0026 195.018C59.922 195.34 59.853 195.611 59.7954 195.83L58.9145 198.507H62.0407L61.1771 195.83ZM71.3738 203.619V191.287H75.3981C77.0792 191.287 78.3054 191.541 79.0769 192.047C79.8599 192.542 80.2513 193.314 80.2513 194.362C80.2513 195.133 80.0441 195.749 79.6296 196.21C79.2151 196.659 78.7199 196.947 78.1442 197.073V197.16C78.5587 197.24 78.9445 197.384 79.3014 197.591C79.6699 197.799 79.9692 198.098 80.1995 198.49C80.4413 198.881 80.5622 199.399 80.5622 200.044C80.5622 201.172 80.1535 202.053 79.336 202.686C78.53 203.308 77.4246 203.619 76.0198 203.619H71.3738ZM73.9818 196.227H75.5362C76.2501 196.227 76.7625 196.1 77.0734 195.847C77.3843 195.582 77.5397 195.208 77.5397 194.724C77.5397 194.252 77.367 193.907 77.0216 193.688C76.6762 193.458 76.135 193.343 75.3981 193.343H73.9818V196.227ZM73.9818 201.529H75.7262C76.4631 201.529 76.9928 201.38 77.3152 201.08C77.6491 200.781 77.8161 200.366 77.8161 199.837C77.8161 199.319 77.6434 198.921 77.2979 198.645C76.964 198.357 76.4113 198.213 75.6399 198.213H73.9818V201.529ZM86.35 203.619V191.287H88.958V197.281C88.958 197.661 88.9523 198.081 88.9408 198.541C88.9292 198.99 88.912 199.399 88.8889 199.768C88.8774 200.125 88.8659 200.361 88.8544 200.476H88.9062L93.5868 191.287H96.8338V203.619H94.2258V197.92C94.2258 197.609 94.2316 197.269 94.2431 196.901C94.2546 196.521 94.2661 196.158 94.2776 195.812C94.3006 195.467 94.3179 195.168 94.3294 194.914C94.3409 194.65 94.3525 194.477 94.364 194.396H94.2949L89.5971 203.619H86.35ZM108.216 203.619H105.573V193.481H102.24V191.287H111.549V193.481H108.216V203.619Z" fill="black"/>
<path d="M122.456 203.619V191.287H126.481C128.162 191.287 129.388 191.541 130.159 192.047C130.942 192.542 131.334 193.314 131.334 194.362C131.334 195.133 131.127 195.749 130.712 196.21C130.298 196.659 129.802 196.947 129.227 197.073V197.16C129.641 197.24 130.027 197.384 130.384 197.591C130.752 197.799 131.052 198.098 131.282 198.49C131.524 198.881 131.645 199.399 131.645 200.044C131.645 201.172 131.236 202.053 130.418 202.686C129.612 203.308 128.507 203.619 127.102 203.619H122.456ZM125.064 196.227H126.619C127.333 196.227 127.845 196.1 128.156 195.847C128.467 195.582 128.622 195.208 128.622 194.724C128.622 194.252 128.45 193.907 128.104 193.688C127.759 193.458 127.218 193.343 126.481 193.343H125.064V196.227ZM125.064 201.529H126.809C127.546 201.529 128.075 201.38 128.398 201.08C128.732 200.781 128.899 200.366 128.899 199.837C128.899 199.319 128.726 198.921 128.38 198.645C128.047 198.357 127.494 198.213 126.722 198.213H125.064V201.529ZM143.973 203.619V191.287H151.59V193.446H146.581V203.619H143.973ZM161.987 203.792C160.144 203.792 158.711 203.233 157.686 202.117C156.673 201 156.166 199.434 156.166 197.419C156.166 195.415 156.673 193.861 157.686 192.755C158.711 191.65 160.156 191.097 162.021 191.097C163.863 191.097 165.285 191.65 166.287 192.755C167.289 193.849 167.79 195.409 167.79 197.436C167.79 199.451 167.283 201.017 166.27 202.134C165.257 203.239 163.829 203.792 161.987 203.792ZM161.987 201.598C162.988 201.598 163.748 201.247 164.266 200.545C164.785 199.831 165.044 198.795 165.044 197.436C165.044 196.077 164.79 195.047 164.284 194.344C163.777 193.642 163.029 193.291 162.038 193.291C161.037 193.291 160.265 193.642 159.724 194.344C159.183 195.047 158.912 196.077 158.912 197.436C158.912 198.783 159.177 199.814 159.707 200.528C160.236 201.241 160.996 201.598 161.987 201.598ZM173.616 203.619V191.287H177.485C179.062 191.287 180.231 191.621 180.991 192.289C181.762 192.945 182.148 193.907 182.148 195.173C182.148 196.405 181.762 197.407 180.991 198.179C180.22 198.939 179.016 199.319 177.381 199.319H176.259V203.619H173.616ZM176.259 197.142H177.157C177.928 197.142 178.51 196.993 178.901 196.693C179.293 196.382 179.488 195.899 179.488 195.243C179.488 194.045 178.752 193.446 177.278 193.446H176.259V197.142ZM193.082 203.792C191.24 203.792 189.806 203.233 188.781 202.117C187.768 201 187.261 199.434 187.261 197.419C187.261 195.415 187.768 193.861 188.781 192.755C189.806 191.65 191.251 191.097 193.116 191.097C194.959 191.097 196.381 191.65 197.382 192.755C198.384 193.849 198.885 195.409 198.885 197.436C198.885 199.451 198.378 201.017 197.365 202.134C196.352 203.239 194.924 203.792 193.082 203.792ZM193.082 201.598C194.084 201.598 194.844 201.247 195.362 200.545C195.88 199.831 196.139 198.795 196.139 197.436C196.139 196.077 195.886 195.047 195.379 194.344C194.872 193.642 194.124 193.291 193.134 193.291C192.132 193.291 191.36 193.642 190.819 194.344C190.278 195.047 190.008 196.077 190.008 197.436C190.008 198.783 190.272 199.814 190.802 200.528C191.332 201.241 192.092 201.598 193.082 201.598ZM203.247 206.175V201.443H204.543C204.877 201.074 205.142 200.706 205.337 200.338C205.533 199.958 205.683 199.526 205.786 199.042C205.89 198.547 205.971 197.943 206.028 197.229C206.086 196.595 206.137 195.755 206.184 194.707C206.23 193.648 206.27 192.508 206.304 191.287H214.647V201.443H216.305V206.175H213.783V203.619H205.769V206.175H203.247ZM207.289 201.443H212.039V193.464H208.619C208.596 194.166 208.567 194.857 208.532 195.536C208.509 196.204 208.469 196.808 208.412 197.35C208.319 198.351 208.181 199.175 207.997 199.819C207.824 200.464 207.588 201.005 207.289 201.443ZM221.406 203.619V191.287H228.66V193.446H224.049V196.141H228.366V198.3H224.049V201.426H228.66V203.619H221.406Z" fill="black"/>
<path d="M245.52 204.402C243.678 204.376 242.252 203.798 241.243 202.667C240.246 201.536 239.761 199.963 239.789 197.948C239.817 195.945 240.346 194.397 241.375 193.306C242.415 192.215 243.867 191.683 245.733 191.709C247.575 191.735 248.989 192.308 249.975 193.427C250.961 194.535 251.44 196.102 251.412 198.128C251.383 200.143 250.855 201.702 249.826 202.804C248.797 203.895 247.362 204.428 245.52 204.402ZM245.551 202.209C246.552 202.223 247.317 201.882 247.845 201.187C248.373 200.481 248.647 199.448 248.666 198.09C248.685 196.731 248.446 195.697 247.949 194.988C247.453 194.278 246.709 193.917 245.719 193.903C244.717 193.889 243.941 194.229 243.39 194.924C242.839 195.618 242.554 196.645 242.535 198.004C242.516 199.351 242.766 200.385 243.286 201.106C243.806 201.827 244.56 202.195 245.551 202.209ZM257.237 204.394L257.41 192.063L265.026 192.17L264.996 194.329L259.988 194.259L259.845 204.431L257.237 204.394ZM270.422 204.579L270.595 192.248L273.203 192.285L273.135 197.121L278.109 197.19L278.177 192.355L280.784 192.392L280.611 204.722L278.003 204.686L278.078 199.366L273.104 199.297L273.03 204.616L270.422 204.579ZM287.079 204.813L287.252 192.482L294.506 192.584L294.475 194.743L289.864 194.678L289.826 197.372L294.144 197.433L294.114 199.592L289.796 199.531L289.752 202.657L294.363 202.722L294.332 204.915L287.079 204.813ZM300.3 204.999L300.473 192.668L303.081 192.705L302.997 198.697C302.991 199.077 302.98 199.497 302.962 199.958C302.944 200.407 302.921 200.815 302.893 201.183C302.876 201.54 302.861 201.776 302.848 201.891L302.9 201.891L307.709 192.77L310.956 192.815L310.783 205.146L308.175 205.109L308.255 199.41C308.259 199.099 308.27 198.76 308.287 198.392C308.303 198.012 308.32 197.649 308.336 197.304C308.364 196.959 308.386 196.66 308.401 196.407C308.416 196.142 308.43 195.97 308.443 195.889L308.373 195.888L303.547 205.044L300.3 204.999ZM305.738 191.706C304.713 191.691 303.91 191.455 303.329 190.998C302.76 190.541 302.424 189.834 302.323 188.877L304.533 188.908C304.648 189.773 305.056 190.211 305.758 190.22C306.472 190.23 306.893 189.805 307.02 188.943L309.231 188.974C309.102 189.928 308.741 190.625 308.148 191.066C307.566 191.507 306.762 191.72 305.738 191.706Z" fill="black"/>
<path d="M218.254 68.2247H217.294C217.294 67.505 217.493 66.9743 217.893 66.6325C218.292 66.287 218.909 66.1143 219.744 66.1143C220.608 66.1143 221.235 66.2744 221.628 66.5947C222.023 66.9149 222.221 67.4349 222.221 68.1545C222.221 68.4244 222.191 68.6708 222.13 68.8939C222.068 69.1134 221.961 69.3275 221.806 69.5362C221.651 69.7449 221.439 69.9662 221.169 70.2001C220.903 70.434 220.561 70.702 220.143 71.0043C219.514 71.4505 219.059 71.8409 218.778 72.1755C218.501 72.5101 218.362 72.8592 218.362 73.2226H222.124V74.043H217.342V73.8595C217.342 73.4924 217.373 73.1686 217.434 72.8879C217.495 72.6037 217.601 72.3392 217.752 72.0945C217.904 71.8499 218.112 71.6016 218.378 71.3497C218.648 71.0978 218.988 70.8208 219.399 70.5185C219.902 70.1443 220.289 69.8313 220.559 69.5794C220.832 69.3239 221.021 69.0864 221.126 68.8669C221.23 68.6439 221.282 68.3956 221.282 68.1221C221.282 67.6939 221.162 67.3827 220.921 67.1884C220.68 66.9905 220.275 66.8915 219.706 66.8915C219.184 66.8915 218.812 66.9941 218.589 67.1992C218.366 67.4007 218.254 67.7425 218.254 68.2247ZM226.856 70.7074L226.003 70.4268L226.3 66.2708H230.671V67.0912H227.185L226.98 69.7413C227.192 69.5326 227.415 69.3869 227.649 69.3041C227.886 69.2178 228.19 69.1746 228.561 69.1746C229.367 69.1746 229.972 69.3743 230.375 69.7737C230.778 70.1731 230.979 70.8064 230.979 71.6735C230.979 72.5371 230.763 73.1686 230.331 73.568C229.903 73.9674 229.254 74.1671 228.383 74.1671C227.516 74.1671 226.874 73.9944 226.456 73.649C226.042 73.3035 225.837 72.7728 225.841 72.0568H226.802C226.802 72.5353 226.918 72.8771 227.152 73.0822C227.39 73.2873 227.786 73.3899 228.34 73.3899C228.941 73.3899 229.374 73.2658 229.641 73.0175C229.907 72.7656 230.04 72.3176 230.04 71.6735C230.04 71.0295 229.907 70.5815 229.641 70.3296C229.374 70.0777 228.941 69.9518 228.34 69.9518C227.606 69.9518 227.111 70.2037 226.856 70.7074ZM234.625 70.9233V70.0921H237.643V70.9233H234.625ZM244.241 74.1671C243.518 74.1671 242.948 74.0286 242.53 73.7515C242.113 73.4709 241.814 73.0301 241.634 72.4292C241.458 71.8283 241.37 71.0403 241.37 70.0651C241.37 69.1332 241.458 68.3758 241.634 67.7929C241.814 67.21 242.113 66.7818 242.53 66.5083C242.948 66.2349 243.518 66.0981 244.241 66.0981C244.965 66.0981 245.533 66.2349 245.947 66.5083C246.364 66.7818 246.659 67.21 246.832 67.7929C247.005 68.3758 247.091 69.1332 247.091 70.0651C247.091 71.0403 247.005 71.8283 246.832 72.4292C246.659 73.0301 246.364 73.4709 245.947 73.7515C245.533 74.0286 244.965 74.1671 244.241 74.1671ZM244.241 73.3791C244.612 73.3791 244.918 73.3305 245.159 73.2334C245.404 73.1326 245.596 72.9599 245.736 72.7152C245.88 72.4706 245.981 72.1341 246.039 71.7059C246.1 71.2741 246.13 70.7272 246.13 70.0651C246.13 69.2555 246.075 68.6205 245.963 68.1599C245.855 67.6957 245.664 67.3683 245.391 67.1776C245.118 66.9833 244.734 66.8861 244.241 66.8861C243.748 66.8861 243.363 66.9833 243.086 67.1776C242.809 67.3719 242.613 67.7011 242.498 68.1653C242.386 68.6259 242.331 69.2591 242.331 70.0651C242.331 70.7308 242.361 71.2795 242.422 71.7113C242.484 72.1395 242.586 72.4759 242.73 72.7206C242.874 72.9617 243.068 73.1326 243.313 73.2334C243.561 73.3305 243.871 73.3791 244.241 73.3791ZM256.059 68.2085H255.099C255.099 67.7263 254.973 67.3845 254.721 67.183C254.469 66.9779 254.075 66.8753 253.539 66.8753C252.92 66.8753 252.467 67.0409 252.179 67.3719C251.894 67.7029 251.752 68.2211 251.752 68.9263V69.8708C252.04 69.5974 252.315 69.4139 252.578 69.3203C252.841 69.2232 253.163 69.1746 253.544 69.1746C254.44 69.1746 255.102 69.3743 255.53 69.7737C255.959 70.1731 256.173 70.8064 256.173 71.6735C256.173 72.5083 255.935 73.1326 255.46 73.5464C254.985 73.9602 254.329 74.1671 253.49 74.1671C252.601 74.1671 251.932 73.9674 251.482 73.568C251.036 73.1686 250.813 72.5389 250.813 71.6789V69.0235C250.813 67.0732 251.722 66.0981 253.539 66.0981C254.366 66.0981 254.994 66.2708 255.422 66.6163C255.851 66.9617 256.063 67.4924 256.059 68.2085ZM253.496 73.3899C254.046 73.3899 254.473 73.2586 254.775 72.9959C255.081 72.7332 255.234 72.2924 255.234 71.6735C255.234 71.0295 255.093 70.5815 254.813 70.3296C254.532 70.0777 254.075 69.9518 253.442 69.9518C252.97 69.9518 252.603 70.0148 252.341 70.1407C252.081 70.263 251.887 70.452 251.758 70.7074V71.6735C251.758 72.3068 251.896 72.7512 252.173 73.0067C252.45 73.2622 252.891 73.3899 253.496 73.3899ZM259.63 70.9233V70.0921H262.647V70.9233H259.63ZM267.066 68.2247H266.105C266.105 67.505 266.305 66.9743 266.704 66.6325C267.103 66.287 267.72 66.1143 268.555 66.1143C269.419 66.1143 270.047 66.2744 270.439 66.5947C270.835 66.9149 271.033 67.4349 271.033 68.1545C271.033 68.4244 271.002 68.6708 270.941 68.8939C270.88 69.1134 270.772 69.3275 270.617 69.5362C270.462 69.7449 270.25 69.9662 269.98 70.2001C269.714 70.434 269.372 70.702 268.955 71.0043C268.325 71.4505 267.87 71.8409 267.589 72.1755C267.312 72.5101 267.173 72.8592 267.173 73.2226H270.935V74.043H266.153V73.8595C266.153 73.4924 266.184 73.1686 266.245 72.8879C266.306 72.6037 266.412 72.3392 266.564 72.0945C266.715 71.8499 266.923 71.6016 267.19 71.3497C267.46 71.0978 267.8 70.8208 268.21 70.5185C268.714 70.1443 269.1 69.8313 269.37 69.5794C269.644 69.3239 269.833 69.0864 269.937 68.8669C270.041 68.6439 270.093 68.3956 270.093 68.1221C270.093 67.6939 269.973 67.3827 269.732 67.1884C269.491 66.9905 269.086 66.8915 268.517 66.8915C267.996 66.8915 267.623 66.9941 267.4 67.1992C267.177 67.4007 267.066 67.7425 267.066 68.2247ZM277.361 74.1671C276.638 74.1671 276.068 74.0286 275.65 73.7515C275.233 73.4709 274.934 73.0301 274.755 72.4292C274.578 71.8283 274.49 71.0403 274.49 70.0651C274.49 69.1332 274.578 68.3758 274.755 67.7929C274.934 67.21 275.233 66.7818 275.65 66.5083C276.068 66.2349 276.638 66.0981 277.361 66.0981C278.085 66.0981 278.653 66.2349 279.067 66.5083C279.484 66.7818 279.779 67.21 279.952 67.7929C280.125 68.3758 280.211 69.1332 280.211 70.0651C280.211 71.0403 280.125 71.8283 279.952 72.4292C279.779 73.0301 279.484 73.4709 279.067 73.7515C278.653 74.0286 278.085 74.1671 277.361 74.1671ZM277.361 73.3791C277.732 73.3791 278.038 73.3305 278.279 73.2334C278.524 73.1326 278.716 72.9599 278.856 72.7152C279 72.4706 279.101 72.1341 279.159 71.7059C279.22 71.2741 279.251 70.7272 279.251 70.0651C279.251 69.2555 279.195 68.6205 279.083 68.1599C278.975 67.6957 278.785 67.3683 278.511 67.1776C278.238 66.9833 277.854 66.8861 277.361 66.8861C276.868 66.8861 276.483 66.9833 276.206 67.1776C275.929 67.3719 275.733 67.7011 275.618 68.1653C275.507 68.6259 275.451 69.2591 275.451 70.0651C275.451 70.7308 275.481 71.2795 275.543 71.7113C275.604 72.1395 275.706 72.4759 275.85 72.7206C275.994 72.9617 276.188 73.1326 276.433 73.2334C276.681 73.3305 276.991 73.3791 277.361 73.3791ZM286.805 74.1671C286.081 74.1671 285.511 74.0286 285.094 73.7515C284.676 73.4709 284.378 73.0301 284.198 72.4292C284.021 71.8283 283.933 71.0403 283.933 70.0651C283.933 69.1332 284.021 68.3758 284.198 67.7929C284.378 67.21 284.676 66.7818 285.094 66.5083C285.511 66.2349 286.081 66.0981 286.805 66.0981C287.528 66.0981 288.096 66.2349 288.51 66.5083C288.928 66.7818 289.223 67.21 289.395 67.7929C289.568 68.3758 289.654 69.1332 289.654 70.0651C289.654 71.0403 289.568 71.8283 289.395 72.4292C289.223 73.0301 288.928 73.4709 288.51 73.7515C288.096 74.0286 287.528 74.1671 286.805 74.1671ZM286.805 73.3791C287.175 73.3791 287.481 73.3305 287.722 73.2334C287.967 73.1326 288.159 72.9599 288.3 72.7152C288.444 72.4706 288.544 72.1341 288.602 71.7059C288.663 71.2741 288.694 70.7272 288.694 70.0651C288.694 69.2555 288.638 68.6205 288.526 68.1599C288.418 67.6957 288.228 67.3683 287.954 67.1776C287.681 66.9833 287.298 66.8861 286.805 66.8861C286.312 66.8861 285.927 66.9833 285.65 67.1776C285.372 67.3719 285.176 67.7011 285.061 68.1653C284.95 68.6259 284.894 69.2591 284.894 70.0651C284.894 70.7308 284.925 71.2795 284.986 71.7113C285.047 72.1395 285.149 72.4759 285.293 72.7206C285.437 72.9617 285.632 73.1326 285.876 73.2334C286.125 73.3305 286.434 73.3791 286.805 73.3791ZM298.623 68.2085H297.662C297.662 67.7263 297.536 67.3845 297.284 67.183C297.032 66.9779 296.638 66.8753 296.102 66.8753C295.483 66.8753 295.03 67.0409 294.742 67.3719C294.458 67.7029 294.315 68.2211 294.315 68.9263V69.8708C294.603 69.5974 294.879 69.4139 295.141 69.3203C295.404 69.2232 295.726 69.1746 296.107 69.1746C297.003 69.1746 297.665 69.3743 298.094 69.7737C298.522 70.1731 298.736 70.8064 298.736 71.6735C298.736 72.5083 298.498 73.1326 298.023 73.5464C297.548 73.9602 296.892 74.1671 296.053 74.1671C295.165 74.1671 294.495 73.9674 294.046 73.568C293.599 73.1686 293.376 72.5389 293.376 71.6789V69.0235C293.376 67.0732 294.285 66.0981 296.102 66.0981C296.93 66.0981 297.557 66.2708 297.986 66.6163C298.414 66.9617 298.626 67.4924 298.623 68.2085ZM296.059 73.3899C296.609 73.3899 297.036 73.2586 297.338 72.9959C297.644 72.7332 297.797 72.2924 297.797 71.6735C297.797 71.0295 297.656 70.5815 297.376 70.3296C297.095 70.0777 296.638 69.9518 296.005 69.9518C295.533 69.9518 295.166 70.0148 294.904 70.1407C294.645 70.263 294.45 70.452 294.321 70.7074V71.6735C294.321 72.3068 294.459 72.7512 294.736 73.0067C295.014 73.2622 295.454 73.3899 296.059 73.3899Z" fill="black"/>
<g filter="url(#filter5_f_2340_5706)">
<path d="M12.1183 20.6437L12.0293 5.03953C12.025 4.28771 13.086 4.12607 13.3058 4.84507L17.8439 19.6912C18.0629 20.4078 19.1196 20.2504 19.1204 19.5011L19.1367 3.81867" stroke="black" stroke-width="1.17452"/>
</g>
<g filter="url(#filter6_f_2340_5706)">
<path d="M12.1163 20.3939L12.0535 5.10575C12.0504 4.35393 13.1116 4.19397 13.3303 4.91331L17.8822 19.8894C18.1008 20.6086 19.162 20.4488 19.159 19.697L19.0982 4.21038" stroke="black" stroke-width="0.522009"/>
</g>
<g filter="url(#filter7_f_2340_5706)">
<path d="M42.933 19.675L43.1243 6.06978C43.1347 5.33222 44.1691 5.17563 44.3973 5.87707L48.713 19.1416C48.9412 19.843 49.9756 19.6864 49.9859 18.9488L50.1789 5.23511" stroke="black" stroke-width="1.17452"/>
</g>
<g filter="url(#filter8_f_2340_5706)">
<path d="M42.9329 19.7516L43.1277 5.90805C43.1381 5.1694 44.1747 5.01401 44.4013 5.71714L48.7452 19.2009C48.9717 19.904 50.0083 19.7487 50.0187 19.01L50.208 5.56025" stroke="black" stroke-width="0.522009"/>
</g>
<g filter="url(#filter9_f_2340_5706)">
<path d="M30.2364 5.87081L23.2511 4.58112C22.8782 4.51228 22.5254 4.77468 22.484 5.1516L21.9416 10.0935C21.9069 10.4096 22.1052 10.7047 22.4109 10.7921L29.1085 12.7066C29.3918 12.7876 29.5857 13.0485 29.5816 13.3432L29.5278 17.1603C29.5232 17.4868 29.278 17.7597 28.9538 17.7989L21.7686 18.6686" stroke="black" stroke-width="1.17452"/>
</g>
<g filter="url(#filter10_f_2340_5706)">
<path d="M30.2364 5.87081L23.2511 4.58112C22.8782 4.51228 22.5254 4.77468 22.484 5.1516L21.9416 10.0935C21.9069 10.4096 22.1052 10.7047 22.4109 10.7921L29.1085 12.7066C29.3918 12.7876 29.5857 13.0485 29.5816 13.3432L29.5278 17.1603C29.5232 17.4868 29.278 17.7597 28.9538 17.7989L21.7686 18.6686" stroke="black" stroke-width="0.522009"/>
</g>
<g filter="url(#filter11_f_2340_5706)">
<path d="M40.6192 5.42681C38.1167 5.3916 33.1034 5.32105 33.0695 5.32058C33.0356 5.3201 33.001 9.1836 32.988 11.1154M32.988 11.1154L40.5333 11.5266M32.988 11.1154L32.9023 17.2022C32.8974 17.5508 33.1675 17.8417 33.5155 17.8627L40.4383 18.28" stroke="black" stroke-width="1.17452"/>
</g>
<g filter="url(#filter12_f_2340_5706)">
<path d="M40.6192 5.42681C38.1167 5.3916 33.1034 5.32105 33.0695 5.32058C33.0356 5.3201 33.001 9.1836 32.988 11.1154M32.988 11.1154L40.5333 11.5266M32.988 11.1154L32.9023 17.2022C32.8974 17.5508 33.1675 17.8417 33.5155 17.8627L40.4383 18.28" stroke="black" stroke-width="0.522009"/>
</g>
<g filter="url(#filter13_f_2340_5706)">
<path d="M59.9556 8.4316C59.9581 8.25288 58.8155 12.399 58.6928 16.209C58.6853 16.441 58.5599 16.6538 58.3578 16.7679L53.9326 19.2674C53.4941 19.5151 52.9521 19.1937 52.9592 18.6901L53.1405 5.8083C53.1475 5.30856 53.6906 5.00147 54.123 5.25212C56.5072 6.63416 59.9534 8.59257 59.9556 8.4316Z" stroke="black" stroke-width="1.17452"/>
</g>
<g filter="url(#filter14_f_2340_5706)">
<path d="M59.9556 8.4316C59.9581 8.25288 58.8155 12.399 58.6928 16.209C58.6853 16.441 58.5599 16.6538 58.3578 16.7679L53.9326 19.2674C53.4941 19.5151 52.9521 19.1937 52.9592 18.6901L53.1405 5.8083C53.1475 5.30856 53.6906 5.00147 54.123 5.25212C56.5072 6.63416 59.9534 8.59257 59.9556 8.4316Z" stroke="black" stroke-width="0.522009"/>
</g>
<g filter="url(#filter15_f_2340_5706)">
<path d="M63.9807 19.329L65.3338 13.6054M71.1576 19.43L69.3001 11.6382M69.3001 11.6382L68.1086 6.63991C67.9475 5.96433 66.9828 5.97456 66.8361 6.6534L65.3338 13.6054M69.3001 11.6382L65.3338 13.6054" stroke="black" stroke-width="1.17452"/>
</g>
<g filter="url(#filter16_f_2340_5706)">
<rect x="7.75" y="3.91797" width="1.37027" height="16.639" rx="0.652511" transform="rotate(0.806209 7.75 3.91797)" fill="black"/>
</g>
<g filter="url(#filter17_f_2340_5706)">
<rect x="8.13672" y="4.05469" width="0.58726" height="16.3128" rx="0.29363" transform="rotate(0.806209 8.13672 4.05469)" fill="black"/>
</g>
<g filter="url(#filter18_f_2340_5706)">
<rect x="61.5039" y="5.13281" width="1.17452" height="14.551" rx="0.58726" transform="rotate(0.806209 61.5039 5.13281)" fill="black"/>
</g>
<g filter="url(#filter19_f_2340_5706)">
<rect x="61.8242" y="5.5293" width="0.456758" height="13.768" rx="0.228379" transform="rotate(0.806209 61.8242 5.5293)" fill="black"/>
</g>
<g filter="url(#filter20_f_2340_5706)">
<path d="M63.9807 19.329L65.2019 13.7014M71.1576 19.43L69.3001 11.6382M69.3001 11.6382L68.0924 6.57204C67.9322 5.90018 66.9745 5.90518 66.8214 6.57868L65.2019 13.7014M69.3001 11.6382L65.2019 13.7014" stroke="black" stroke-width="0.522009"/>
</g>
<path d="M15.953 449.004V441.226H17.5506L19.7635 447.136H19.9524L22.1761 441.226H23.7791V449.004H22.9372V442.063H22.7429L20.4814 448.065H19.2346L16.9893 442.063H16.795V449.004H15.953ZM28.0139 441.523H29.1257V442.56H28.0139V441.523ZM28.9854 449.004H28.1542V443.547H28.9854V449.004ZM32.7398 447.536H33.5278C33.535 447.896 33.6321 448.144 33.8192 448.281C34.0063 448.414 34.3554 448.48 34.8663 448.48C35.3269 448.48 35.6435 448.408 35.8162 448.264C35.9925 448.121 36.0807 447.883 36.0807 447.552C36.0807 447.297 35.9979 447.095 35.8324 446.948C35.6705 446.8 35.4114 446.697 35.0552 446.64L34.4831 446.548C33.875 446.451 33.436 446.282 33.1662 446.041C32.8999 445.796 32.7668 445.447 32.7668 444.994C32.7668 443.947 33.4576 443.423 34.8393 443.423C35.5662 443.423 36.0789 443.547 36.3776 443.795C36.6762 444.044 36.8255 444.454 36.8255 445.026H36.0375C36.0375 444.684 35.9476 444.44 35.7677 444.292C35.5877 444.145 35.2783 444.071 34.8393 444.071C34.3931 444.071 34.0693 444.143 33.8678 444.287C33.6699 444.431 33.571 444.663 33.571 444.983C33.571 445.231 33.6447 445.422 33.7922 445.555C33.9434 445.688 34.1826 445.782 34.5101 445.836L35.0822 445.927C35.7155 446.028 36.1671 446.203 36.4369 446.451C36.7104 446.699 36.8471 447.063 36.8471 447.541C36.8471 448.081 36.6852 448.48 36.3614 448.739C36.0411 448.999 35.532 449.128 34.8339 449.128C34.0963 449.128 33.562 449.006 33.2309 448.761C32.9035 448.516 32.7398 448.108 32.7398 447.536ZM40.1967 447.536H40.9847C40.9919 447.896 41.0891 448.144 41.2762 448.281C41.4633 448.414 41.8123 448.48 42.3232 448.48C42.7838 448.48 43.1005 448.408 43.2732 448.264C43.4495 448.121 43.5376 447.883 43.5376 447.552C43.5376 447.297 43.4549 447.095 43.2894 446.948C43.1274 446.8 42.8684 446.697 42.5121 446.64L41.94 446.548C41.3319 446.451 40.893 446.282 40.6231 446.041C40.3568 445.796 40.2237 445.447 40.2237 444.994C40.2237 443.947 40.9145 443.423 42.2963 443.423C43.0231 443.423 43.5358 443.547 43.8345 443.795C44.1331 444.044 44.2825 444.454 44.2825 445.026H43.4945C43.4945 444.684 43.4045 444.44 43.2246 444.292C43.0447 444.145 42.7352 444.071 42.2963 444.071C41.8501 444.071 41.5262 444.143 41.3247 444.287C41.1268 444.431 41.0279 444.663 41.0279 444.983C41.0279 445.231 41.1016 445.422 41.2492 445.555C41.4003 445.688 41.6396 445.782 41.967 445.836L42.5391 445.927C43.1724 446.028 43.624 446.203 43.8939 446.451C44.1673 446.699 44.3041 447.063 44.3041 447.541C44.3041 448.081 44.1421 448.48 43.8183 448.739C43.4981 448.999 42.9889 449.128 42.2909 449.128C41.5532 449.128 41.0189 449.006 40.6879 448.761C40.3604 448.516 40.1967 448.108 40.1967 447.536ZM15.953 463.004V455.226H21.1345V456.047H16.8922V458.54H20.4976V459.35H16.8922V462.184H21.1506V463.004H15.953ZM25.6121 457.547L25.7146 458.395C25.9053 458.01 26.1626 457.752 26.4864 457.623C26.8103 457.49 27.1413 457.423 27.4795 457.423H27.5821V458.249H27.4633C27.0711 458.249 26.7185 458.326 26.4055 458.481C26.0924 458.636 25.8783 458.888 25.7632 459.237V463.004H24.932V457.547H25.6121ZM31.7844 457.547L31.887 458.395C32.0777 458.01 32.335 457.752 32.6588 457.623C32.9826 457.49 33.3137 457.423 33.6519 457.423H33.7545V458.249H33.6357C33.2435 458.249 32.8909 458.326 32.5778 458.481C32.2648 458.636 32.0507 458.888 31.9356 459.237V463.004H31.1044V457.547H31.7844ZM37.7949 459.021H37.0447C37.0447 458.477 37.2192 458.076 37.5682 457.817C37.9172 457.558 38.4552 457.428 39.182 457.428C39.9196 457.428 40.4648 457.563 40.8174 457.833C41.1736 458.103 41.3517 458.519 41.3517 459.08V461.865C41.3517 462.106 41.3877 462.264 41.4597 462.34C41.5316 462.416 41.6756 462.444 41.8915 462.426V463.085C41.8231 463.11 41.7619 463.124 41.7079 463.128C41.654 463.132 41.5892 463.133 41.5136 463.133C41.251 463.133 41.0387 463.063 40.8768 462.923C40.7184 462.783 40.6393 462.597 40.6393 462.367C40.4594 462.608 40.2057 462.795 39.8783 462.928C39.5544 463.061 39.1802 463.128 38.7556 463.128C38.1475 463.128 37.6797 462.986 37.3523 462.702C37.0249 462.414 36.8612 462.007 36.8612 461.482C36.8612 460.877 37.0537 460.447 37.4387 460.192C37.8273 459.933 38.4768 459.803 39.3871 459.803H40.5205V459.075C40.5205 458.722 40.418 458.472 40.2129 458.324C40.0078 458.173 39.6642 458.098 39.182 458.098C38.6819 458.098 38.3256 458.17 38.1133 458.314C37.901 458.454 37.7949 458.69 37.7949 459.021ZM40.5259 461.358V460.419H39.3817C38.7844 460.419 38.3562 460.5 38.0971 460.661C37.8417 460.82 37.7139 461.088 37.7139 461.466C37.7139 461.786 37.8219 462.031 38.0378 462.2C38.2537 462.369 38.5595 462.453 38.9553 462.453C39.4591 462.453 39.8459 462.36 40.1157 462.173C40.3892 461.986 40.5259 461.714 40.5259 461.358Z" fill="black"/>
<path d="M15.953 477.07V469.293H21.1345V470.113H16.8922V472.607H20.4598V473.416H16.8922V477.07H15.953ZM24.9104 477.07V469.293H27.4741C28.201 469.293 28.7731 469.363 29.1905 469.503C29.6079 469.64 29.9047 469.863 30.081 470.173C30.2574 470.478 30.3455 470.889 30.3455 471.403C30.3455 472.36 29.8328 472.97 28.8073 473.233C29.0664 473.298 29.2732 473.382 29.428 473.486C29.5863 473.591 29.714 473.742 29.8112 473.94C29.9083 474.134 29.9947 474.4 30.0703 474.739L30.5884 477.07H29.6385L29.2013 475.068C29.1185 474.683 29.0142 474.386 28.8882 474.177C28.7659 473.969 28.5896 473.825 28.3593 473.746C28.129 473.663 27.8106 473.621 27.404 473.621H25.8496V477.07H24.9104ZM25.8496 472.833H27.6199C28.21 472.833 28.6562 472.729 28.9584 472.52C29.2607 472.308 29.4118 471.954 29.4118 471.457C29.4118 471.112 29.3596 470.84 29.2553 470.642C29.1545 470.441 28.9764 470.298 28.7209 470.216C28.469 470.133 28.1182 470.092 27.6684 470.092H25.8496V472.833ZM37.7917 477.275C36.9173 477.275 36.2228 477.119 35.7083 476.806C35.1973 476.489 34.8321 476.023 34.6126 475.408C34.3931 474.793 34.2834 474.039 34.2834 473.146C34.2834 472.261 34.3967 471.522 34.6234 470.928C34.8537 470.331 35.2261 469.881 35.7407 469.579C36.2552 469.277 36.9389 469.125 37.7917 469.125C38.648 469.125 39.3317 469.278 39.8426 469.584C40.3572 469.886 40.7278 470.336 40.9545 470.934C41.1812 471.527 41.2945 472.263 41.2945 473.141C41.2945 474.037 41.1848 474.793 40.9653 475.408C40.7458 476.02 40.3806 476.484 39.8696 476.8C39.3623 477.117 38.6696 477.275 37.7917 477.275ZM37.7917 476.471C38.4897 476.471 39.0204 476.345 39.3839 476.093C39.7473 475.838 39.9956 475.464 40.1287 474.971C40.2618 474.474 40.3284 473.863 40.3284 473.136C40.3284 472.416 40.2582 471.821 40.1179 471.349C39.9812 470.874 39.7293 470.52 39.3623 470.286C38.9989 470.048 38.4753 469.93 37.7917 469.93C37.0972 469.93 36.5665 470.05 36.1994 470.291C35.836 470.532 35.586 470.894 35.4492 471.376C35.3161 471.855 35.2495 472.456 35.2495 473.179C35.2495 473.906 35.3179 474.514 35.4546 475.003C35.5913 475.492 35.8414 475.86 36.2048 476.104C36.5719 476.349 37.1008 476.471 37.7917 476.471ZM45.3727 477.07V469.293H46.9703L49.1832 475.203H49.3721L51.5958 469.293H53.1988V477.07H52.3569V470.129H52.1625L49.9011 476.131H48.6543L46.409 470.129H46.2147V477.07H45.3727ZM58.0165 473.195C57.7862 473.195 57.6171 473.148 57.5091 473.055C57.4048 472.961 57.3526 472.796 57.3526 472.558C57.3526 472.321 57.4048 472.155 57.5091 472.062C57.6171 471.968 57.7862 471.921 58.0165 471.921C58.2504 471.921 58.4195 471.968 58.5238 472.062C58.6282 472.155 58.6803 472.321 58.6803 472.558C58.6803 472.796 58.6282 472.961 58.5238 473.055C58.4195 473.148 58.2504 473.195 58.0165 473.195ZM58.0165 477.189C57.7862 477.189 57.6171 477.142 57.5091 477.049C57.4048 476.955 57.3526 476.79 57.3526 476.552C57.3526 476.315 57.4048 476.149 57.5091 476.056C57.6171 475.962 57.7862 475.915 58.0165 475.915C58.2504 475.915 58.4195 475.962 58.5238 476.056C58.6282 476.149 58.6803 476.315 58.6803 476.552C58.6803 476.79 58.6282 476.955 58.5238 477.049C58.4195 477.142 58.2504 477.189 58.0165 477.189ZM68.2725 471.252H67.3117C67.3117 470.532 67.5114 470.002 67.9108 469.66C68.3102 469.314 68.9273 469.142 69.7621 469.142C70.6257 469.142 71.2536 469.302 71.6458 469.622C72.0416 469.942 72.2395 470.462 72.2395 471.182C72.2395 471.452 72.2089 471.698 72.1477 471.921C72.0866 472.141 71.9786 472.355 71.8239 472.564C71.6692 472.772 71.4569 472.994 71.187 473.227C70.9207 473.461 70.5789 473.729 70.1615 474.032C69.5318 474.478 69.0767 474.868 68.796 475.203C68.5189 475.537 68.3804 475.887 68.3804 476.25H72.1423V477.07H67.3603V476.887C67.3603 476.52 67.3909 476.196 67.4521 475.915C67.5132 475.631 67.6194 475.367 67.7705 475.122C67.9216 474.877 68.1303 474.629 68.3966 474.377C68.6665 474.125 69.0065 473.848 69.4167 473.546C69.9204 473.172 70.3072 472.859 70.5771 472.607C70.8506 472.351 71.0395 472.114 71.1438 471.894C71.2482 471.671 71.3003 471.423 71.3003 471.149C71.3003 470.721 71.1798 470.41 70.9387 470.216C70.6976 470.018 70.2928 469.919 69.7243 469.919C69.2026 469.919 68.8302 470.021 68.6071 470.227C68.384 470.428 68.2725 470.77 68.2725 471.252ZM76.5498 471.252H75.5891C75.5855 470.536 75.7834 470.005 76.1828 469.66C76.5858 469.314 77.2047 469.142 78.0394 469.142C78.903 469.142 79.5309 469.313 79.9231 469.654C80.3189 469.996 80.5168 470.505 80.5168 471.182C80.5168 471.664 80.3945 472.045 80.1498 472.326C79.9051 472.607 79.5255 472.826 79.011 472.985C79.5507 473.078 79.9663 473.294 80.2577 473.632C80.5528 473.97 80.7003 474.409 80.7003 474.949C80.7003 475.69 80.4952 476.248 80.085 476.622C79.6784 476.997 79.0271 477.184 78.1312 477.184C77.264 477.184 76.6217 477.011 76.2043 476.666C75.7906 476.32 75.5855 475.789 75.5891 475.073H76.5498C76.5498 475.552 76.6667 475.894 76.9006 476.099C77.1381 476.304 77.5339 476.406 78.088 476.406C78.6889 476.406 79.1171 476.295 79.3726 476.072C79.6316 475.849 79.7612 475.492 79.7612 475.003C79.7612 474.489 79.5957 474.095 79.2646 473.821C78.9336 473.544 78.4514 473.406 77.8181 473.406H77.0733V472.553H77.748C78.3453 472.553 78.7987 472.43 79.1081 472.186C79.4211 471.941 79.5777 471.596 79.5777 471.149C79.5777 470.721 79.4571 470.41 79.216 470.216C78.975 470.018 78.5702 469.919 78.0017 469.919C77.4799 469.919 77.1075 470.021 76.8844 470.227C76.6613 470.428 76.5498 470.77 76.5498 471.252ZM89.8768 477.07V469.293H92.2463C93.0235 469.293 93.6352 469.367 94.0813 469.514C94.5275 469.658 94.8442 469.912 95.0313 470.275C95.2184 470.635 95.3119 471.137 95.3119 471.781C95.3119 472.385 95.2094 472.868 95.0043 473.227C94.7992 473.587 94.4717 473.846 94.022 474.005C93.5758 474.163 92.9839 474.242 92.2463 474.242H90.816V477.07H89.8768ZM90.816 473.454H92.2463C92.822 473.454 93.2627 473.411 93.5686 473.325C93.8744 473.235 94.0849 473.069 94.2001 472.828C94.3188 472.587 94.3782 472.238 94.3782 471.781C94.3782 471.31 94.3188 470.95 94.2001 470.701C94.0849 470.453 93.8744 470.284 93.5686 470.194C93.2627 470.101 92.822 470.054 92.2463 470.054H90.816V473.454ZM99.3092 477.07V469.293H100.907L103.12 475.203H103.309L105.532 469.293H107.135V477.07H106.293V470.129H106.099L103.838 476.131H102.591L100.345 470.129H100.151V477.07H99.3092ZM15.0355 484.113V483.293H20.7944V484.113H18.3818V491.076H17.4481V484.113H15.0355ZM27.3986 491.275C26.5242 491.275 25.8298 491.119 25.3152 490.806C24.8043 490.489 24.4391 490.023 24.2196 489.408C24.0001 488.793 23.8903 488.039 23.8903 487.146C23.8903 486.261 24.0037 485.522 24.2304 484.928C24.4606 484.331 24.8331 483.881 25.3476 483.579C25.8621 483.277 26.5458 483.125 27.3986 483.125C28.255 483.125 28.9386 483.278 29.4496 483.584C29.9641 483.886 30.3347 484.336 30.5614 484.934C30.7881 485.527 30.9014 486.263 30.9014 487.141C30.9014 488.037 30.7917 488.793 30.5722 489.408C30.3527 490.02 29.9875 490.484 29.4765 490.8C28.9692 491.117 28.2765 491.275 27.3986 491.275ZM27.3986 490.471C28.0966 490.471 28.6274 490.345 28.9908 490.093C29.3542 489.838 29.6025 489.464 29.7356 488.971C29.8688 488.474 29.9353 487.863 29.9353 487.136C29.9353 486.416 29.8652 485.821 29.7248 485.349C29.5881 484.874 29.3362 484.52 28.9692 484.286C28.6058 484.048 28.0822 483.93 27.3986 483.93C26.7041 483.93 26.1734 484.05 25.8064 484.291C25.443 484.532 25.1929 484.894 25.0561 485.376C24.923 485.855 24.8564 486.456 24.8564 487.179C24.8564 487.906 24.9248 488.514 25.0615 489.003C25.1983 489.492 25.4484 489.86 25.8118 490.104C26.1788 490.349 26.7077 490.471 27.3986 490.471ZM40.8498 487.735L39.997 487.454L40.2938 483.298H44.6657V484.119H41.179L40.9739 486.769C41.1862 486.56 41.4093 486.414 41.6432 486.331C41.8807 486.245 42.1847 486.202 42.5553 486.202C43.3613 486.202 43.9658 486.402 44.3688 486.801C44.7718 487.2 44.9733 487.834 44.9733 488.701C44.9733 489.564 44.7574 490.196 44.3256 490.595C43.8975 490.995 43.248 491.194 42.3772 491.194C41.51 491.194 40.8678 491.022 40.4504 490.676C40.0366 490.331 39.8315 489.8 39.8351 489.084H40.7958C40.7958 489.563 40.9127 489.904 41.1466 490.11C41.3841 490.315 41.7799 490.417 42.334 490.417C42.9349 490.417 43.3685 490.293 43.6348 490.045C43.9011 489.793 44.0342 489.345 44.0342 488.701C44.0342 488.057 43.9011 487.609 43.6348 487.357C43.3685 487.105 42.9349 486.979 42.334 486.979C41.6 486.979 41.1052 487.231 40.8498 487.735ZM49.0569 487.195C48.8266 487.195 48.6575 487.148 48.5496 487.055C48.4452 486.961 48.3931 486.796 48.3931 486.558C48.3931 486.321 48.4452 486.155 48.5496 486.062C48.6575 485.968 48.8266 485.921 49.0569 485.921C49.2908 485.921 49.4599 485.968 49.5643 486.062C49.6686 486.155 49.7208 486.321 49.7208 486.558C49.7208 486.796 49.6686 486.961 49.5643 487.055C49.4599 487.148 49.2908 487.195 49.0569 487.195ZM49.0569 491.189C48.8266 491.189 48.6575 491.142 48.5496 491.049C48.4452 490.955 48.3931 490.79 48.3931 490.552C48.3931 490.315 48.4452 490.149 48.5496 490.056C48.6575 489.962 48.8266 489.915 49.0569 489.915C49.2908 489.915 49.4599 489.962 49.5643 490.056C49.6686 490.149 49.7208 490.315 49.7208 490.552C49.7208 490.79 49.6686 490.955 49.5643 491.049C49.4599 491.142 49.2908 491.189 49.0569 491.189ZM56.1738 491.194C55.4506 491.194 54.8803 491.056 54.4629 490.779C54.0455 490.498 53.7468 490.057 53.5669 489.457C53.3906 488.856 53.3025 488.068 53.3025 487.092C53.3025 486.161 53.3906 485.403 53.5669 484.82C53.7468 484.237 54.0455 483.809 54.4629 483.536C54.8803 483.262 55.4506 483.125 56.1738 483.125C56.8971 483.125 57.4656 483.262 57.8794 483.536C58.2968 483.809 58.5918 484.237 58.7645 484.82C58.9373 485.403 59.0236 486.161 59.0236 487.092C59.0236 488.068 58.9373 488.856 58.7645 489.457C58.5918 490.057 58.2968 490.498 57.8794 490.779C57.4656 491.056 56.8971 491.194 56.1738 491.194ZM56.1738 490.406C56.5444 490.406 56.8503 490.358 57.0914 490.261C57.3361 490.16 57.5286 489.987 57.6689 489.743C57.8128 489.498 57.9136 489.161 57.9711 488.733C58.0323 488.301 58.0629 487.755 58.0629 487.092C58.0629 486.283 58.0071 485.648 57.8956 485.187C57.7876 484.723 57.5969 484.396 57.3235 484.205C57.05 484.011 56.6668 483.913 56.1738 483.913C55.6809 483.913 55.2959 484.011 55.0188 484.205C54.7417 484.399 54.5456 484.728 54.4305 485.193C54.319 485.653 54.2632 486.286 54.2632 487.092C54.2632 487.758 54.2938 488.307 54.3549 488.739C54.4161 489.167 54.5187 489.503 54.6626 489.748C54.8065 489.989 55.0008 490.16 55.2455 490.261C55.4938 490.358 55.8032 490.406 56.1738 490.406ZM65.617 491.194C64.8937 491.194 64.3234 491.056 63.906 490.779C63.4886 490.498 63.19 490.057 63.0101 489.457C62.8338 488.856 62.7456 488.068 62.7456 487.092C62.7456 486.161 62.8338 485.403 63.0101 484.82C63.19 484.237 63.4886 483.809 63.906 483.536C64.3234 483.262 64.8937 483.125 65.617 483.125C66.3402 483.125 66.9087 483.262 67.3225 483.536C67.7399 483.809 68.035 484.237 68.2077 484.82C68.3804 485.403 68.4668 486.161 68.4668 487.092C68.4668 488.068 68.3804 488.856 68.2077 489.457C68.035 490.057 67.7399 490.498 67.3225 490.779C66.9087 491.056 66.3402 491.194 65.617 491.194ZM65.617 490.406C65.9876 490.406 66.2934 490.358 66.5345 490.261C66.7792 490.16 66.9717 489.987 67.112 489.743C67.256 489.498 67.3567 489.161 67.4143 488.733C67.4755 488.301 67.506 487.755 67.506 487.092C67.506 486.283 67.4503 485.648 67.3387 485.187C67.2308 484.723 67.0401 484.396 66.7666 484.205C66.4931 484.011 66.1099 483.913 65.617 483.913C65.124 483.913 64.739 484.011 64.4619 484.205C64.1849 484.399 63.9888 484.728 63.8736 485.193C63.7621 485.653 63.7063 486.286 63.7063 487.092C63.7063 487.758 63.7369 488.307 63.7981 488.739C63.8592 489.167 63.9618 489.503 64.1057 489.748C64.2497 489.989 64.444 490.16 64.6886 490.261C64.9369 490.358 65.2464 490.406 65.617 490.406ZM76.7743 491.07L79.7104 483.293H80.7953L83.7692 491.07H82.8193L82.0799 489.122H78.4637L77.7296 491.07H76.7743ZM78.7173 488.361H81.8208L80.2556 484.086L78.7173 488.361ZM87.3833 491.07V483.293H88.9809L91.1938 489.203H91.3827L93.6064 483.293H95.2094V491.07H94.3674V484.129H94.1731L91.9116 490.131H90.6648L88.4196 484.129H88.2253V491.07H87.3833Z" fill="black"/>
</g>
<defs>
<filter id="filter0_f_2340_5706" x="-106.823" y="-100.221" width="476.888" height="674.617" filterUnits="userSpaceOnUse" color-interpolation-filters="sRGB">
<feFlood flood-opacity="0" result="BackgroundImageFix"/>
<feBlend mode="normal" in="SourceGraphic" in2="BackgroundImageFix" result="shape"/>
<feGaussianBlur stdDeviation="38.8607" result="effect1_foregroundBlur_2340_5706"/>
</filter>
<filter id="filter1_f_2340_5706" x="47.4505" y="-88.1686" width="468.056" height="696.9" filterUnits="userSpaceOnUse" color-interpolation-filters="sRGB">
<feFlood flood-opacity="0" result="BackgroundImageFix"/>
<feBlend mode="normal" in="SourceGraphic" in2="BackgroundImageFix" result="shape"/>
<feGaussianBlur stdDeviation="38.8607" result="effect1_foregroundBlur_2340_5706"/>
</filter>
<filter id="filter2_f_2340_5706" x="-11.4674" y="69.5423" width="259.697" height="263.191" filterUnits="userSpaceOnUse" color-interpolation-filters="sRGB">
<feFlood flood-opacity="0" result="BackgroundImageFix"/>
<feBlend mode="normal" in="SourceGraphic" in2="BackgroundImageFix" result="shape"/>
<feGaussianBlur stdDeviation="38.8607" result="effect1_foregroundBlur_2340_5706"/>
</filter>
<filter id="filter3_f_2340_5706" x="211.326" y="-72.3776" width="229.353" height="239.652" filterUnits="userSpaceOnUse" color-interpolation-filters="sRGB">
<feFlood flood-opacity="0" result="BackgroundImageFix"/>
<feBlend mode="normal" in="SourceGraphic" in2="BackgroundImageFix" result="shape"/>
<feGaussianBlur stdDeviation="38.8607" result="effect1_foregroundBlur_2340_5706"/>
</filter>
<filter id="filter4_f_2340_5706" x="-19.2565" y="-17.7018" width="446.896" height="361.49" filterUnits="userSpaceOnUse" color-interpolation-filters="sRGB">
<feFlood flood-opacity="0" result="BackgroundImageFix"/>
<feBlend mode="normal" in="SourceGraphic" in2="BackgroundImageFix" result="shape"/>
<feGaussianBlur stdDeviation="38.8607" result="effect1_foregroundBlur_2340_5706"/>
</filter>
<filter id="filter5_f_2340_5706" x="11.1804" y="3.53392" width="8.80326" height="17.4693" filterUnits="userSpaceOnUse" color-interpolation-filters="sRGB">
<feFlood flood-opacity="0" result="BackgroundImageFix"/>
<feBlend mode="normal" in="SourceGraphic" in2="BackgroundImageFix" result="shape"/>
<feGaussianBlur stdDeviation="0.130502" result="effect1_foregroundBlur_2340_5706"/>
</filter>
<filter id="filter6_f_2340_5706" x="11.532" y="3.92845" width="8.15092" height="16.9458" filterUnits="userSpaceOnUse" color-interpolation-filters="sRGB">
<feFlood flood-opacity="0" result="BackgroundImageFix"/>
<feBlend mode="normal" in="SourceGraphic" in2="BackgroundImageFix" result="shape"/>
<feGaussianBlur stdDeviation="0.130502" result="effect1_foregroundBlur_2340_5706"/>
</filter>
<filter id="filter7_f_2340_5706" x="42.0867" y="4.57689" width="8.93998" height="15.8638" filterUnits="userSpaceOnUse" color-interpolation-filters="sRGB">
<feFlood flood-opacity="0" result="BackgroundImageFix"/>
<feBlend mode="normal" in="SourceGraphic" in2="BackgroundImageFix" result="shape"/>
<feGaussianBlur stdDeviation="0.130502" result="effect1_foregroundBlur_2340_5706"/>
</filter>
<filter id="filter8_f_2340_5706" x="42.4109" y="4.7429" width="8.31888" height="15.4341" filterUnits="userSpaceOnUse" color-interpolation-filters="sRGB">
<feFlood flood-opacity="0" result="BackgroundImageFix"/>
<feBlend mode="normal" in="SourceGraphic" in2="BackgroundImageFix" result="shape"/>
<feGaussianBlur stdDeviation="0.130502" result="effect1_foregroundBlur_2340_5706"/>
</filter>
<filter id="filter9_f_2340_5706" x="21.0906" y="3.72142" width="9.5142" height="15.7915" filterUnits="userSpaceOnUse" color-interpolation-filters="sRGB">
<feFlood flood-opacity="0" result="BackgroundImageFix"/>
<feBlend mode="normal" in="SourceGraphic" in2="BackgroundImageFix" result="shape"/>
<feGaussianBlur stdDeviation="0.130502" result="effect1_foregroundBlur_2340_5706"/>
</filter>
<filter id="filter10_f_2340_5706" x="21.4148" y="4.04759" width="9.13138" height="15.1411" filterUnits="userSpaceOnUse" color-interpolation-filters="sRGB">
<feFlood flood-opacity="0" result="BackgroundImageFix"/>
<feBlend mode="normal" in="SourceGraphic" in2="BackgroundImageFix" result="shape"/>
<feGaussianBlur stdDeviation="0.130502" result="effect1_foregroundBlur_2340_5706"/>
</filter>
<filter id="filter11_f_2340_5706" x="32.0554" y="4.47142" width="8.83451" height="14.6548" filterUnits="userSpaceOnUse" color-interpolation-filters="sRGB">
<feFlood flood-opacity="0" result="BackgroundImageFix"/>
<feBlend mode="normal" in="SourceGraphic" in2="BackgroundImageFix" result="shape"/>
<feGaussianBlur stdDeviation="0.130502" result="effect1_foregroundBlur_2340_5706"/>
</filter>
<filter id="filter12_f_2340_5706" x="32.3796" y="4.79954" width="8.50248" height="14.0025" filterUnits="userSpaceOnUse" color-interpolation-filters="sRGB">
<feFlood flood-opacity="0" result="BackgroundImageFix"/>
<feBlend mode="normal" in="SourceGraphic" in2="BackgroundImageFix" result="shape"/>
<feGaussianBlur stdDeviation="0.130502" result="effect1_foregroundBlur_2340_5706"/>
</filter>
<filter id="filter13_f_2340_5706" x="52.1101" y="4.31321" width="8.69388" height="15.8892" filterUnits="userSpaceOnUse" color-interpolation-filters="sRGB">
<feFlood flood-opacity="0" result="BackgroundImageFix"/>
<feBlend mode="normal" in="SourceGraphic" in2="BackgroundImageFix" result="shape"/>
<feGaussianBlur stdDeviation="0.130502" result="effect1_foregroundBlur_2340_5706"/>
</filter>
<filter id="filter14_f_2340_5706" x="52.4382" y="4.64134" width="8.03763" height="15.2329" filterUnits="userSpaceOnUse" color-interpolation-filters="sRGB">
<feFlood flood-opacity="0" result="BackgroundImageFix"/>
<feBlend mode="normal" in="SourceGraphic" in2="BackgroundImageFix" result="shape"/>
<feGaussianBlur stdDeviation="0.130502" result="effect1_foregroundBlur_2340_5706"/>
</filter>
<filter id="filter15_f_2340_5706" x="63.1492" y="5.28978" width="8.84232" height="14.5376" filterUnits="userSpaceOnUse" color-interpolation-filters="sRGB">
<feFlood flood-opacity="0" result="BackgroundImageFix"/>
<feBlend mode="normal" in="SourceGraphic" in2="BackgroundImageFix" result="shape"/>
<feGaussianBlur stdDeviation="0.130502" result="effect1_foregroundBlur_2340_5706"/>
</filter>
<filter id="filter16_f_2340_5706" x="7.26243" y="3.66673" width="2.10795" height="17.1607" filterUnits="userSpaceOnUse" color-interpolation-filters="sRGB">
<feFlood flood-opacity="0" result="BackgroundImageFix"/>
<feBlend mode="normal" in="SourceGraphic" in2="BackgroundImageFix" result="shape"/>
<feGaussianBlur stdDeviation="0.130502" result="effect1_foregroundBlur_2340_5706"/>
</filter>
<filter id="filter17_f_2340_5706" x="7.64915" y="3.79759" width="1.3306" height="16.8326" filterUnits="userSpaceOnUse" color-interpolation-filters="sRGB">
<feFlood flood-opacity="0" result="BackgroundImageFix"/>
<feBlend mode="normal" in="SourceGraphic" in2="BackgroundImageFix" result="shape"/>
<feGaussianBlur stdDeviation="0.130502" result="effect1_foregroundBlur_2340_5706"/>
</filter>
<filter id="filter18_f_2340_5706" x="61.0476" y="4.87962" width="1.88529" height="15.0728" filterUnits="userSpaceOnUse" color-interpolation-filters="sRGB">
<feFlood flood-opacity="0" result="BackgroundImageFix"/>
<feBlend mode="normal" in="SourceGraphic" in2="BackgroundImageFix" result="shape"/>
<feGaussianBlur stdDeviation="0.130502" result="effect1_foregroundBlur_2340_5706"/>
</filter>
<filter id="filter19_f_2340_5706" x="61.3718" y="5.2722" width="1.16654" height="14.2876" filterUnits="userSpaceOnUse" color-interpolation-filters="sRGB">
<feFlood flood-opacity="0" result="BackgroundImageFix"/>
<feBlend mode="normal" in="SourceGraphic" in2="BackgroundImageFix" result="shape"/>
<feGaussianBlur stdDeviation="0.130502" result="effect1_foregroundBlur_2340_5706"/>
</filter>
<filter id="filter20_f_2340_5706" x="63.4656" y="5.54954" width="8.2056" height="14.2017" filterUnits="userSpaceOnUse" color-interpolation-filters="sRGB">
<feFlood flood-opacity="0" result="BackgroundImageFix"/>
<feBlend mode="normal" in="SourceGraphic" in2="BackgroundImageFix" result="shape"/>
<feGaussianBlur stdDeviation="0.130502" result="effect1_foregroundBlur_2340_5706"/>
</filter>
<clipPath id="clip0_2340_5706">
<rect width="357" height="510.025" fill="white"/>
</clipPath>
</defs>
</svg>
