<svg width="357" height="511" viewBox="0 0 357 511" fill="none" xmlns="http://www.w3.org/2000/svg">
<g clip-path="url(#clip0_2340_5645)">
<rect width="357" height="510.025" fill="white"/>
<g filter="url(#filter0_f_2340_5645)">
<path d="M142.899 496.671L1.63878 413.045L82.9247 230.076L-15.7621 168.223L-29.1044 -20.1715L292.341 -22.5024L182.418 229.873L142.899 496.671Z" fill="#65BEFE"/>
</g>
<g filter="url(#filter1_f_2340_5645)">
<path d="M284.841 531.011L214.207 277.164L125.173 -0.659111L437.785 -10.448L321.996 259.196L284.841 531.011Z" fill="#65BEFE"/>
</g>
<g filter="url(#filter2_f_2340_5645)">
<path d="M118.165 255.013L66.2531 147.265L170.507 147.473L118.165 255.013Z" fill="#D91AFF"/>
</g>
<g filter="url(#filter3_f_2340_5645)">
<path d="M325.836 89.5534L289.048 5.34458L362.959 5.49227L325.836 89.5534Z" fill="#D91AFF"/>
</g>
<g filter="url(#filter4_f_2340_5645)">
<path d="M267.879 266.067L58.4636 60.0195L349.919 76.2977L267.879 266.067Z" fill="#D91AFF"/>
</g>
<path d="M43.6704 247.437V244.976C41.0106 244.907 38.9466 244.25 37.4786 243.007C36.0278 241.746 35.3024 240.01 35.3024 237.799C35.3024 235.52 36.0278 233.749 37.4786 232.489C38.9294 231.21 40.9933 230.537 43.6704 230.468V228.24H47.3233V230.468C50.0176 230.537 52.0988 231.202 53.5669 232.463C55.0349 233.723 55.769 235.485 55.769 237.748C55.769 239.993 55.0349 241.746 53.5669 243.007C52.0988 244.268 50.0262 244.915 47.3492 244.95L47.3233 247.437H43.6704ZM47.3492 241.893C50.3889 241.789 51.9088 240.399 51.9088 237.722C51.9088 235.062 50.3889 233.654 47.3492 233.499V241.893ZM43.6704 241.919V233.525C40.6651 233.646 39.1625 235.062 39.1625 237.774C39.1625 240.416 40.6651 241.798 43.6704 241.919ZM64.6122 247.074V228.577H75.4932V231.815H68.576V235.856H75.0528V239.095H68.576V243.784H75.4932V247.074H64.6122ZM92.2693 247.333C89.4195 247.333 87.2347 246.504 85.7148 244.846C84.2122 243.171 83.4609 240.848 83.4609 237.877C83.4609 235.891 83.8149 234.181 84.523 232.748C85.2484 231.314 86.2847 230.217 87.6319 229.457C88.9791 228.697 90.6026 228.317 92.5024 228.317C93.4524 228.317 94.3764 228.421 95.2745 228.628C96.1899 228.818 97.0794 229.121 97.9429 229.535L96.518 232.618C95.8099 232.273 95.1277 232.022 94.4714 231.867C93.8323 231.694 93.2192 231.608 92.632 231.608C91.0085 231.608 89.7649 232.152 88.9013 233.24C88.0378 234.311 87.606 235.865 87.606 237.903C87.606 241.979 89.3677 244.017 92.891 244.017C93.5646 244.017 94.2555 243.939 94.9636 243.784C95.689 243.611 96.449 243.361 97.2434 243.033V246.375C95.7754 247.014 94.1173 247.333 92.2693 247.333ZM113.449 247.074H109.485V231.867H104.485V228.577H118.449V231.867H113.449V247.074ZM126.458 247.074V228.577H130.37V237.566C130.37 238.136 130.362 238.767 130.344 239.458C130.327 240.131 130.301 240.744 130.267 241.297C130.249 241.832 130.232 242.186 130.215 242.359H130.293L137.313 228.577H142.184V247.074H138.272V238.525C138.272 238.059 138.281 237.549 138.298 236.996C138.315 236.426 138.332 235.882 138.35 235.364C138.384 234.846 138.41 234.397 138.427 234.017C138.445 233.62 138.462 233.361 138.479 233.24H138.376L131.329 247.074H126.458ZM152.003 247.074V228.577H158.04C160.561 228.577 162.401 228.957 163.558 229.716C164.732 230.459 165.319 231.616 165.319 233.188C165.319 234.345 165.009 235.269 164.387 235.96C163.765 236.634 163.022 237.065 162.159 237.255V237.385C162.781 237.506 163.359 237.722 163.895 238.033C164.447 238.344 164.896 238.793 165.242 239.38C165.604 239.967 165.786 240.744 165.786 241.711C165.786 243.404 165.173 244.725 163.946 245.675C162.737 246.608 161.079 247.074 158.972 247.074H152.003ZM155.915 235.986H158.247C159.318 235.986 160.086 235.796 160.553 235.416C161.019 235.019 161.252 234.457 161.252 233.732C161.252 233.024 160.993 232.506 160.475 232.178C159.957 231.832 159.145 231.659 158.04 231.659H155.915V235.986ZM155.915 243.939H158.532C159.637 243.939 160.432 243.715 160.915 243.266C161.416 242.817 161.667 242.195 161.667 241.401C161.667 240.623 161.407 240.027 160.889 239.613C160.388 239.181 159.559 238.965 158.402 238.965H155.915V243.939ZM185.789 247.074L184.364 242.722H177.835L176.411 247.074H172.136L178.639 228.499H183.509L190.064 247.074H185.789ZM182.162 235.39C182.093 235.131 181.981 234.742 181.825 234.224C181.687 233.706 181.549 233.179 181.411 232.644C181.272 232.091 181.16 231.642 181.074 231.297C181.005 231.694 180.901 232.152 180.763 232.67C180.642 233.171 180.521 233.672 180.4 234.172C180.279 234.656 180.176 235.062 180.089 235.39L178.768 239.406H183.457L182.162 235.39ZM197.561 247.359C197.146 247.359 196.749 247.325 196.369 247.256C196.006 247.204 195.661 247.135 195.333 247.048V243.758C195.574 243.81 195.782 243.853 195.954 243.888C196.144 243.905 196.343 243.914 196.55 243.914C197.276 243.914 197.802 243.68 198.131 243.214C198.476 242.73 198.692 241.919 198.778 240.779C198.847 239.829 198.916 238.81 198.986 237.722C199.072 236.634 199.15 235.364 199.219 233.913C199.305 232.445 199.391 230.666 199.478 228.577H212.069V247.074H208.079V231.867H202.975C202.889 233.87 202.803 235.649 202.716 237.204C202.63 238.758 202.518 240.209 202.379 241.556C202.172 243.559 201.689 245.028 200.929 245.96C200.186 246.893 199.063 247.359 197.561 247.359ZM221.768 247.074V228.628H225.68V235.053H227.805C230.171 235.053 231.958 235.563 233.167 236.582C234.376 237.601 234.981 239.095 234.981 241.064C234.981 243.05 234.376 244.553 233.167 245.572C231.958 246.573 230.179 247.074 227.83 247.074H221.768ZM225.68 243.836H227.545C229.825 243.836 230.965 242.895 230.965 241.012C230.965 239.198 229.808 238.292 227.494 238.292H225.68V243.836ZM44.0072 280.333C41.1574 280.333 38.9725 279.504 37.4527 277.846C35.95 276.171 35.1987 273.848 35.1987 270.877C35.1987 268.891 35.5528 267.181 36.2609 265.748C36.9863 264.314 38.0226 263.217 39.3698 262.457C40.7169 261.697 42.3405 261.317 44.2403 261.317C45.1902 261.317 46.1143 261.421 47.0124 261.628C47.9278 261.818 48.8172 262.121 49.6808 262.535L48.2559 265.618C47.5478 265.273 46.8656 265.022 46.2093 264.867C45.5702 264.694 44.9571 264.608 44.3699 264.608C42.7463 264.608 41.5028 265.152 40.6392 266.24C39.7757 267.311 39.3439 268.865 39.3439 270.903C39.3439 274.979 41.1056 277.017 44.6289 277.017C45.3025 277.017 45.9934 276.939 46.7015 276.784C47.4269 276.611 48.1868 276.361 48.9813 276.033V279.375C47.5132 280.014 45.8552 280.333 44.0072 280.333ZM57.933 280.074V261.577H63.9694C66.491 261.577 68.3304 261.957 69.4876 262.716C70.6621 263.459 71.2493 264.616 71.2493 266.188C71.2493 267.345 70.9384 268.269 70.3166 268.96C69.6949 269.634 68.9522 270.065 68.0886 270.255V270.385C68.7104 270.506 69.289 270.722 69.8244 271.033C70.3771 271.344 70.8261 271.793 71.1716 272.38C71.5343 272.967 71.7156 273.744 71.7156 274.711C71.7156 276.404 71.1025 277.725 69.8762 278.675C68.6672 279.608 67.0092 280.074 64.902 280.074H57.933ZM61.845 268.986H64.1766C65.2475 268.986 66.0161 268.796 66.4824 268.416C66.9487 268.019 67.1819 267.457 67.1819 266.732C67.1819 266.024 66.9228 265.506 66.4047 265.178C65.8865 264.832 65.0748 264.659 63.9694 264.659H61.845V268.986ZM61.845 276.939H64.4616C65.567 276.939 66.3615 276.715 66.8451 276.266C67.346 275.817 67.5964 275.195 67.5964 274.401C67.5964 273.623 67.3373 273.027 66.8192 272.613C66.3183 272.181 65.4893 271.965 64.3321 271.965H61.845V276.939ZM80.2678 280.074V261.577H91.1488V264.815H84.2316V268.856H90.7084V272.095H84.2316V276.784H91.1488V280.074H80.2678ZM107.225 280.074H103.262V264.867H98.2615V261.577H112.225V264.867H107.225V280.074ZM119.551 280.359C119.136 280.359 118.739 280.325 118.359 280.256C117.996 280.204 117.651 280.135 117.323 280.048V276.758C117.565 276.81 117.772 276.853 117.945 276.888C118.135 276.905 118.333 276.914 118.541 276.914C119.266 276.914 119.793 276.68 120.121 276.214C120.466 275.73 120.682 274.919 120.769 273.779C120.838 272.829 120.907 271.81 120.976 270.722C121.062 269.634 121.14 268.364 121.209 266.913C121.295 265.445 121.382 263.666 121.468 261.577H134.059V280.074H130.069V264.867H124.965C124.879 266.87 124.793 268.649 124.706 270.204C124.62 271.758 124.508 273.209 124.37 274.556C124.162 276.559 123.679 278.028 122.919 278.96C122.176 279.893 121.053 280.359 119.551 280.359ZM141.945 280.074L147.049 272.276C146.531 272.086 145.995 271.793 145.442 271.395C144.907 270.998 144.449 270.454 144.069 269.763C143.707 269.055 143.525 268.157 143.525 267.069C143.525 265.273 144.138 263.908 145.365 262.976C146.608 262.043 148.344 261.577 150.572 261.577H156.738V280.074H152.826V273.235H150.702L146.323 280.074H141.945ZM150.753 270.022H152.826V264.789H150.702C149.631 264.789 148.828 264.996 148.292 265.411C147.774 265.808 147.515 266.438 147.515 267.302C147.515 268.252 147.791 268.943 148.344 269.375C148.914 269.806 149.717 270.022 150.753 270.022ZM176.626 280.074V272.924C175.244 273.407 173.828 273.649 172.377 273.649C170.305 273.649 168.733 273.174 167.662 272.224C166.591 271.257 166.056 269.832 166.056 267.95V261.577H169.968V267.25C169.968 268.39 170.227 269.202 170.745 269.685C171.28 270.169 172.118 270.411 173.258 270.411C174.311 270.411 175.434 270.195 176.626 269.763V261.577H180.538V280.074H176.626ZM190.376 280.074V261.577H194.262V268.831H196.179L201.076 261.577H205.221L199.288 270.281L205.869 280.074H201.335L196.076 272.095H194.262V280.074H190.376ZM220.761 280.333C217.997 280.333 215.847 279.496 214.31 277.82C212.79 276.145 212.03 273.796 212.03 270.774C212.03 267.768 212.79 265.437 214.31 263.779C215.847 262.121 218.015 261.292 220.812 261.292C223.576 261.292 225.709 262.121 227.212 263.779C228.714 265.419 229.465 267.76 229.465 270.799C229.465 273.822 228.706 276.171 227.186 277.846C225.666 279.504 223.524 280.333 220.761 280.333ZM220.761 277.043C222.263 277.043 223.403 276.516 224.18 275.463C224.958 274.392 225.346 272.837 225.346 270.799C225.346 268.761 224.966 267.216 224.206 266.162C223.446 265.109 222.324 264.582 220.838 264.582C219.336 264.582 218.179 265.109 217.367 266.162C216.555 267.216 216.149 268.761 216.149 270.799C216.149 272.82 216.546 274.366 217.341 275.437C218.135 276.508 219.275 277.043 220.761 277.043ZM238.205 280.074V261.577H244.241C246.763 261.577 248.602 261.957 249.76 262.716C250.934 263.459 251.521 264.616 251.521 266.188C251.521 267.345 251.21 268.269 250.589 268.96C249.967 269.634 249.224 270.065 248.361 270.255V270.385C248.982 270.506 249.561 270.722 250.096 271.033C250.649 271.344 251.098 271.793 251.444 272.38C251.806 272.967 251.988 273.744 251.988 274.711C251.988 276.404 251.375 277.725 250.148 278.675C248.939 279.608 247.281 280.074 245.174 280.074H238.205ZM242.117 268.986H244.449C245.519 268.986 246.288 268.796 246.754 268.416C247.221 268.019 247.454 267.457 247.454 266.732C247.454 266.024 247.195 265.506 246.677 265.178C246.159 264.832 245.347 264.659 244.241 264.659H242.117V268.986ZM242.117 276.939H244.734C245.839 276.939 246.633 276.715 247.117 276.266C247.618 275.817 247.868 275.195 247.868 274.401C247.868 273.623 247.609 273.027 247.091 272.613C246.59 272.181 245.761 271.965 244.604 271.965H242.117V276.939Z" fill="black"/>
<path d="M170.514 300.039V292.147H176.948V300.039H175.279V293.539H172.183V300.039H170.514ZM181.134 300.161C180.957 300.161 180.788 300.146 180.625 300.116C180.471 300.094 180.323 300.065 180.183 300.028V298.624C180.286 298.646 180.375 298.665 180.449 298.679C180.53 298.687 180.614 298.691 180.703 298.691C181.012 298.691 181.237 298.591 181.377 298.392C181.524 298.186 181.617 297.839 181.653 297.353C181.683 296.948 181.712 296.513 181.742 296.049C181.779 295.584 181.812 295.043 181.841 294.424C181.878 293.797 181.915 293.038 181.952 292.147H187.324V300.039H185.622V293.551H183.444C183.407 294.405 183.37 295.164 183.334 295.828C183.297 296.491 183.249 297.11 183.19 297.685C183.101 298.539 182.895 299.166 182.571 299.564C182.254 299.962 181.775 300.161 181.134 300.161ZM196.293 300.039L195.685 298.182H192.899L192.291 300.039H190.468L193.242 292.114H195.32L198.117 300.039H196.293ZM194.745 295.054C194.716 294.943 194.668 294.777 194.602 294.556C194.543 294.335 194.484 294.111 194.425 293.882C194.366 293.646 194.318 293.455 194.281 293.307C194.252 293.477 194.207 293.672 194.148 293.893C194.097 294.107 194.045 294.321 193.994 294.534C193.942 294.741 193.898 294.914 193.861 295.054L193.297 296.767H195.298L194.745 295.054ZM201.271 300.039V292.147H203.847C204.923 292.147 205.708 292.309 206.201 292.633C206.702 292.95 206.953 293.444 206.953 294.114C206.953 294.608 206.82 295.002 206.555 295.297C206.29 295.584 205.973 295.769 205.604 295.85V295.905C205.87 295.957 206.116 296.049 206.345 296.181C206.581 296.314 206.772 296.506 206.92 296.756C207.074 297.007 207.152 297.338 207.152 297.751C207.152 298.473 206.89 299.037 206.367 299.442C205.851 299.84 205.144 300.039 204.245 300.039H201.271ZM202.94 295.308H203.935C204.392 295.308 204.72 295.227 204.919 295.065C205.118 294.895 205.217 294.656 205.217 294.346C205.217 294.044 205.107 293.823 204.886 293.683C204.665 293.536 204.318 293.462 203.847 293.462H202.94V295.308ZM202.94 298.702H204.057C204.528 298.702 204.867 298.606 205.074 298.414C205.287 298.223 205.394 297.957 205.394 297.618C205.394 297.287 205.284 297.032 205.063 296.856C204.849 296.671 204.495 296.579 204.002 296.579H202.94V298.702ZM210.856 300.039V292.147H212.525V295.982C212.525 296.226 212.521 296.495 212.514 296.789C212.507 297.077 212.496 297.338 212.481 297.574C212.474 297.803 212.466 297.954 212.459 298.027H212.492L215.488 292.147H217.566V300.039H215.897V296.391C215.897 296.192 215.9 295.975 215.908 295.739C215.915 295.496 215.922 295.264 215.93 295.043C215.944 294.822 215.956 294.63 215.963 294.468C215.97 294.299 215.978 294.188 215.985 294.136H215.941L212.934 300.039H210.856ZM224.85 300.039H223.159V293.551H221.026V292.147H226.984V293.551H224.85V300.039Z" fill="black"/>
<path d="M200.338 313.77V305.877H202.914C203.989 305.877 204.774 306.039 205.268 306.364C205.769 306.68 206.02 307.174 206.02 307.845C206.02 308.338 205.887 308.733 205.622 309.027C205.356 309.315 205.04 309.499 204.671 309.58V309.635C204.936 309.687 205.183 309.779 205.412 309.912C205.647 310.044 205.839 310.236 205.986 310.487C206.141 310.737 206.219 311.069 206.219 311.481C206.219 312.204 205.957 312.767 205.434 313.173C204.918 313.571 204.21 313.77 203.311 313.77H200.338ZM202.007 309.039H203.002C203.459 309.039 203.787 308.957 203.986 308.795C204.185 308.626 204.284 308.386 204.284 308.077C204.284 307.775 204.174 307.554 203.953 307.414C203.731 307.266 203.385 307.193 202.914 307.193H202.007V309.039ZM202.007 312.432H203.124C203.595 312.432 203.934 312.336 204.14 312.145C204.354 311.953 204.461 311.688 204.461 311.349C204.461 311.017 204.35 310.763 204.129 310.586C203.916 310.402 203.562 310.31 203.068 310.31H202.007V312.432ZM214.109 313.77V305.877H218.984V307.259H215.778V313.77H214.109ZM225.637 313.88C224.458 313.88 223.541 313.523 222.885 312.808C222.236 312.093 221.912 311.091 221.912 309.801C221.912 308.519 222.236 307.524 222.885 306.817C223.541 306.109 224.466 305.756 225.659 305.756C226.839 305.756 227.749 306.109 228.39 306.817C229.031 307.517 229.351 308.515 229.351 309.812C229.351 311.102 229.027 312.104 228.379 312.819C227.73 313.526 226.816 313.88 225.637 313.88ZM225.637 312.476C226.278 312.476 226.765 312.251 227.096 311.802C227.428 311.345 227.594 310.682 227.594 309.812C227.594 308.943 227.432 308.283 227.107 307.834C226.783 307.384 226.304 307.159 225.67 307.159C225.029 307.159 224.536 307.384 224.189 307.834C223.843 308.283 223.67 308.943 223.67 309.812C223.67 310.674 223.839 311.334 224.178 311.791C224.517 312.248 225.004 312.476 225.637 312.476ZM233.08 313.77V305.877H235.556C236.566 305.877 237.314 306.091 237.8 306.518C238.294 306.938 238.541 307.554 238.541 308.364C238.541 309.153 238.294 309.794 237.8 310.288C237.306 310.774 236.536 311.017 235.49 311.017H234.771V313.77H233.08ZM234.771 309.624H235.346C235.84 309.624 236.212 309.529 236.463 309.337C236.713 309.138 236.839 308.829 236.839 308.408C236.839 307.642 236.367 307.259 235.424 307.259H234.771V309.624ZM245.538 313.88C244.359 313.88 243.442 313.523 242.786 312.808C242.137 312.093 241.813 311.091 241.813 309.801C241.813 308.519 242.137 307.524 242.786 306.817C243.442 306.109 244.367 305.756 245.56 305.756C246.739 305.756 247.65 306.109 248.291 306.817C248.932 307.517 249.252 308.515 249.252 309.812C249.252 311.102 248.928 312.104 248.28 312.819C247.631 313.526 246.717 313.88 245.538 313.88ZM245.538 312.476C246.179 312.476 246.666 312.251 246.997 311.802C247.329 311.345 247.495 310.682 247.495 309.812C247.495 308.943 247.333 308.283 247.008 307.834C246.684 307.384 246.205 307.159 245.571 307.159C244.93 307.159 244.437 307.384 244.09 307.834C243.744 308.283 243.571 308.943 243.571 309.812C243.571 310.674 243.74 311.334 244.079 311.791C244.418 312.248 244.905 312.476 245.538 312.476ZM252.044 315.405V312.377H252.873C253.087 312.141 253.257 311.905 253.382 311.669C253.507 311.426 253.603 311.15 253.669 310.84C253.736 310.523 253.787 310.137 253.824 309.68C253.861 309.274 253.894 308.736 253.923 308.066C253.953 307.388 253.979 306.658 254.001 305.877H259.34V312.377H260.401V315.405H258.787V313.77H253.658V315.405H252.044ZM254.631 312.377H257.671V307.27H255.482C255.467 307.719 255.449 308.162 255.427 308.596C255.412 309.024 255.386 309.411 255.349 309.757C255.29 310.398 255.202 310.925 255.084 311.338C254.974 311.75 254.822 312.097 254.631 312.377ZM263.666 313.77V305.877H268.308V307.259H265.357V308.983H268.12V310.365H265.357V312.366H268.308V313.77H263.666Z" fill="black"/>
<path d="M245.667 327.78C244.488 327.78 243.571 327.423 242.915 326.708C242.266 325.993 241.942 324.991 241.942 323.702C241.942 322.419 242.266 321.425 242.915 320.717C243.571 320.01 244.495 319.656 245.689 319.656C246.868 319.656 247.778 320.01 248.419 320.717C249.061 321.417 249.381 322.416 249.381 323.713C249.381 325.002 249.057 326.004 248.408 326.719C247.76 327.427 246.846 327.78 245.667 327.78ZM245.667 326.377C246.308 326.377 246.795 326.152 247.126 325.702C247.458 325.245 247.624 324.582 247.624 323.713C247.624 322.843 247.461 322.184 247.137 321.734C246.813 321.285 246.334 321.06 245.7 321.06C245.059 321.06 244.565 321.285 244.219 321.734C243.873 322.184 243.7 322.843 243.7 323.713C243.7 324.575 243.869 325.234 244.208 325.691C244.547 326.148 245.033 326.377 245.667 326.377ZM253.165 327.67V319.778H258.04V321.159H254.834V327.67H253.165ZM261.605 327.67V319.778H263.274V322.873H266.457V319.778H268.126V327.67H266.457V324.265H263.274V327.67H261.605ZM272.266 327.67V319.778H276.909V321.159H273.957V322.884H276.721V324.265H273.957V326.266H276.909V327.67H272.266ZM280.728 327.67V319.778H282.397V323.613C282.397 323.856 282.394 324.125 282.386 324.42C282.379 324.708 282.368 324.969 282.353 325.205C282.346 325.433 282.338 325.584 282.331 325.658H282.364L285.36 319.778H287.438V327.67H285.769V324.022C285.769 323.823 285.772 323.606 285.78 323.37C285.787 323.127 285.795 322.895 285.802 322.674C285.817 322.453 285.828 322.261 285.835 322.099C285.842 321.929 285.85 321.819 285.857 321.767H285.813L282.806 327.67H280.728ZM284.089 319.114C283.433 319.114 282.917 318.971 282.541 318.683C282.173 318.396 281.952 317.946 281.878 317.335H283.293C283.374 317.887 283.639 318.164 284.089 318.164C284.546 318.164 284.811 317.887 284.884 317.335H286.299C286.226 317.946 286.001 318.396 285.625 318.683C285.257 318.971 284.744 319.114 284.089 319.114Z" fill="black"/>
<path d="M190.711 116.584H189.751C189.751 115.864 189.95 115.334 190.35 114.992C190.749 114.646 191.366 114.474 192.201 114.474C193.065 114.474 193.693 114.634 194.085 114.954C194.481 115.274 194.678 115.794 194.678 116.514C194.678 116.784 194.648 117.03 194.587 117.253C194.525 117.473 194.418 117.687 194.263 117.896C194.108 118.104 193.896 118.326 193.626 118.559C193.36 118.793 193.018 119.061 192.6 119.364C191.971 119.81 191.516 120.2 191.235 120.535C190.958 120.87 190.819 121.219 190.819 121.582H194.581V122.402H189.799V122.219C189.799 121.852 189.83 121.528 189.891 121.247C189.952 120.963 190.058 120.699 190.209 120.454C190.361 120.209 190.569 119.961 190.836 119.709C191.105 119.457 191.445 119.18 191.856 118.878C192.359 118.504 192.746 118.191 193.016 117.939C193.29 117.683 193.478 117.446 193.583 117.226C193.687 117.003 193.739 116.755 193.739 116.481C193.739 116.053 193.619 115.742 193.378 115.548C193.137 115.35 192.732 115.251 192.163 115.251C191.642 115.251 191.269 115.353 191.046 115.559C190.823 115.76 190.711 116.102 190.711 116.584ZM199.313 119.067L198.46 118.786L198.757 114.63H203.128V115.451H199.642L199.437 118.101C199.649 117.892 199.872 117.746 200.106 117.664C200.343 117.577 200.647 117.534 201.018 117.534C201.824 117.534 202.429 117.734 202.832 118.133C203.235 118.532 203.436 119.166 203.436 120.033C203.436 120.896 203.22 121.528 202.788 121.927C202.36 122.327 201.711 122.526 200.84 122.526C199.973 122.526 199.331 122.354 198.913 122.008C198.499 121.663 198.294 121.132 198.298 120.416H199.259C199.259 120.895 199.376 121.237 199.609 121.442C199.847 121.647 200.243 121.749 200.797 121.749C201.398 121.749 201.831 121.625 202.098 121.377C202.364 121.125 202.497 120.677 202.497 120.033C202.497 119.389 202.364 118.941 202.098 118.689C201.831 118.437 201.398 118.311 200.797 118.311C200.063 118.311 199.568 118.563 199.313 119.067ZM207.083 119.283V118.452H210.1V119.283H207.083ZM216.698 122.526C215.975 122.526 215.405 122.388 214.987 122.111C214.57 121.83 214.271 121.389 214.091 120.789C213.915 120.188 213.827 119.4 213.827 118.425C213.827 117.493 213.915 116.735 214.091 116.152C214.271 115.569 214.57 115.141 214.987 114.868C215.405 114.594 215.975 114.457 216.698 114.457C217.422 114.457 217.99 114.594 218.404 114.868C218.821 115.141 219.116 115.569 219.289 116.152C219.462 116.735 219.548 117.493 219.548 118.425C219.548 119.4 219.462 120.188 219.289 120.789C219.116 121.389 218.821 121.83 218.404 122.111C217.99 122.388 217.422 122.526 216.698 122.526ZM216.698 121.738C217.069 121.738 217.375 121.69 217.616 121.593C217.861 121.492 218.053 121.319 218.193 121.075C218.337 120.83 218.438 120.493 218.496 120.065C218.557 119.634 218.587 119.087 218.587 118.425C218.587 117.615 218.532 116.98 218.42 116.519C218.312 116.055 218.121 115.728 217.848 115.537C217.575 115.343 217.191 115.246 216.698 115.246C216.205 115.246 215.82 115.343 215.543 115.537C215.266 115.731 215.07 116.06 214.955 116.525C214.844 116.985 214.788 117.619 214.788 118.425C214.788 119.09 214.818 119.639 214.879 120.071C214.941 120.499 215.043 120.835 215.187 121.08C215.331 121.321 215.525 121.492 215.77 121.593C216.018 121.69 216.328 121.738 216.698 121.738ZM228.516 116.568H227.556C227.556 116.086 227.43 115.744 227.178 115.542C226.926 115.337 226.532 115.235 225.996 115.235C225.377 115.235 224.924 115.4 224.636 115.731C224.351 116.062 224.209 116.58 224.209 117.286V118.23C224.497 117.957 224.772 117.773 225.035 117.68C225.298 117.583 225.62 117.534 226.001 117.534C226.897 117.534 227.559 117.734 227.987 118.133C228.416 118.532 228.63 119.166 228.63 120.033C228.63 120.868 228.392 121.492 227.917 121.906C227.442 122.32 226.786 122.526 225.947 122.526C225.058 122.526 224.389 122.327 223.939 121.927C223.493 121.528 223.27 120.898 223.27 120.038V117.383C223.27 115.433 224.179 114.457 225.996 114.457C226.823 114.457 227.451 114.63 227.879 114.976C228.308 115.321 228.52 115.852 228.516 116.568ZM225.953 121.749C226.503 121.749 226.93 121.618 227.232 121.355C227.538 121.093 227.691 120.652 227.691 120.033C227.691 119.389 227.55 118.941 227.27 118.689C226.989 118.437 226.532 118.311 225.899 118.311C225.427 118.311 225.06 118.374 224.798 118.5C224.539 118.622 224.344 118.811 224.215 119.067V120.033C224.215 120.666 224.353 121.111 224.63 121.366C224.907 121.622 225.348 121.749 225.953 121.749ZM232.087 119.283V118.452H235.104V119.283H232.087ZM239.523 116.584H238.562C238.562 115.864 238.762 115.334 239.161 114.992C239.56 114.646 240.177 114.474 241.012 114.474C241.876 114.474 242.504 114.634 242.896 114.954C243.292 115.274 243.49 115.794 243.49 116.514C243.49 116.784 243.459 117.03 243.398 117.253C243.337 117.473 243.229 117.687 243.074 117.896C242.919 118.104 242.707 118.326 242.437 118.559C242.171 118.793 241.829 119.061 241.412 119.364C240.782 119.81 240.327 120.2 240.046 120.535C239.769 120.87 239.631 121.219 239.631 121.582H243.392V122.402H238.61V122.219C238.61 121.852 238.641 121.528 238.702 121.247C238.763 120.963 238.869 120.699 239.021 120.454C239.172 120.209 239.38 119.961 239.647 119.709C239.917 119.457 240.257 119.18 240.667 118.878C241.171 118.504 241.557 118.191 241.827 117.939C242.101 117.683 242.29 117.446 242.394 117.226C242.498 117.003 242.55 116.755 242.55 116.481C242.55 116.053 242.43 115.742 242.189 115.548C241.948 115.35 241.543 115.251 240.974 115.251C240.453 115.251 240.08 115.353 239.857 115.559C239.634 115.76 239.523 116.102 239.523 116.584ZM249.818 122.526C249.095 122.526 248.525 122.388 248.108 122.111C247.69 121.83 247.391 121.389 247.212 120.789C247.035 120.188 246.947 119.4 246.947 118.425C246.947 117.493 247.035 116.735 247.212 116.152C247.391 115.569 247.69 115.141 248.108 114.868C248.525 114.594 249.095 114.457 249.818 114.457C250.542 114.457 251.11 114.594 251.524 114.868C251.941 115.141 252.236 115.569 252.409 116.152C252.582 116.735 252.668 117.493 252.668 118.425C252.668 119.4 252.582 120.188 252.409 120.789C252.236 121.389 251.941 121.83 251.524 122.111C251.11 122.388 250.542 122.526 249.818 122.526ZM249.818 121.738C250.189 121.738 250.495 121.69 250.736 121.593C250.981 121.492 251.173 121.319 251.314 121.075C251.457 120.83 251.558 120.493 251.616 120.065C251.677 119.634 251.708 119.087 251.708 118.425C251.708 117.615 251.652 116.98 251.54 116.519C251.432 116.055 251.242 115.728 250.968 115.537C250.695 115.343 250.311 115.246 249.818 115.246C249.326 115.246 248.941 115.343 248.663 115.537C248.386 115.731 248.19 116.06 248.075 116.525C247.964 116.985 247.908 117.619 247.908 118.425C247.908 119.09 247.938 119.639 248 120.071C248.061 120.499 248.163 120.835 248.307 121.08C248.451 121.321 248.645 121.492 248.89 121.593C249.138 121.69 249.448 121.738 249.818 121.738ZM259.262 122.526C258.538 122.526 257.968 122.388 257.551 122.111C257.133 121.83 256.835 121.389 256.655 120.789C256.478 120.188 256.39 119.4 256.39 118.425C256.39 117.493 256.478 116.735 256.655 116.152C256.835 115.569 257.133 115.141 257.551 114.868C257.968 114.594 258.538 114.457 259.262 114.457C259.985 114.457 260.553 114.594 260.967 114.868C261.385 115.141 261.68 115.569 261.852 116.152C262.025 116.735 262.111 117.493 262.111 118.425C262.111 119.4 262.025 120.188 261.852 120.789C261.68 121.389 261.385 121.83 260.967 122.111C260.553 122.388 259.985 122.526 259.262 122.526ZM259.262 121.738C259.632 121.738 259.938 121.69 260.179 121.593C260.424 121.492 260.616 121.319 260.757 121.075C260.901 120.83 261.001 120.493 261.059 120.065C261.12 119.634 261.151 119.087 261.151 118.425C261.151 117.615 261.095 116.98 260.983 116.519C260.875 116.055 260.685 115.728 260.411 115.537C260.138 115.343 259.755 115.246 259.262 115.246C258.769 115.246 258.384 115.343 258.107 115.537C257.83 115.731 257.633 116.06 257.518 116.525C257.407 116.985 257.351 117.619 257.351 118.425C257.351 119.09 257.382 119.639 257.443 120.071C257.504 120.499 257.606 120.835 257.75 121.08C257.894 121.321 258.089 121.492 258.333 121.593C258.582 121.69 258.891 121.738 259.262 121.738ZM271.08 116.568H270.119C270.119 116.086 269.993 115.744 269.741 115.542C269.489 115.337 269.095 115.235 268.559 115.235C267.94 115.235 267.487 115.4 267.199 115.731C266.915 116.062 266.773 116.58 266.773 117.286V118.23C267.06 117.957 267.336 117.773 267.598 117.68C267.861 117.583 268.183 117.534 268.564 117.534C269.46 117.534 270.122 117.734 270.551 118.133C270.979 118.532 271.193 119.166 271.193 120.033C271.193 120.868 270.955 121.492 270.48 121.906C270.006 122.32 269.349 122.526 268.51 122.526C267.622 122.526 266.952 122.327 266.503 121.927C266.056 121.528 265.833 120.898 265.833 120.038V117.383C265.833 115.433 266.742 114.457 268.559 114.457C269.387 114.457 270.015 114.63 270.443 114.976C270.871 115.321 271.083 115.852 271.08 116.568ZM268.516 121.749C269.066 121.749 269.493 121.618 269.795 121.355C270.101 121.093 270.254 120.652 270.254 120.033C270.254 119.389 270.113 118.941 269.833 118.689C269.552 118.437 269.095 118.311 268.462 118.311C267.991 118.311 267.624 118.374 267.361 118.5C267.102 118.622 266.907 118.811 266.778 119.067V120.033C266.778 120.666 266.916 121.111 267.194 121.366C267.471 121.622 267.911 121.749 268.516 121.749Z" fill="black"/>
<g filter="url(#filter5_f_2340_5645)">
<path d="M12.1183 20.6457L12.0293 5.04149C12.025 4.28966 13.086 4.12803 13.3058 4.84702L17.8439 19.6932C18.0629 20.4097 19.1196 20.2524 19.1204 19.5031L19.1367 3.82063" stroke="black" stroke-width="1.17452"/>
</g>
<g filter="url(#filter6_f_2340_5645)">
<path d="M12.1124 20.3939L12.0495 5.10575C12.0465 4.35393 13.1077 4.19397 13.3264 4.91331L17.8783 19.8894C18.0969 20.6086 19.1581 20.4488 19.1551 19.697L19.0943 4.21039" stroke="black" stroke-width="0.522009"/>
</g>
<g filter="url(#filter7_f_2340_5645)">
<path d="M42.9291 19.675L43.1204 6.06978C43.1308 5.33222 44.1652 5.17563 44.3934 5.87707L48.7091 19.1416C48.9373 19.843 49.9717 19.6864 49.982 18.9488L50.175 5.23511" stroke="black" stroke-width="1.17452"/>
</g>
<g filter="url(#filter8_f_2340_5645)">
<path d="M42.9329 19.7516L43.1277 5.90805C43.1381 5.1694 44.1747 5.01401 44.4013 5.71714L48.7452 19.2009C48.9717 19.904 50.0083 19.7487 50.0187 19.01L50.208 5.56025" stroke="black" stroke-width="0.522009"/>
</g>
<g filter="url(#filter9_f_2340_5645)">
<path d="M30.2325 5.87276L23.2472 4.58308C22.8743 4.51423 22.5215 4.77664 22.4801 5.15356L21.9377 10.0955C21.903 10.4115 22.1013 10.7066 22.407 10.794L29.1045 12.7086C29.3879 12.7896 29.5818 13.0504 29.5776 13.3451L29.5239 17.1623C29.5193 17.4888 29.2741 17.7616 28.9499 17.8009L21.7647 18.6706" stroke="black" stroke-width="1.17452"/>
</g>
<g filter="url(#filter10_f_2340_5645)">
<path d="M30.2325 5.87276L23.2472 4.58308C22.8743 4.51423 22.5215 4.77664 22.4801 5.15356L21.9377 10.0955C21.903 10.4115 22.1013 10.7066 22.407 10.794L29.1045 12.7086C29.3879 12.7896 29.5818 13.0504 29.5776 13.3451L29.5239 17.1623C29.5193 17.4888 29.2741 17.7616 28.9499 17.8009L21.7647 18.6706" stroke="black" stroke-width="0.522009"/>
</g>
<g filter="url(#filter11_f_2340_5645)">
<path d="M40.6153 5.42486C38.1128 5.38965 33.0995 5.3191 33.0656 5.31862C33.0317 5.31815 32.9971 9.18164 32.9841 11.1135M32.9841 11.1135L40.5294 11.5247M32.9841 11.1135L32.8984 17.2002C32.8935 17.5489 33.1636 17.8398 33.5116 17.8607L40.4344 18.2781" stroke="black" stroke-width="1.17452"/>
</g>
<g filter="url(#filter12_f_2340_5645)">
<path d="M40.6153 5.42486C38.1128 5.38965 33.0995 5.3191 33.0656 5.31862C33.0317 5.31815 32.9971 9.18164 32.9841 11.1135M32.9841 11.1135L40.5294 11.5247M32.9841 11.1135L32.8984 17.2002C32.8935 17.5489 33.1636 17.8398 33.5116 17.8607L40.4344 18.2781" stroke="black" stroke-width="0.522009"/>
</g>
<g filter="url(#filter13_f_2340_5645)">
<path d="M59.9517 8.4316C59.9542 8.25288 58.8115 12.399 58.6889 16.209C58.6814 16.441 58.5559 16.6538 58.3539 16.7679L53.9287 19.2674C53.4902 19.5151 52.9482 19.1937 52.9553 18.6901L53.1366 5.8083C53.1436 5.30856 53.6867 5.00147 54.1191 5.25212C56.5033 6.63416 59.9495 8.59257 59.9517 8.4316Z" stroke="black" stroke-width="1.17452"/>
</g>
<g filter="url(#filter14_f_2340_5645)">
<path d="M59.9517 8.4316C59.9542 8.25288 58.8115 12.399 58.6889 16.209C58.6814 16.441 58.5559 16.6538 58.3539 16.7679L53.9287 19.2674C53.4902 19.5151 52.9482 19.1937 52.9553 18.6901L53.1366 5.8083C53.1436 5.30856 53.6867 5.00147 54.1191 5.25212C56.5033 6.63416 59.9495 8.59257 59.9517 8.4316Z" stroke="black" stroke-width="0.522009"/>
</g>
<g filter="url(#filter15_f_2340_5645)">
<path d="M63.9768 19.329L65.3299 13.6054M71.1537 19.43L69.2962 11.6382M69.2962 11.6382L68.1047 6.63991C67.9436 5.96433 66.9788 5.97456 66.8322 6.6534L65.3299 13.6054M69.2962 11.6382L65.3299 13.6054" stroke="black" stroke-width="1.17452"/>
</g>
<g filter="url(#filter16_f_2340_5645)">
<rect x="7.74609" y="3.91992" width="1.37027" height="16.639" rx="0.652511" transform="rotate(0.806209 7.74609 3.91992)" fill="black"/>
</g>
<g filter="url(#filter17_f_2340_5645)">
<rect x="8.13281" y="4.05664" width="0.58726" height="16.3128" rx="0.29363" transform="rotate(0.806209 8.13281 4.05664)" fill="black"/>
</g>
<g filter="url(#filter18_f_2340_5645)">
<rect x="61.5" y="5.13281" width="1.17452" height="14.551" rx="0.58726" transform="rotate(0.806209 61.5 5.13281)" fill="black"/>
</g>
<g filter="url(#filter19_f_2340_5645)">
<rect x="61.8203" y="5.5293" width="0.456758" height="13.768" rx="0.228379" transform="rotate(0.806209 61.8203 5.5293)" fill="black"/>
</g>
<g filter="url(#filter20_f_2340_5645)">
<path d="M63.9768 19.329L65.198 13.7014M71.1537 19.43L69.2962 11.6382M69.2962 11.6382L68.0885 6.57204C67.9283 5.90018 66.9706 5.90518 66.8175 6.57868L65.198 13.7014M69.2962 11.6382L65.198 13.7014" stroke="black" stroke-width="0.522009"/>
</g>
<path d="M15.953 449.006V441.228H17.5506L19.7635 447.138H19.9524L22.1761 441.228H23.7791V449.006H22.9372V442.065H22.7429L20.4814 448.067H19.2346L16.9893 442.065H16.795V449.006H15.953ZM28.0139 441.525H29.1257V442.561H28.0139V441.525ZM28.9854 449.006H28.1542V443.549H28.9854V449.006ZM32.7398 447.538H33.5278C33.535 447.898 33.6321 448.146 33.8192 448.283C34.0063 448.416 34.3554 448.482 34.8663 448.482C35.3269 448.482 35.6435 448.41 35.8162 448.266C35.9925 448.122 36.0807 447.885 36.0807 447.554C36.0807 447.299 35.9979 447.097 35.8324 446.949C35.6705 446.802 35.4114 446.699 35.0552 446.642L34.4831 446.55C33.875 446.453 33.436 446.284 33.1662 446.043C32.8999 445.798 32.7668 445.449 32.7668 444.996C32.7668 443.949 33.4576 443.425 34.8393 443.425C35.5662 443.425 36.0789 443.549 36.3776 443.797C36.6762 444.046 36.8255 444.456 36.8255 445.028H36.0375C36.0375 444.686 35.9476 444.442 35.7677 444.294C35.5877 444.146 35.2783 444.073 34.8393 444.073C34.3931 444.073 34.0693 444.145 33.8678 444.289C33.6699 444.433 33.571 444.665 33.571 444.985C33.571 445.233 33.6447 445.424 33.7922 445.557C33.9434 445.69 34.1826 445.784 34.5101 445.838L35.0822 445.929C35.7155 446.03 36.1671 446.205 36.4369 446.453C36.7104 446.701 36.8471 447.065 36.8471 447.543C36.8471 448.083 36.6852 448.482 36.3614 448.741C36.0411 449 35.532 449.13 34.8339 449.13C34.0963 449.13 33.562 449.008 33.2309 448.763C32.9035 448.518 32.7398 448.11 32.7398 447.538ZM40.1967 447.538H40.9847C40.9919 447.898 41.0891 448.146 41.2762 448.283C41.4633 448.416 41.8123 448.482 42.3232 448.482C42.7838 448.482 43.1005 448.41 43.2732 448.266C43.4495 448.122 43.5376 447.885 43.5376 447.554C43.5376 447.299 43.4549 447.097 43.2894 446.949C43.1274 446.802 42.8684 446.699 42.5121 446.642L41.94 446.55C41.3319 446.453 40.893 446.284 40.6231 446.043C40.3568 445.798 40.2237 445.449 40.2237 444.996C40.2237 443.949 40.9145 443.425 42.2963 443.425C43.0231 443.425 43.5358 443.549 43.8345 443.797C44.1331 444.046 44.2825 444.456 44.2825 445.028H43.4945C43.4945 444.686 43.4045 444.442 43.2246 444.294C43.0447 444.146 42.7352 444.073 42.2963 444.073C41.8501 444.073 41.5262 444.145 41.3247 444.289C41.1268 444.433 41.0279 444.665 41.0279 444.985C41.0279 445.233 41.1016 445.424 41.2492 445.557C41.4003 445.69 41.6396 445.784 41.967 445.838L42.5391 445.929C43.1724 446.03 43.624 446.205 43.8939 446.453C44.1673 446.701 44.3041 447.065 44.3041 447.543C44.3041 448.083 44.1421 448.482 43.8183 448.741C43.4981 449 42.9889 449.13 42.2909 449.13C41.5532 449.13 41.0189 449.008 40.6879 448.763C40.3604 448.518 40.1967 448.11 40.1967 447.538ZM15.953 463.006V455.228H21.1345V456.049H16.8922V458.542H20.4976V459.352H16.8922V462.185H21.1506V463.006H15.953ZM25.6121 457.549L25.7146 458.397C25.9053 458.012 26.1626 457.754 26.4864 457.625C26.8103 457.492 27.1413 457.425 27.4795 457.425H27.5821V458.251H27.4633C27.0711 458.251 26.7185 458.328 26.4055 458.483C26.0924 458.638 25.8783 458.89 25.7632 459.239V463.006H24.932V457.549H25.6121ZM31.7844 457.549L31.887 458.397C32.0777 458.012 32.335 457.754 32.6588 457.625C32.9826 457.492 33.3137 457.425 33.6519 457.425H33.7545V458.251H33.6357C33.2435 458.251 32.8909 458.328 32.5778 458.483C32.2648 458.638 32.0507 458.89 31.9356 459.239V463.006H31.1044V457.549H31.7844ZM37.7949 459.023H37.0447C37.0447 458.479 37.2192 458.078 37.5682 457.819C37.9172 457.56 38.4552 457.43 39.182 457.43C39.9196 457.43 40.4648 457.565 40.8174 457.835C41.1736 458.105 41.3517 458.521 41.3517 459.082V461.867C41.3517 462.108 41.3877 462.266 41.4597 462.342C41.5316 462.418 41.6756 462.446 41.8915 462.428V463.087C41.8231 463.112 41.7619 463.126 41.7079 463.13C41.654 463.134 41.5892 463.135 41.5136 463.135C41.251 463.135 41.0387 463.065 40.8768 462.925C40.7184 462.785 40.6393 462.599 40.6393 462.369C40.4594 462.61 40.2057 462.797 39.8783 462.93C39.5544 463.063 39.1802 463.13 38.7556 463.13C38.1475 463.13 37.6797 462.988 37.3523 462.704C37.0249 462.416 36.8612 462.009 36.8612 461.484C36.8612 460.879 37.0537 460.449 37.4387 460.194C37.8273 459.935 38.4768 459.805 39.3871 459.805H40.5205V459.077C40.5205 458.724 40.418 458.474 40.2129 458.326C40.0078 458.175 39.6642 458.1 39.182 458.1C38.6819 458.1 38.3256 458.172 38.1133 458.316C37.901 458.456 37.7949 458.692 37.7949 459.023ZM40.5259 461.36V460.421H39.3817C38.7844 460.421 38.3562 460.502 38.0971 460.663C37.8417 460.822 37.7139 461.09 37.7139 461.468C37.7139 461.788 37.8219 462.033 38.0378 462.202C38.2537 462.371 38.5595 462.455 38.9553 462.455C39.4591 462.455 39.8459 462.362 40.1157 462.175C40.3892 461.988 40.5259 461.716 40.5259 461.36Z" fill="black"/>
<path d="M15.953 477.068V469.291H21.1345V470.111H16.8922V472.605H20.4598V473.414H16.8922V477.068H15.953ZM24.9104 477.068V469.291H27.4741C28.201 469.291 28.7731 469.361 29.1905 469.501C29.6079 469.638 29.9047 469.861 30.081 470.171C30.2574 470.476 30.3455 470.887 30.3455 471.401C30.3455 472.358 29.8328 472.968 28.8073 473.231C29.0664 473.296 29.2732 473.38 29.428 473.485C29.5863 473.589 29.714 473.74 29.8112 473.938C29.9083 474.132 29.9947 474.398 30.0703 474.737L30.5884 477.068H29.6385L29.2013 475.066C29.1185 474.681 29.0142 474.384 28.8882 474.175C28.7659 473.967 28.5896 473.823 28.3593 473.744C28.129 473.661 27.8106 473.619 27.404 473.619H25.8496V477.068H24.9104ZM25.8496 472.831H27.6199C28.21 472.831 28.6562 472.727 28.9584 472.518C29.2607 472.306 29.4118 471.952 29.4118 471.455C29.4118 471.11 29.3596 470.838 29.2553 470.64C29.1545 470.439 28.9764 470.297 28.7209 470.214C28.469 470.131 28.1182 470.09 27.6684 470.09H25.8496V472.831ZM37.7917 477.273C36.9173 477.273 36.2228 477.117 35.7083 476.804C35.1973 476.487 34.8321 476.021 34.6126 475.406C34.3931 474.791 34.2834 474.037 34.2834 473.145C34.2834 472.259 34.3967 471.52 34.6234 470.926C34.8537 470.329 35.2261 469.879 35.7407 469.577C36.2552 469.275 36.9389 469.124 37.7917 469.124C38.648 469.124 39.3317 469.276 39.8426 469.582C40.3572 469.885 40.7278 470.334 40.9545 470.932C41.1812 471.525 41.2945 472.261 41.2945 473.139C41.2945 474.035 41.1848 474.791 40.9653 475.406C40.7458 476.018 40.3806 476.482 39.8696 476.798C39.3623 477.115 38.6696 477.273 37.7917 477.273ZM37.7917 476.469C38.4897 476.469 39.0204 476.343 39.3839 476.091C39.7473 475.836 39.9956 475.462 40.1287 474.969C40.2618 474.472 40.3284 473.861 40.3284 473.134C40.3284 472.414 40.2582 471.819 40.1179 471.347C39.9812 470.872 39.7293 470.518 39.3623 470.284C38.9989 470.046 38.4753 469.928 37.7917 469.928C37.0972 469.928 36.5665 470.048 36.1994 470.289C35.836 470.53 35.586 470.892 35.4492 471.374C35.3161 471.853 35.2495 472.454 35.2495 473.177C35.2495 473.904 35.3179 474.512 35.4546 475.001C35.5913 475.491 35.8414 475.858 36.2048 476.102C36.5719 476.347 37.1008 476.469 37.7917 476.469ZM45.3727 477.068V469.291H46.9703L49.1832 475.201H49.3721L51.5958 469.291H53.1988V477.068H52.3569V470.127H52.1625L49.9011 476.129H48.6543L46.409 470.127H46.2147V477.068H45.3727ZM58.0165 473.193C57.7862 473.193 57.6171 473.146 57.5091 473.053C57.4048 472.959 57.3526 472.794 57.3526 472.556C57.3526 472.319 57.4048 472.153 57.5091 472.06C57.6171 471.966 57.7862 471.919 58.0165 471.919C58.2504 471.919 58.4195 471.966 58.5238 472.06C58.6282 472.153 58.6803 472.319 58.6803 472.556C58.6803 472.794 58.6282 472.959 58.5238 473.053C58.4195 473.146 58.2504 473.193 58.0165 473.193ZM58.0165 477.187C57.7862 477.187 57.6171 477.14 57.5091 477.047C57.4048 476.953 57.3526 476.788 57.3526 476.55C57.3526 476.313 57.4048 476.147 57.5091 476.054C57.6171 475.96 57.7862 475.913 58.0165 475.913C58.2504 475.913 58.4195 475.96 58.5238 476.054C58.6282 476.147 58.6803 476.313 58.6803 476.55C58.6803 476.788 58.6282 476.953 58.5238 477.047C58.4195 477.14 58.2504 477.187 58.0165 477.187ZM68.2725 471.25H67.3117C67.3117 470.53 67.5114 470 67.9108 469.658C68.3102 469.312 68.9273 469.14 69.7621 469.14C70.6257 469.14 71.2536 469.3 71.6458 469.62C72.0416 469.94 72.2395 470.46 72.2395 471.18C72.2395 471.45 72.2089 471.696 72.1477 471.919C72.0866 472.139 71.9786 472.353 71.8239 472.562C71.6692 472.77 71.4569 472.992 71.187 473.225C70.9207 473.459 70.5789 473.727 70.1615 474.03C69.5318 474.476 69.0767 474.866 68.796 475.201C68.5189 475.536 68.3804 475.885 68.3804 476.248H72.1423V477.068H67.3603V476.885C67.3603 476.518 67.3909 476.194 67.4521 475.913C67.5132 475.629 67.6194 475.365 67.7705 475.12C67.9216 474.875 68.1303 474.627 68.3966 474.375C68.6665 474.123 69.0065 473.846 69.4167 473.544C69.9204 473.17 70.3072 472.857 70.5771 472.605C70.8506 472.349 71.0395 472.112 71.1438 471.892C71.2482 471.669 71.3003 471.421 71.3003 471.148C71.3003 470.719 71.1798 470.408 70.9387 470.214C70.6976 470.016 70.2928 469.917 69.7243 469.917C69.2026 469.917 68.8302 470.019 68.6071 470.225C68.384 470.426 68.2725 470.768 68.2725 471.25ZM76.5498 471.25H75.5891C75.5855 470.534 75.7834 470.003 76.1828 469.658C76.5858 469.312 77.2047 469.14 78.0394 469.14C78.903 469.14 79.5309 469.311 79.9231 469.652C80.3189 469.994 80.5168 470.503 80.5168 471.18C80.5168 471.662 80.3945 472.043 80.1498 472.324C79.9051 472.605 79.5255 472.824 79.011 472.983C79.5507 473.076 79.9663 473.292 80.2577 473.63C80.5528 473.969 80.7003 474.407 80.7003 474.947C80.7003 475.688 80.4952 476.246 80.085 476.62C79.6784 476.995 79.0271 477.182 78.1312 477.182C77.264 477.182 76.6217 477.009 76.2043 476.664C75.7906 476.318 75.5855 475.787 75.5891 475.071H76.5498C76.5498 475.55 76.6667 475.892 76.9006 476.097C77.1381 476.302 77.5339 476.404 78.088 476.404C78.6889 476.404 79.1171 476.293 79.3726 476.07C79.6316 475.847 79.7612 475.491 79.7612 475.001C79.7612 474.487 79.5957 474.093 79.2646 473.819C78.9336 473.542 78.4514 473.404 77.8181 473.404H77.0733V472.551H77.748C78.3453 472.551 78.7987 472.428 79.1081 472.184C79.4211 471.939 79.5777 471.594 79.5777 471.148C79.5777 470.719 79.4571 470.408 79.216 470.214C78.975 470.016 78.5702 469.917 78.0017 469.917C77.4799 469.917 77.1075 470.019 76.8844 470.225C76.6613 470.426 76.5498 470.768 76.5498 471.25ZM89.8768 477.068V469.291H92.2463C93.0235 469.291 93.6352 469.365 94.0813 469.512C94.5275 469.656 94.8442 469.91 95.0313 470.273C95.2184 470.633 95.3119 471.135 95.3119 471.779C95.3119 472.383 95.2094 472.866 95.0043 473.225C94.7992 473.585 94.4717 473.844 94.022 474.003C93.5758 474.161 92.9839 474.24 92.2463 474.24H90.816V477.068H89.8768ZM90.816 473.452H92.2463C92.822 473.452 93.2627 473.409 93.5686 473.323C93.8744 473.233 94.0849 473.067 94.2001 472.826C94.3188 472.585 94.3782 472.236 94.3782 471.779C94.3782 471.308 94.3188 470.948 94.2001 470.7C94.0849 470.451 93.8744 470.282 93.5686 470.192C93.2627 470.099 92.822 470.052 92.2463 470.052H90.816V473.452ZM99.3092 477.068V469.291H100.907L103.12 475.201H103.309L105.532 469.291H107.135V477.068H106.293V470.127H106.099L103.838 476.129H102.591L100.345 470.127H100.151V477.068H99.3092ZM15.0355 484.111V483.291H20.7944V484.111H18.3818V491.074H17.4481V484.111H15.0355ZM27.3986 491.273C26.5242 491.273 25.8298 491.117 25.3152 490.804C24.8043 490.487 24.4391 490.021 24.2196 489.406C24.0001 488.791 23.8903 488.037 23.8903 487.145C23.8903 486.259 24.0037 485.52 24.2304 484.926C24.4606 484.329 24.8331 483.879 25.3476 483.577C25.8621 483.275 26.5458 483.124 27.3986 483.124C28.255 483.124 28.9386 483.276 29.4496 483.582C29.9641 483.885 30.3347 484.334 30.5614 484.932C30.7881 485.525 30.9014 486.261 30.9014 487.139C30.9014 488.035 30.7917 488.791 30.5722 489.406C30.3527 490.018 29.9875 490.482 29.4765 490.798C28.9692 491.115 28.2765 491.273 27.3986 491.273ZM27.3986 490.469C28.0966 490.469 28.6274 490.343 28.9908 490.091C29.3542 489.836 29.6025 489.462 29.7356 488.969C29.8688 488.472 29.9353 487.861 29.9353 487.134C29.9353 486.414 29.8652 485.819 29.7248 485.347C29.5881 484.872 29.3362 484.518 28.9692 484.284C28.6058 484.046 28.0822 483.928 27.3986 483.928C26.7041 483.928 26.1734 484.048 25.8064 484.289C25.443 484.53 25.1929 484.892 25.0561 485.374C24.923 485.853 24.8564 486.454 24.8564 487.177C24.8564 487.904 24.9248 488.512 25.0615 489.001C25.1983 489.491 25.4484 489.858 25.8118 490.102C26.1788 490.347 26.7077 490.469 27.3986 490.469ZM40.8498 487.733L39.997 487.452L40.2938 483.296H44.6657V484.117H41.179L40.9739 486.767C41.1862 486.558 41.4093 486.412 41.6432 486.33C41.8807 486.243 42.1847 486.2 42.5553 486.2C43.3613 486.2 43.9658 486.4 44.3688 486.799C44.7718 487.198 44.9733 487.832 44.9733 488.699C44.9733 489.563 44.7574 490.194 44.3256 490.593C43.8975 490.993 43.248 491.192 42.3772 491.192C41.51 491.192 40.8678 491.02 40.4504 490.674C40.0366 490.329 39.8315 489.798 39.8351 489.082H40.7958C40.7958 489.561 40.9127 489.903 41.1466 490.108C41.3841 490.313 41.7799 490.415 42.334 490.415C42.9349 490.415 43.3685 490.291 43.6348 490.043C43.9011 489.791 44.0342 489.343 44.0342 488.699C44.0342 488.055 43.9011 487.607 43.6348 487.355C43.3685 487.103 42.9349 486.977 42.334 486.977C41.6 486.977 41.1052 487.229 40.8498 487.733ZM49.0569 487.193C48.8266 487.193 48.6575 487.146 48.5496 487.053C48.4452 486.959 48.3931 486.794 48.3931 486.556C48.3931 486.319 48.4452 486.153 48.5496 486.06C48.6575 485.966 48.8266 485.919 49.0569 485.919C49.2908 485.919 49.4599 485.966 49.5643 486.06C49.6686 486.153 49.7208 486.319 49.7208 486.556C49.7208 486.794 49.6686 486.959 49.5643 487.053C49.4599 487.146 49.2908 487.193 49.0569 487.193ZM49.0569 491.187C48.8266 491.187 48.6575 491.14 48.5496 491.047C48.4452 490.953 48.3931 490.788 48.3931 490.55C48.3931 490.313 48.4452 490.147 48.5496 490.054C48.6575 489.96 48.8266 489.913 49.0569 489.913C49.2908 489.913 49.4599 489.96 49.5643 490.054C49.6686 490.147 49.7208 490.313 49.7208 490.55C49.7208 490.788 49.6686 490.953 49.5643 491.047C49.4599 491.14 49.2908 491.187 49.0569 491.187ZM56.1738 491.192C55.4506 491.192 54.8803 491.054 54.4629 490.777C54.0455 490.496 53.7468 490.055 53.5669 489.455C53.3906 488.854 53.3025 488.066 53.3025 487.091C53.3025 486.159 53.3906 485.401 53.5669 484.818C53.7468 484.235 54.0455 483.807 54.4629 483.534C54.8803 483.26 55.4506 483.124 56.1738 483.124C56.8971 483.124 57.4656 483.26 57.8794 483.534C58.2968 483.807 58.5918 484.235 58.7645 484.818C58.9373 485.401 59.0236 486.159 59.0236 487.091C59.0236 488.066 58.9373 488.854 58.7645 489.455C58.5918 490.055 58.2968 490.496 57.8794 490.777C57.4656 491.054 56.8971 491.192 56.1738 491.192ZM56.1738 490.404C56.5444 490.404 56.8503 490.356 57.0914 490.259C57.3361 490.158 57.5286 489.985 57.6689 489.741C57.8128 489.496 57.9136 489.16 57.9711 488.731C58.0323 488.3 58.0629 487.753 58.0629 487.091C58.0629 486.281 58.0071 485.646 57.8956 485.185C57.7876 484.721 57.5969 484.394 57.3235 484.203C57.05 484.009 56.6668 483.912 56.1738 483.912C55.6809 483.912 55.2959 484.009 55.0188 484.203C54.7417 484.397 54.5456 484.727 54.4305 485.191C54.319 485.651 54.2632 486.285 54.2632 487.091C54.2632 487.756 54.2938 488.305 54.3549 488.737C54.4161 489.165 54.5187 489.501 54.6626 489.746C54.8065 489.987 55.0008 490.158 55.2455 490.259C55.4938 490.356 55.8032 490.404 56.1738 490.404ZM65.617 491.192C64.8937 491.192 64.3234 491.054 63.906 490.777C63.4886 490.496 63.19 490.055 63.0101 489.455C62.8338 488.854 62.7456 488.066 62.7456 487.091C62.7456 486.159 62.8338 485.401 63.0101 484.818C63.19 484.235 63.4886 483.807 63.906 483.534C64.3234 483.26 64.8937 483.124 65.617 483.124C66.3402 483.124 66.9087 483.26 67.3225 483.534C67.7399 483.807 68.035 484.235 68.2077 484.818C68.3804 485.401 68.4668 486.159 68.4668 487.091C68.4668 488.066 68.3804 488.854 68.2077 489.455C68.035 490.055 67.7399 490.496 67.3225 490.777C66.9087 491.054 66.3402 491.192 65.617 491.192ZM65.617 490.404C65.9876 490.404 66.2934 490.356 66.5345 490.259C66.7792 490.158 66.9717 489.985 67.112 489.741C67.256 489.496 67.3567 489.16 67.4143 488.731C67.4755 488.3 67.506 487.753 67.506 487.091C67.506 486.281 67.4503 485.646 67.3387 485.185C67.2308 484.721 67.0401 484.394 66.7666 484.203C66.4931 484.009 66.1099 483.912 65.617 483.912C65.124 483.912 64.739 484.009 64.4619 484.203C64.1849 484.397 63.9888 484.727 63.8736 485.191C63.7621 485.651 63.7063 486.285 63.7063 487.091C63.7063 487.756 63.7369 488.305 63.7981 488.737C63.8592 489.165 63.9618 489.501 64.1057 489.746C64.2497 489.987 64.444 490.158 64.6886 490.259C64.9369 490.356 65.2464 490.404 65.617 490.404ZM76.7743 491.068L79.7104 483.291H80.7953L83.7692 491.068H82.8193L82.0799 489.12H78.4637L77.7296 491.068H76.7743ZM78.7173 488.359H81.8208L80.2556 484.084L78.7173 488.359ZM87.3833 491.068V483.291H88.9809L91.1938 489.201H91.3827L93.6064 483.291H95.2094V491.068H94.3674V484.127H94.1731L91.9116 490.129H90.6648L88.4196 484.127H88.2253V491.068H87.3833Z" fill="black"/>
</g>
<defs>
<filter id="filter0_f_2340_5645" x="-106.827" y="-100.223" width="476.888" height="674.617" filterUnits="userSpaceOnUse" color-interpolation-filters="sRGB">
<feFlood flood-opacity="0" result="BackgroundImageFix"/>
<feBlend mode="normal" in="SourceGraphic" in2="BackgroundImageFix" result="shape"/>
<feGaussianBlur stdDeviation="38.8607" result="effect1_foregroundBlur_2340_5645"/>
</filter>
<filter id="filter1_f_2340_5645" x="47.4505" y="-88.1686" width="468.056" height="696.9" filterUnits="userSpaceOnUse" color-interpolation-filters="sRGB">
<feFlood flood-opacity="0" result="BackgroundImageFix"/>
<feBlend mode="normal" in="SourceGraphic" in2="BackgroundImageFix" result="shape"/>
<feGaussianBlur stdDeviation="38.8607" result="effect1_foregroundBlur_2340_5645"/>
</filter>
<filter id="filter2_f_2340_5645" x="-11.4674" y="69.5423" width="259.697" height="263.191" filterUnits="userSpaceOnUse" color-interpolation-filters="sRGB">
<feFlood flood-opacity="0" result="BackgroundImageFix"/>
<feBlend mode="normal" in="SourceGraphic" in2="BackgroundImageFix" result="shape"/>
<feGaussianBlur stdDeviation="38.8607" result="effect1_foregroundBlur_2340_5645"/>
</filter>
<filter id="filter3_f_2340_5645" x="211.326" y="-72.3776" width="229.353" height="239.652" filterUnits="userSpaceOnUse" color-interpolation-filters="sRGB">
<feFlood flood-opacity="0" result="BackgroundImageFix"/>
<feBlend mode="normal" in="SourceGraphic" in2="BackgroundImageFix" result="shape"/>
<feGaussianBlur stdDeviation="38.8607" result="effect1_foregroundBlur_2340_5645"/>
</filter>
<filter id="filter4_f_2340_5645" x="-19.2565" y="-17.7018" width="446.896" height="361.49" filterUnits="userSpaceOnUse" color-interpolation-filters="sRGB">
<feFlood flood-opacity="0" result="BackgroundImageFix"/>
<feBlend mode="normal" in="SourceGraphic" in2="BackgroundImageFix" result="shape"/>
<feGaussianBlur stdDeviation="38.8607" result="effect1_foregroundBlur_2340_5645"/>
</filter>
<filter id="filter5_f_2340_5645" x="11.1804" y="3.53587" width="8.80326" height="17.4693" filterUnits="userSpaceOnUse" color-interpolation-filters="sRGB">
<feFlood flood-opacity="0" result="BackgroundImageFix"/>
<feBlend mode="normal" in="SourceGraphic" in2="BackgroundImageFix" result="shape"/>
<feGaussianBlur stdDeviation="0.130502" result="effect1_foregroundBlur_2340_5645"/>
</filter>
<filter id="filter6_f_2340_5645" x="11.5281" y="3.92845" width="8.15092" height="16.9458" filterUnits="userSpaceOnUse" color-interpolation-filters="sRGB">
<feFlood flood-opacity="0" result="BackgroundImageFix"/>
<feBlend mode="normal" in="SourceGraphic" in2="BackgroundImageFix" result="shape"/>
<feGaussianBlur stdDeviation="0.130502" result="effect1_foregroundBlur_2340_5645"/>
</filter>
<filter id="filter7_f_2340_5645" x="42.0827" y="4.57689" width="8.93998" height="15.8638" filterUnits="userSpaceOnUse" color-interpolation-filters="sRGB">
<feFlood flood-opacity="0" result="BackgroundImageFix"/>
<feBlend mode="normal" in="SourceGraphic" in2="BackgroundImageFix" result="shape"/>
<feGaussianBlur stdDeviation="0.130502" result="effect1_foregroundBlur_2340_5645"/>
</filter>
<filter id="filter8_f_2340_5645" x="42.4109" y="4.7429" width="8.31888" height="15.4341" filterUnits="userSpaceOnUse" color-interpolation-filters="sRGB">
<feFlood flood-opacity="0" result="BackgroundImageFix"/>
<feBlend mode="normal" in="SourceGraphic" in2="BackgroundImageFix" result="shape"/>
<feGaussianBlur stdDeviation="0.130502" result="effect1_foregroundBlur_2340_5645"/>
</filter>
<filter id="filter9_f_2340_5645" x="21.0867" y="3.72337" width="9.5142" height="15.7915" filterUnits="userSpaceOnUse" color-interpolation-filters="sRGB">
<feFlood flood-opacity="0" result="BackgroundImageFix"/>
<feBlend mode="normal" in="SourceGraphic" in2="BackgroundImageFix" result="shape"/>
<feGaussianBlur stdDeviation="0.130502" result="effect1_foregroundBlur_2340_5645"/>
</filter>
<filter id="filter10_f_2340_5645" x="21.4109" y="4.04954" width="9.13138" height="15.1411" filterUnits="userSpaceOnUse" color-interpolation-filters="sRGB">
<feFlood flood-opacity="0" result="BackgroundImageFix"/>
<feBlend mode="normal" in="SourceGraphic" in2="BackgroundImageFix" result="shape"/>
<feGaussianBlur stdDeviation="0.130502" result="effect1_foregroundBlur_2340_5645"/>
</filter>
<filter id="filter11_f_2340_5645" x="32.0515" y="4.46946" width="8.83451" height="14.6548" filterUnits="userSpaceOnUse" color-interpolation-filters="sRGB">
<feFlood flood-opacity="0" result="BackgroundImageFix"/>
<feBlend mode="normal" in="SourceGraphic" in2="BackgroundImageFix" result="shape"/>
<feGaussianBlur stdDeviation="0.130502" result="effect1_foregroundBlur_2340_5645"/>
</filter>
<filter id="filter12_f_2340_5645" x="32.3757" y="4.79759" width="8.50248" height="14.0025" filterUnits="userSpaceOnUse" color-interpolation-filters="sRGB">
<feFlood flood-opacity="0" result="BackgroundImageFix"/>
<feBlend mode="normal" in="SourceGraphic" in2="BackgroundImageFix" result="shape"/>
<feGaussianBlur stdDeviation="0.130502" result="effect1_foregroundBlur_2340_5645"/>
</filter>
<filter id="filter13_f_2340_5645" x="52.1062" y="4.31321" width="8.69388" height="15.8892" filterUnits="userSpaceOnUse" color-interpolation-filters="sRGB">
<feFlood flood-opacity="0" result="BackgroundImageFix"/>
<feBlend mode="normal" in="SourceGraphic" in2="BackgroundImageFix" result="shape"/>
<feGaussianBlur stdDeviation="0.130502" result="effect1_foregroundBlur_2340_5645"/>
</filter>
<filter id="filter14_f_2340_5645" x="52.4343" y="4.64134" width="8.03763" height="15.2329" filterUnits="userSpaceOnUse" color-interpolation-filters="sRGB">
<feFlood flood-opacity="0" result="BackgroundImageFix"/>
<feBlend mode="normal" in="SourceGraphic" in2="BackgroundImageFix" result="shape"/>
<feGaussianBlur stdDeviation="0.130502" result="effect1_foregroundBlur_2340_5645"/>
</filter>
<filter id="filter15_f_2340_5645" x="63.1452" y="5.28978" width="8.84232" height="14.5376" filterUnits="userSpaceOnUse" color-interpolation-filters="sRGB">
<feFlood flood-opacity="0" result="BackgroundImageFix"/>
<feBlend mode="normal" in="SourceGraphic" in2="BackgroundImageFix" result="shape"/>
<feGaussianBlur stdDeviation="0.130502" result="effect1_foregroundBlur_2340_5645"/>
</filter>
<filter id="filter16_f_2340_5645" x="7.25853" y="3.66868" width="2.10795" height="17.1607" filterUnits="userSpaceOnUse" color-interpolation-filters="sRGB">
<feFlood flood-opacity="0" result="BackgroundImageFix"/>
<feBlend mode="normal" in="SourceGraphic" in2="BackgroundImageFix" result="shape"/>
<feGaussianBlur stdDeviation="0.130502" result="effect1_foregroundBlur_2340_5645"/>
</filter>
<filter id="filter17_f_2340_5645" x="7.64525" y="3.79954" width="1.3306" height="16.8326" filterUnits="userSpaceOnUse" color-interpolation-filters="sRGB">
<feFlood flood-opacity="0" result="BackgroundImageFix"/>
<feBlend mode="normal" in="SourceGraphic" in2="BackgroundImageFix" result="shape"/>
<feGaussianBlur stdDeviation="0.130502" result="effect1_foregroundBlur_2340_5645"/>
</filter>
<filter id="filter18_f_2340_5645" x="61.0437" y="4.87962" width="1.88529" height="15.0728" filterUnits="userSpaceOnUse" color-interpolation-filters="sRGB">
<feFlood flood-opacity="0" result="BackgroundImageFix"/>
<feBlend mode="normal" in="SourceGraphic" in2="BackgroundImageFix" result="shape"/>
<feGaussianBlur stdDeviation="0.130502" result="effect1_foregroundBlur_2340_5645"/>
</filter>
<filter id="filter19_f_2340_5645" x="61.3679" y="5.2722" width="1.16654" height="14.2876" filterUnits="userSpaceOnUse" color-interpolation-filters="sRGB">
<feFlood flood-opacity="0" result="BackgroundImageFix"/>
<feBlend mode="normal" in="SourceGraphic" in2="BackgroundImageFix" result="shape"/>
<feGaussianBlur stdDeviation="0.130502" result="effect1_foregroundBlur_2340_5645"/>
</filter>
<filter id="filter20_f_2340_5645" x="63.4617" y="5.54954" width="8.2056" height="14.2017" filterUnits="userSpaceOnUse" color-interpolation-filters="sRGB">
<feFlood flood-opacity="0" result="BackgroundImageFix"/>
<feBlend mode="normal" in="SourceGraphic" in2="BackgroundImageFix" result="shape"/>
<feGaussianBlur stdDeviation="0.130502" result="effect1_foregroundBlur_2340_5645"/>
</filter>
<clipPath id="clip0_2340_5645">
<rect width="357" height="510.025" fill="white"/>
</clipPath>
</defs>
</svg>
