<svg width="844" height="865" viewBox="0 0 844 865" fill="none" xmlns="http://www.w3.org/2000/svg">
<g filter="url(#filter0_f_2176_2)">
<path d="M367.476 297.057C442.323 266.908 516.132 255.121 574.872 260.282C633.841 265.462 676.458 287.542 691.085 323.854C705.712 360.166 690.299 405.622 651.386 450.231C612.623 494.667 551.252 537.332 476.406 567.481C401.559 597.63 327.75 609.417 269.01 604.256C210.04 599.076 167.423 576.995 152.796 540.683C138.17 504.371 153.583 458.916 192.496 414.307C231.259 369.871 292.63 327.206 367.476 297.057Z" stroke="#FF00E6" stroke-width="7.42899"/>
</g>
<path d="M368.829 296.098C443.852 265.879 517.865 253.811 576.853 258.679C635.921 263.553 679.518 285.351 694.449 322.418C709.379 359.485 693.064 405.415 653.868 449.872C614.725 494.268 553.011 536.873 477.989 567.092C402.967 597.312 328.954 609.38 269.967 604.512C210.899 599.637 167.302 577.84 152.371 540.773C137.44 503.707 153.755 457.775 192.952 413.318C232.095 368.922 293.807 326.318 368.829 296.098Z" stroke="#FF00E6" stroke-width="2.47633"/>
<path d="M473.458 689.032C475.162 689.171 476.749 689.596 478.22 690.307C479.69 691.018 480.99 691.943 482.119 693.082C483.227 694.243 484.137 695.569 484.848 697.061C485.558 698.553 486.007 700.149 486.193 701.849C486.378 703.549 486.274 705.1 485.879 706.502C485.485 707.905 484.85 709.094 483.975 710.07C483.08 711.067 481.962 711.808 480.622 712.291C479.282 712.774 477.76 712.947 476.056 712.808C474.352 712.67 472.764 712.245 471.294 711.533C469.824 710.822 468.534 709.886 467.426 708.726C466.297 707.587 465.377 706.272 464.666 704.78C463.955 703.287 463.507 701.691 463.321 699.992C463.135 698.292 463.24 696.741 463.634 695.338C464.029 693.936 464.674 692.736 465.569 691.739C466.444 690.762 467.552 690.033 468.891 689.549C470.231 689.066 471.753 688.894 473.458 689.032ZM473.736 691.582C472.446 691.477 471.308 691.613 470.322 691.988C469.338 692.386 468.523 692.969 467.877 693.736C467.232 694.526 466.776 695.468 466.507 696.562C466.218 697.677 466.147 698.9 466.292 700.233C466.438 701.565 466.781 702.823 467.321 704.005C467.838 705.185 468.51 706.219 469.338 707.106C470.165 707.992 471.122 708.708 472.209 709.251C473.298 709.818 474.487 710.153 475.777 710.258C477.067 710.363 478.215 710.217 479.222 709.821C480.209 709.446 481.025 708.874 481.672 708.107C482.318 707.34 482.775 706.398 483.041 705.281C483.307 704.164 483.367 702.94 483.221 701.608C483.076 700.275 482.744 699.019 482.227 697.838C481.713 696.681 481.041 695.647 480.211 694.738C479.383 693.851 478.425 693.124 477.336 692.557C476.226 692.012 475.026 691.687 473.736 691.582Z" fill="black"/>
<path d="M457.704 686.643L453.122 709.305L438.813 704.334L439.322 701.82L450.913 705.847L454.987 685.699L457.704 686.643Z" fill="black"/>
<path d="M424.76 671.224L420.144 680.774L431.917 687.418L436.533 677.868L439.039 679.282L428.977 700.098L426.472 698.684L430.801 689.727L419.028 683.083L414.699 692.04L412.193 690.626L422.255 669.81L424.76 671.224Z" fill="black"/>
<path d="M415.674 666.66L401.336 684.797L399.067 683.028L410.267 668.861L388.57 674.845L386.246 673.033L400.584 654.896L402.853 656.665L391.417 671.131L413.487 664.955L415.674 666.66Z" fill="black"/>
<path d="M386.622 641.38L368.68 655.961L361.595 648.492C360.911 647.771 360.408 647.022 360.084 646.246C359.743 645.484 359.588 644.734 359.618 643.997C359.631 643.274 359.821 642.57 360.188 641.886C360.538 641.216 361.044 640.612 361.708 640.072C362.281 639.606 362.881 639.267 363.506 639.056C364.116 638.828 364.735 638.711 365.364 638.704C365.959 638.696 366.54 638.773 367.107 638.935C367.657 639.113 368.159 639.357 368.614 639.67C368.257 639.159 368.029 638.602 367.933 637.997C367.82 637.376 367.826 636.763 367.95 636.157C368.058 635.535 368.284 634.936 368.627 634.36C368.954 633.768 369.387 633.253 369.925 632.816C370.642 632.233 371.4 631.81 372.199 631.547C372.997 631.284 373.811 631.187 374.639 631.256C375.467 631.326 376.283 631.568 377.089 631.982C377.879 632.379 378.639 632.963 379.371 633.735L386.622 641.38ZM369.703 642.526C368.797 641.57 367.844 641.068 366.845 641.019C365.828 640.985 364.907 641.303 364.082 641.973C363.275 642.629 362.824 643.426 362.729 644.364C362.616 645.316 363.013 646.27 363.92 647.226L368.691 652.256L374.474 647.556L369.703 642.526ZM377.786 635.78C376.847 634.791 375.855 634.246 374.808 634.147C373.727 634.046 372.703 634.388 371.734 635.175C371.322 635.51 370.991 635.898 370.741 636.338C370.492 636.779 370.36 637.242 370.346 637.729C370.297 638.214 370.375 638.714 370.579 639.231C370.766 639.762 371.106 640.288 371.599 640.808L376.465 645.938L382.652 640.91L377.786 635.78Z" fill="black"/>
<path d="M361.928 614.577L342.028 626.347L332.82 614.319L335.028 613.013L342.487 622.757L360.179 612.292L361.928 614.577Z" fill="black"/>
<path d="M347.432 599.725C347.047 599.149 346.602 598.69 346.098 598.348C345.561 597.997 344.868 597.785 344.02 597.711C343.151 597.646 342.092 597.75 340.842 598.021C339.559 598.283 337.961 598.735 336.05 599.375L324.797 603.23L316.933 591.475L337.766 581.449L339.366 583.84L320.844 592.754L325.682 599.985L334.657 596.923C337.128 596.089 339.202 595.548 340.879 595.299C342.524 595.041 343.913 595.02 345.048 595.235C346.17 595.432 347.084 595.83 347.788 596.43C348.514 597.021 349.165 597.748 349.743 598.612L347.432 599.725Z" fill="black"/>
<path d="M324.521 560.091L320.764 563.706L326.554 573.651L332.369 573.572L334.025 576.418L307.781 576.712L305.985 573.626L322.865 557.246L324.521 560.091ZM309.656 574.081L323.742 573.856L318.807 565.378L309.656 574.081Z" fill="black"/>
<path d="M318.354 546.382C318.819 547.286 319.159 548.17 319.373 549.034C319.598 549.87 319.72 550.679 319.739 551.461C319.746 552.222 319.662 552.929 319.485 553.581C319.298 554.212 319.036 554.772 318.698 555.26L316.168 554.3C316.71 553.414 316.972 552.329 316.952 551.047C316.932 549.764 316.594 548.486 315.938 547.212C315.103 545.589 314.089 544.439 312.896 543.764C311.67 543.075 310.418 542.931 309.139 543.332C308.456 543.547 307.94 543.864 307.593 544.283C307.213 544.689 306.99 545.177 306.924 545.746C306.859 546.315 306.918 546.953 307.102 547.659C307.286 548.365 307.579 549.108 307.981 549.889L310.139 554.081L307.692 554.849L305.534 550.658C305.185 549.979 304.791 549.363 304.352 548.809C303.88 548.241 303.385 547.776 302.866 547.414C302.324 547.059 301.765 546.817 301.186 546.688C300.586 546.567 299.966 546.606 299.326 546.807C298.709 547.001 298.238 547.304 297.912 547.716C297.576 548.108 297.37 548.579 297.294 549.127C297.196 549.683 297.223 550.283 297.375 550.928C297.506 551.579 297.745 552.244 298.094 552.922C299.289 555.243 301.182 556.905 303.771 557.906L302.781 559.863C301.409 559.387 300.081 558.623 298.797 557.57C297.48 556.504 296.398 555.149 295.552 553.505C295.034 552.498 294.679 551.512 294.489 550.545C294.289 549.558 294.272 548.656 294.441 547.839C294.577 547.009 294.92 546.281 295.468 545.655C295.995 545.036 296.721 544.582 297.647 544.291C298.441 544.042 299.209 543.968 299.953 544.068C300.696 544.169 301.388 544.369 302.029 544.669C302.67 544.969 303.261 545.345 303.8 545.796C304.307 546.234 304.726 546.675 305.058 547.12C304.858 546.633 304.737 546.075 304.694 545.444C304.651 544.813 304.729 544.192 304.926 543.581C305.124 542.97 305.474 542.406 305.977 541.891C306.469 541.354 307.156 540.948 308.038 540.671C308.964 540.38 309.908 540.298 310.87 540.426C311.832 540.553 312.775 540.866 313.697 541.364C314.597 541.869 315.456 542.543 316.273 543.384C317.068 544.232 317.762 545.231 318.354 546.382Z" fill="black"/>
<path d="M303.396 516.859L299.261 519.962L304.001 530.448L309.822 531.073L311.179 534.073L284.916 531.192L283.445 527.939L302.04 513.859L303.396 516.859ZM287.066 528.829L301.17 530.31L297.129 521.371L287.066 528.829Z" fill="black"/>
<path d="M294.442 495.758L287.486 504.471L299.868 509.492L301.154 512.748L286.199 506.589L278.254 516.601L276.967 513.345L283.536 505.226L271.936 500.611L270.65 497.355L284.789 503.114L293.169 492.534L294.442 495.758Z" fill="black"/>
<path d="M284.43 467.134C284.937 468.767 285.102 470.289 284.923 471.699C284.744 473.109 284.277 474.357 283.522 475.442C282.737 476.507 281.703 477.382 280.42 478.068C279.137 478.753 277.646 479.188 275.946 479.371C274.245 479.554 272.589 479.459 270.977 479.085C269.365 478.711 267.883 478.107 266.531 477.272C265.15 476.417 263.951 475.349 262.935 474.067C261.919 472.785 261.158 471.328 260.65 469.695C260.142 468.062 259.978 466.541 260.157 465.13C260.336 463.72 260.818 462.482 261.603 461.417C262.358 460.332 263.377 459.447 264.66 458.761C265.942 458.076 267.434 457.641 269.134 457.458C270.834 457.275 272.49 457.37 274.103 457.744C275.715 458.118 277.212 458.732 278.593 459.587C279.945 460.422 281.129 461.48 282.145 462.762C283.161 464.044 283.922 465.501 284.43 467.134ZM281.88 467.409C281.495 466.173 280.919 465.083 280.151 464.14C279.36 463.199 278.441 462.42 277.394 461.803C276.325 461.188 275.169 460.754 273.926 460.5C272.654 460.226 271.352 460.161 270.019 460.305C268.686 460.448 267.507 460.781 266.482 461.302C265.45 461.8 264.63 462.448 264.022 463.243C263.415 464.038 263.036 464.957 262.885 465.999C262.711 467.044 262.816 468.185 263.2 469.42C263.584 470.656 264.175 471.756 264.973 472.719C265.742 473.662 266.649 474.443 267.696 475.06C268.742 475.677 269.898 476.111 271.164 476.362C272.429 476.614 273.728 476.668 275.061 476.524C276.393 476.381 277.576 476.059 278.608 475.561C279.617 475.064 280.437 474.417 281.068 473.619C281.675 472.824 282.066 471.904 282.24 470.859C282.384 469.795 282.264 468.644 281.88 467.409Z" fill="black"/>
<path d="M279.25 448.882L256.163 450.131L252.418 435.454L254.979 435.315L258.013 447.205L278.538 446.094L279.25 448.882Z" fill="black"/>
<path d="M270.684 413.267L260.077 413.33L262.781 426.576L273.387 426.513L273.963 429.332L250.843 429.468L250.268 426.649L260.216 426.591L257.512 413.345L247.564 413.404L246.989 410.585L270.109 410.448L270.684 413.267Z" fill="black"/>
<path d="M268.439 403.397L245.348 402.239L244.939 399.391L262.976 400.296L243.049 386.216L242.631 383.299L265.722 384.457L266.131 387.305L247.713 386.381L268.045 400.652L268.439 403.397Z" fill="black"/>
<path d="M263.474 367.35L240.547 364.369L239.985 354.089C239.93 353.097 240.03 352.217 240.284 351.448C240.515 350.676 240.878 350.047 241.375 349.562C241.849 349.074 242.444 348.728 243.161 348.523C243.855 348.315 244.626 348.267 245.474 348.377C246.207 348.472 246.878 348.674 247.487 348.982C248.094 349.267 248.637 349.636 249.117 350.088C249.573 350.513 249.963 350.988 250.287 351.511C250.589 352.032 250.811 352.565 250.955 353.11C251.012 352.499 251.198 351.951 251.513 351.464C251.827 350.955 252.225 350.537 252.707 350.211C253.189 349.861 253.744 349.612 254.373 349.465C255.001 349.295 255.658 349.254 256.346 349.344C257.263 349.463 258.107 349.721 258.88 350.12C259.652 350.518 260.329 351.041 260.911 351.69C261.493 352.338 261.955 353.097 262.298 353.966C262.64 354.813 262.84 355.767 262.898 356.828L263.474 367.35ZM249.945 355.866C249.873 354.55 249.475 353.513 248.751 352.755C248.004 351.993 247.103 351.544 246.049 351.407C245.018 351.273 244.166 351.494 243.492 352.071C242.795 352.645 242.483 353.589 242.555 354.905L242.933 361.827L250.324 362.788L249.945 355.866ZM260.387 357.086C260.313 355.724 259.911 354.63 259.184 353.802C258.432 352.948 257.437 352.441 256.199 352.28C255.672 352.211 255.173 352.238 254.702 352.36C254.231 352.482 253.834 352.705 253.51 353.03C253.162 353.328 252.9 353.73 252.723 354.233C252.522 354.734 252.442 355.342 252.481 356.058L252.867 363.118L260.773 364.146L260.387 357.086Z" fill="black"/>
<path d="M262.89 335.46L240.261 330.722L240.813 315.584L243.323 316.11L242.876 328.372L262.995 332.585L262.89 335.46Z" fill="black"/>
<path d="M261.116 315.995C261.195 315.306 261.154 314.667 260.992 314.078C260.811 313.459 260.422 312.843 259.826 312.228C259.208 311.608 258.337 310.988 257.213 310.37C256.07 309.723 254.566 309.012 252.702 308.236L241.671 303.735L243.29 289.686L265.577 295.837L265.248 298.695L245.433 293.226L244.437 301.869L253.227 305.468C255.641 306.466 257.565 307.423 258.999 308.34C260.413 309.228 261.482 310.127 262.205 311.037C262.93 311.924 263.366 312.826 263.513 313.743C263.682 314.666 263.708 315.644 263.589 316.678L261.116 315.995Z" fill="black"/>
<path d="M269.54 274.423L264.28 274.695L261.861 285.946L266.261 289.673L265.569 292.893L245.752 276.023L246.503 272.532L270.232 271.204L269.54 274.423ZM248.938 275.265L259.62 284.268L261.682 274.678L248.938 275.265Z" fill="black"/>
<path d="M273.263 262.462C272.944 263.427 272.548 264.295 272.075 265.066C271.631 265.824 271.131 266.494 270.576 267.076C270.027 267.636 269.452 268.096 268.849 268.455C268.253 268.792 267.655 269.027 267.054 269.161L265.911 266.796C266.951 266.507 267.93 265.888 268.849 264.94C269.767 263.992 270.451 262.837 270.901 261.477C271.474 259.744 271.572 258.238 271.196 256.96C270.805 255.651 269.999 254.722 268.776 254.173C268.122 253.88 267.517 253.771 266.959 253.848C266.387 253.894 265.87 254.103 265.408 254.475C264.946 254.847 264.525 255.351 264.145 255.987C263.766 256.623 263.438 257.358 263.163 258.191L261.683 262.667L259.343 261.617L260.823 257.141C261.062 256.417 261.223 255.708 261.307 255.015C261.377 254.291 261.355 253.626 261.241 253.02C261.105 252.405 260.873 251.86 260.546 251.385C260.198 250.901 259.718 250.522 259.106 250.247C258.516 249.982 257.953 249.893 257.416 249.98C256.886 250.044 256.394 250.252 255.939 250.602C255.463 250.942 255.046 251.398 254.688 251.968C254.309 252.528 254 253.171 253.761 253.895C252.941 256.374 253.11 258.831 254.266 261.265L252.122 262.041C251.47 260.791 251.059 259.359 250.89 257.746C250.707 256.102 250.906 254.402 251.486 252.647C251.842 251.572 252.302 250.619 252.867 249.789C253.439 248.937 254.083 248.269 254.8 247.785C255.503 247.269 256.282 246.964 257.137 246.869C257.97 246.764 258.83 246.91 259.715 247.308C260.474 247.649 261.087 248.1 261.555 248.663C262.022 249.226 262.38 249.828 262.629 250.468C262.877 251.109 263.033 251.771 263.098 252.455C263.148 253.108 263.132 253.705 263.05 254.248C263.259 253.762 263.577 253.275 264.005 252.787C264.433 252.299 264.941 251.897 265.529 251.581C266.117 251.266 266.782 251.086 267.524 251.041C268.272 250.974 269.068 251.129 269.911 251.508C270.797 251.905 271.543 252.467 272.15 253.193C272.758 253.92 273.216 254.768 273.524 255.738C273.812 256.699 273.947 257.755 273.93 258.906C273.891 260.048 273.669 261.233 273.263 262.462Z" fill="black"/>
<path d="M283.516 236.367L278.159 235.694L273.17 246.065L276.755 250.423L275.327 253.391L259.204 233.682L260.752 230.465L284.944 233.399L283.516 236.367ZM262.584 233.52L271.295 244.057L275.548 235.217L262.584 233.52Z" fill="black"/>
<path d="M295.964 219.614L283.7 219.76L287.298 231.57L285.243 234.405L280.982 220.085L266.922 220.287L268.977 217.453L280.461 217.378L277.012 206.367L279.067 203.532L283.151 217.033L297.998 216.808L295.964 219.614Z" fill="black"/>
<path d="M313.739 204.119C312.297 205.039 310.794 205.644 309.229 205.934C307.664 206.225 306.119 206.229 304.595 205.948C303.077 205.637 301.627 205.064 300.246 204.228C298.865 203.393 297.639 202.309 296.566 200.977C295.494 199.645 294.734 198.263 294.289 196.831C293.843 195.399 293.706 194.002 293.877 192.639C294.053 191.246 294.546 189.937 295.358 188.711C296.169 187.484 297.295 186.411 298.737 185.491C300.178 184.571 301.682 183.966 303.247 183.676C304.812 183.385 306.354 183.396 307.873 183.707C309.397 183.988 310.849 184.546 312.23 185.382C313.61 186.217 314.837 187.301 315.91 188.633C316.982 189.965 317.741 191.347 318.187 192.779C318.633 194.211 318.768 195.624 318.592 197.016C318.421 198.379 317.93 199.673 317.118 200.899C316.307 202.126 315.18 203.199 313.739 204.119ZM312.13 202.121C313.221 201.425 314.06 200.617 314.646 199.698C315.219 198.76 315.555 197.769 315.657 196.723C315.744 195.659 315.598 194.581 315.219 193.488C314.845 192.364 314.237 191.28 313.397 190.236C312.556 189.193 311.598 188.333 310.523 187.656C309.467 186.968 308.366 186.499 307.221 186.248C306.076 185.998 304.92 185.973 303.754 186.172C302.573 186.354 301.437 186.793 300.346 187.489C299.255 188.185 298.414 189.008 297.822 189.958C297.235 190.877 296.891 191.86 296.79 192.906C296.688 193.951 296.834 195.03 297.228 196.141C297.621 197.252 298.238 198.33 299.079 199.374C299.92 200.417 300.868 201.284 301.924 201.972C302.965 202.643 304.066 203.112 305.226 203.38C306.371 203.63 307.534 203.665 308.715 203.483C309.901 203.271 311.039 202.817 312.13 202.121Z" fill="black"/>
<path d="M325.213 197.54L315.436 176.589L330.082 172.724L331.167 175.049L319.302 178.18L327.995 196.806L325.213 197.54Z" fill="black"/>
<path d="M358.767 194.229L357.099 183.754L343.589 183.272L345.257 193.747L342.382 193.644L338.746 170.812L341.621 170.914L343.186 180.739L356.696 181.221L355.131 171.396L358.006 171.499L361.642 194.331L358.767 194.229Z" fill="black"/>
<path d="M366.2 195.537L370.003 172.732L372.744 173.605L369.773 191.418L385.427 177.645L388.234 178.54L384.431 201.345L381.689 200.472L384.723 182.282L368.842 196.379L366.2 195.537Z" fill="black"/>
<path d="M400.319 208.819L412.148 188.954L420.798 194.536C421.633 195.075 422.313 195.693 422.839 196.389C423.377 197.066 423.743 197.783 423.937 198.541C424.143 199.278 424.183 200.046 424.057 200.844C423.943 201.623 423.667 202.379 423.229 203.114C422.851 203.749 422.411 204.262 421.91 204.653C421.427 205.057 420.903 205.351 420.337 205.535C419.801 205.711 419.253 205.797 418.691 205.792C418.142 205.767 417.614 205.661 417.108 205.472C417.585 205.889 417.959 206.391 418.228 206.977C418.516 207.576 418.696 208.2 418.766 208.85C418.855 209.512 418.831 210.184 418.694 210.865C418.577 211.559 418.341 212.204 417.986 212.799C417.513 213.594 416.956 214.237 416.313 214.729C415.67 215.222 414.964 215.549 414.195 215.713C413.426 215.876 412.615 215.861 411.763 215.668C410.929 215.487 410.066 215.109 409.173 214.533L400.319 208.819ZM415.265 202.88C416.372 203.594 417.384 203.835 418.302 203.603C419.231 203.351 419.968 202.768 420.512 201.855C421.044 200.961 421.212 200.025 421.015 199.046C420.83 198.048 420.185 197.191 419.078 196.477L413.253 192.718L409.44 199.121L415.265 202.88ZM409.99 212.009C411.136 212.748 412.197 213.021 413.173 212.826C414.18 212.624 415.003 211.987 415.641 210.915C415.913 210.458 416.095 209.971 416.188 209.454C416.281 208.937 416.261 208.429 416.128 207.931C416.026 207.425 415.805 206.939 415.465 206.472C415.136 205.985 414.671 205.548 414.069 205.159L408.128 201.325L404.049 208.175L409.99 212.009Z" fill="black"/>
<path d="M429.344 229.264L445.549 212.773L456.785 222.931L454.987 224.761L445.885 216.532L431.478 231.193L429.344 229.264Z" fill="black"/>
<path d="M445.603 242.066C446.073 242.575 446.58 242.954 447.123 243.202C447.699 243.453 448.4 243.533 449.226 243.443C450.07 243.339 451.068 243.027 452.219 242.508C453.403 241.992 454.856 241.223 456.576 240.2L466.69 234.095L476.285 244.485L458.066 258.72L456.114 256.606L472.312 243.95L466.409 237.558L458.34 242.416C456.118 243.744 454.224 244.697 452.659 245.277C451.128 245.859 449.8 246.152 448.674 246.155C447.563 246.175 446.618 245.949 445.838 245.477C445.039 245.02 444.287 244.409 443.582 243.645L445.603 242.066Z" fill="black"/>
<path d="M474.044 277.87L477.154 273.577L470.05 264.523L464.416 265.598L462.383 263.007L487.823 258.223L490.026 261.032L476.076 280.461L474.044 277.87ZM486.394 261.2L472.75 263.836L478.805 271.554L486.394 261.2Z" fill="black"/>
<path d="M483.353 290.95C482.778 290.111 482.329 289.274 482.006 288.437C481.675 287.63 481.449 286.835 481.328 286.051C481.22 285.286 481.21 284.562 481.297 283.879C481.397 283.215 481.58 282.612 481.846 282.069L484.45 282.65C484.036 283.624 483.923 284.755 484.111 286.043C484.299 287.33 484.799 288.565 485.608 289.747C486.64 291.253 487.785 292.255 489.042 292.753C490.332 293.26 491.577 293.214 492.776 292.615C493.417 292.295 493.88 291.897 494.165 291.422C494.484 290.956 494.638 290.432 494.627 289.849C494.616 289.266 494.474 288.633 494.2 287.951C493.927 287.268 493.542 286.565 493.046 285.84L490.381 281.952L492.676 280.805L495.341 284.694C495.772 285.323 496.239 285.883 496.741 286.374C497.278 286.874 497.824 287.266 498.38 287.552C498.957 287.826 499.537 287.984 500.121 288.026C500.724 288.057 501.326 287.923 501.926 287.623C502.505 287.334 502.926 286.957 503.191 286.493C503.468 286.047 503.608 285.542 503.61 284.978C503.633 284.404 503.527 283.804 503.293 283.179C503.079 282.544 502.757 281.911 502.326 281.282C500.85 279.128 498.779 277.745 496.112 277.132L496.823 275.012C498.229 275.282 499.63 275.849 501.026 276.712C502.456 277.584 503.694 278.783 504.739 280.308C505.379 281.242 505.855 282.181 506.169 283.124C506.496 284.087 506.63 284.992 506.573 285.84C506.549 286.696 506.309 287.481 505.855 288.194C505.421 288.897 504.769 289.465 503.901 289.899C503.157 290.271 502.414 290.462 501.673 290.474C500.932 290.486 500.228 290.39 499.561 290.186C498.894 289.982 498.267 289.694 497.679 289.322C497.125 288.959 496.656 288.579 496.273 288.182C496.532 288.641 496.725 289.185 496.85 289.813C496.975 290.441 496.981 291.078 496.868 291.723C496.755 292.368 496.486 292.988 496.062 293.584C495.651 294.199 495.032 294.712 494.205 295.125C493.336 295.559 492.423 295.785 491.464 295.803C490.506 295.821 489.542 295.65 488.573 295.29C487.626 294.919 486.696 294.372 485.785 293.65C484.895 292.918 484.084 292.018 483.353 290.95Z" fill="black"/>
<path d="M501.665 318.306L505.361 314.618L499.424 304.759L493.619 304.943L491.92 302.122L518.123 301.355L519.964 304.414L503.363 321.127L501.665 318.306ZM516.292 304.024L502.229 304.503L507.289 312.907L516.292 304.024Z" fill="black"/>
<path d="M512.721 339.884L518.608 330.272L505.802 326.839L504.161 323.746L519.64 327.987L526.357 316.95L527.998 320.043L522.426 329.01L534.413 332.138L536.054 335.231L521.427 331.284L514.345 342.946L512.721 339.884Z" fill="black"/>
<path d="M525.797 367.342C525.118 365.773 524.791 364.274 524.817 362.846C524.843 361.418 525.172 360.119 525.804 358.949C526.468 357.794 527.399 356.8 528.598 355.966C529.797 355.132 531.23 354.524 532.897 354.142C534.563 353.76 536.216 353.661 537.856 353.845C539.495 354.028 541.03 354.458 542.461 355.132C543.924 355.823 545.228 356.748 546.373 357.907C547.519 359.067 548.431 360.431 549.11 362C549.79 363.57 550.116 365.068 550.091 366.496C550.065 367.924 549.72 369.215 549.056 370.37C548.424 371.54 547.508 372.543 546.309 373.377C545.111 374.211 543.678 374.819 542.011 375.201C540.344 375.583 538.691 375.682 537.052 375.498C535.412 375.314 533.861 374.877 532.399 374.186C530.968 373.512 529.68 372.595 528.534 371.435C527.389 370.276 526.476 368.911 525.797 367.342ZM528.297 366.769C528.811 367.957 529.5 368.976 530.364 369.827C531.25 370.673 532.245 371.343 533.35 371.836C534.477 372.323 535.67 372.621 536.93 372.729C538.221 372.852 539.52 372.764 540.827 372.465C542.133 372.166 543.267 371.696 544.228 371.056C545.198 370.438 545.942 369.696 546.459 368.832C546.976 367.967 547.254 367.006 547.291 365.949C547.351 364.886 547.124 363.761 546.61 362.573C546.096 361.386 545.391 360.358 544.496 359.491C543.633 358.64 542.649 357.968 541.544 357.475C540.439 356.982 539.246 356.685 537.964 356.582C536.681 356.48 535.387 356.578 534.081 356.878C532.774 357.177 531.636 357.636 530.666 358.254C529.718 358.868 528.974 359.609 528.435 360.479C527.917 361.343 527.629 362.307 527.569 363.37C527.54 364.448 527.783 365.582 528.297 366.769Z" fill="black"/>
<path d="M533.827 384.658L556.629 380.831L561.909 395.028L559.38 395.453L555.102 383.952L534.83 387.354L533.827 384.658Z" fill="black"/>
<path d="M546.434 420.054L556.97 418.828L552.852 405.952L542.316 407.178L541.44 404.438L564.405 401.764L565.281 404.504L555.4 405.655L559.518 418.531L569.399 417.38L570.276 420.121L547.311 422.795L546.434 420.054Z" fill="black"/>
<path d="M550.048 430.809L573.129 429.463L573.852 432.247L555.824 433.299L577.197 445.131L577.937 447.983L554.857 449.329L554.134 446.545L572.543 445.47L550.745 433.493L550.048 430.809Z" fill="black"/>
<path d="M558.081 466.262L581.198 466.606L583.04 476.735C583.217 477.713 583.228 478.597 583.073 479.388C582.94 480.18 582.658 480.845 582.225 481.383C581.816 481.921 581.269 482.332 580.583 482.617C579.921 482.902 579.162 483.038 578.307 483.025C577.568 483.014 576.877 482.89 576.235 482.654C575.597 482.44 575.012 482.137 574.479 481.744C573.974 481.373 573.528 480.947 573.141 480.465C572.777 479.984 572.489 479.481 572.279 478.956C572.298 479.568 572.182 480.133 571.93 480.651C571.683 481.192 571.34 481.652 570.902 482.03C570.468 482.432 569.948 482.742 569.343 482.96C568.741 483.2 568.094 483.315 567.401 483.305C566.476 483.291 565.606 483.131 564.79 482.824C563.974 482.517 563.237 482.075 562.579 481.499C561.921 480.922 561.367 480.222 560.918 479.399C560.473 478.599 560.156 477.676 559.965 476.63L558.081 466.262ZM572.936 476.109C573.172 477.405 573.696 478.387 574.509 479.057C575.345 479.727 576.295 480.07 577.358 480.086C578.398 480.101 579.216 479.785 579.812 479.136C580.432 478.488 580.624 477.515 580.388 476.219L579.148 469.399L571.697 469.288L572.936 476.109ZM562.425 476.088C562.669 477.43 563.203 478.469 564.029 479.207C564.881 479.968 565.932 480.358 567.179 480.377C567.711 480.384 568.203 480.301 568.655 480.126C569.107 479.952 569.473 479.685 569.754 479.326C570.061 478.991 570.272 478.563 570.385 478.043C570.521 477.524 570.525 476.912 570.396 476.207L569.132 469.25L561.16 469.131L562.425 476.088Z" fill="black"/>
<path d="M563.95 499.782L586.986 501.754L588.559 516.82L586.003 516.601L584.729 504.397L564.249 502.644L563.95 499.782Z" fill="black"/>
<path d="M568.329 518.635C568.36 519.328 568.502 519.955 568.755 520.518C569.032 521.107 569.512 521.667 570.195 522.197C570.902 522.731 571.857 523.231 573.061 523.696C574.288 524.187 575.881 524.694 577.838 525.218L589.404 528.232L590.039 542.36L567.138 539.186L567.009 536.312L587.369 539.134L586.978 530.442L577.76 528.029C575.227 527.357 573.183 526.661 571.626 525.94C570.094 525.246 568.9 524.495 568.045 523.689C567.191 522.905 566.618 522.069 566.328 521.18C566.015 520.287 565.835 519.322 565.788 518.283L568.329 518.635Z" fill="black"/>
<path d="M566.096 561.366L571.179 560.329L571.476 548.825L566.499 545.773L566.584 542.481L589.014 556.308L588.921 559.877L566.01 564.658L566.096 561.366ZM586.044 557.525L573.97 550.16L573.716 559.967L586.044 557.525Z" fill="black"/>
<path d="M564.915 574.496C565.017 573.484 565.213 572.556 565.504 571.713C565.771 570.886 566.11 570.138 566.522 569.467C566.931 568.82 567.388 568.268 567.892 567.811C568.395 567.377 568.921 567.044 569.472 566.811L571.079 568.97C570.138 569.43 569.326 570.207 568.642 571.301C567.959 572.395 567.546 573.655 567.402 575.081C567.22 576.897 567.446 578.409 568.082 579.615C568.738 580.85 569.713 581.638 571.009 581.98C571.702 582.162 572.309 582.169 572.831 582C573.373 581.86 573.826 581.566 574.192 581.12C574.558 580.673 574.857 580.103 575.087 579.409C575.317 578.714 575.476 577.93 575.564 577.056L576.036 572.366L578.516 573.02L578.044 577.71C577.968 578.469 577.964 579.199 578.031 579.902C578.118 580.633 578.281 581.289 578.521 581.872C578.783 582.46 579.122 582.963 579.539 583.379C579.978 583.802 580.522 584.099 581.17 584.27C581.795 584.435 582.358 584.43 582.857 584.254C583.354 584.102 583.784 583.814 584.148 583.391C584.534 582.974 584.839 582.452 585.062 581.827C585.308 581.207 585.469 580.518 585.545 579.759C585.807 577.161 585.12 574.749 583.486 572.525L585.388 571.398C586.284 572.531 586.985 573.884 587.492 575.457C588.019 577.06 588.19 578.781 588.005 580.62C587.892 581.747 587.651 582.769 587.284 583.687C586.914 584.628 586.435 585.398 585.847 585.999C585.279 586.628 584.593 587.061 583.79 587.297C583.008 587.54 582.149 587.537 581.21 587.29C580.406 587.077 579.718 586.731 579.147 586.25C578.576 585.769 578.103 585.231 577.727 584.636C577.351 584.041 577.059 583.41 576.851 582.741C576.663 582.102 576.55 581.506 576.514 580.953C576.416 581.47 576.213 582.007 575.905 582.563C575.597 583.119 575.193 583.602 574.693 584.013C574.193 584.424 573.59 584.714 572.885 584.882C572.178 585.073 571.377 585.051 570.483 584.815C569.545 584.568 568.706 584.134 567.965 583.514C567.225 582.894 566.602 582.128 566.097 581.216C565.615 580.31 565.259 579.283 565.031 578.137C564.824 576.997 564.786 575.783 564.915 574.496Z" fill="black"/>
<path d="M561.085 604.176L566.326 603.798L568.448 592.488L563.962 588.846L564.57 585.609L584.775 602.096L584.116 605.605L560.477 607.413L561.085 604.176ZM581.616 602.919L570.727 594.122L568.917 603.763L581.616 602.919Z" fill="black"/>
<path d="M555.544 624.884L566.731 621.676L559.806 610.746L560.817 607.394L569.12 620.672L581.934 616.959L580.924 620.311L570.43 623.253L576.972 633.42L575.962 636.772L568.072 624.27L554.544 628.203L555.544 624.884Z" fill="black"/>
<path d="M545.179 647.701C546.012 646.208 547.028 645.004 548.226 644.089C549.424 643.174 550.723 642.553 552.122 642.224C553.53 641.928 554.988 641.921 556.496 642.202C558.005 642.484 559.486 643.075 560.94 643.975C562.394 644.874 563.605 645.949 564.573 647.2C565.541 648.45 566.235 649.788 566.654 651.215C567.082 652.675 567.208 654.178 567.032 655.725C566.856 657.272 566.351 658.792 565.518 660.285C564.685 661.778 563.669 662.982 562.471 663.897C561.273 664.812 559.97 665.417 558.562 665.714C557.163 666.042 555.709 666.066 554.201 665.784C552.692 665.502 551.211 664.911 549.757 664.012C548.303 663.112 547.092 662.037 546.124 660.787C545.156 659.536 544.458 658.182 544.03 656.722C543.61 655.295 543.489 653.808 543.665 652.261C543.841 650.714 544.346 649.194 545.179 647.701ZM547.36 649.051C546.73 650.181 546.357 651.321 546.244 652.472C546.149 653.636 546.276 654.759 546.623 655.843C546.99 656.938 547.559 657.955 548.33 658.894C549.11 659.865 550.07 660.703 551.21 661.409C552.349 662.114 553.512 662.589 554.697 662.834C555.871 663.098 556.992 663.127 558.06 662.919C559.128 662.711 560.112 662.274 561.011 661.61C561.931 660.957 562.706 660.066 563.337 658.936C563.967 657.806 564.335 656.649 564.441 655.465C564.555 654.314 564.438 653.197 564.091 652.113C563.744 651.03 563.175 650.013 562.384 649.062C561.593 648.111 560.627 647.283 559.487 646.578C558.348 645.872 557.191 645.387 556.017 645.122C554.862 644.87 553.741 644.841 552.654 645.037C551.586 645.245 550.592 645.675 549.673 646.328C548.762 647.013 547.991 647.921 547.36 649.051Z" fill="black"/>
<path d="M538.188 659.843L556.058 674.513L546.228 686.037L544.245 684.41L552.208 675.074L536.321 662.032L538.188 659.843Z" fill="black"/>
<path d="M513.225 682.286L520.16 690.312L531.19 682.497L524.256 674.471L526.603 672.808L541.719 690.302L539.372 691.965L532.867 684.438L521.837 692.253L528.341 699.78L525.993 701.443L510.877 683.949L513.225 682.286Z" fill="black"/>
<path d="M508.138 684.076L518.552 704.718L515.799 705.553L507.664 689.429L503.061 709.415L500.242 710.27L489.828 689.628L492.581 688.793L500.887 705.257L505.484 684.88L508.138 684.076Z" fill="black"/>
<defs>
<filter id="filter0_f_2176_2" x="129.889" y="241.649" width="584.104" height="381.239" filterUnits="userSpaceOnUse" color-interpolation-filters="sRGB">
<feFlood flood-opacity="0" result="BackgroundImageFix"/>
<feBlend mode="normal" in="SourceGraphic" in2="BackgroundImageFix" result="shape"/>
<feGaussianBlur stdDeviation="6.87182" result="effect1_foregroundBlur_2176_2"/>
</filter>
</defs>
</svg>
